<svg width="296" height="86" viewBox="0 0 296 86" fill="none" xmlns="http://www.w3.org/2000/svg">
<path d="M4.832 6.88C6.016 6.88 7.05067 7.10933 7.936 7.568C8.832 8.016 9.52 8.66667 10 9.52C10.4907 10.3627 10.736 11.3493 10.736 12.48C10.736 13.6107 10.4907 14.592 10 15.424C9.52 16.256 8.832 16.896 7.936 17.344C7.05067 17.7813 6.016 18 4.832 18H1.2V6.88H4.832ZM4.832 16.512C6.13333 16.512 7.13067 16.16 7.824 15.456C8.51733 14.752 8.864 13.76 8.864 12.48C8.864 11.1893 8.51733 10.1813 7.824 9.456C7.13067 8.73067 6.13333 8.368 4.832 8.368H3.024V16.512H4.832ZM11.9358 13.552C11.9358 12.6667 12.1171 11.8827 12.4798 11.2C12.8531 10.5173 13.3544 9.98933 13.9838 9.616C14.6238 9.232 15.3278 9.04 16.0958 9.04C16.7891 9.04 17.3918 9.17867 17.9038 9.456C18.4264 9.72267 18.8424 10.0587 19.1518 10.464V9.184H20.9918V18H19.1518V16.688C18.8424 17.104 18.4211 17.4507 17.8878 17.728C17.3544 18.0053 16.7464 18.144 16.0638 18.144C15.3064 18.144 14.6131 17.952 13.9838 17.568C13.3544 17.1733 12.8531 16.6293 12.4798 15.936C12.1171 15.232 11.9358 14.4373 11.9358 13.552ZM19.1518 13.584C19.1518 12.976 19.0238 12.448 18.7678 12C18.5224 11.552 18.1971 11.2107 17.7918 10.976C17.3864 10.7413 16.9491 10.624 16.4798 10.624C16.0104 10.624 15.5731 10.7413 15.1678 10.976C14.7624 11.2 14.4318 11.536 14.1758 11.984C13.9304 12.4213 13.8078 12.944 13.8078 13.552C13.8078 14.16 13.9304 14.6933 14.1758 15.152C14.4318 15.6107 14.7624 15.9627 15.1678 16.208C15.5838 16.4427 16.0211 16.56 16.4798 16.56C16.9491 16.56 17.3864 16.4427 17.7918 16.208C18.1971 15.9733 18.5224 15.632 18.7678 15.184C19.0238 14.7253 19.1518 14.192 19.1518 13.584ZM25.2115 10.48C25.5208 10.0747 25.9422 9.73333 26.4755 9.456C27.0088 9.17867 27.6115 9.04 28.2835 9.04C29.0515 9.04 29.7502 9.232 30.3795 9.616C31.0195 9.98933 31.5208 10.5173 31.8835 11.2C32.2462 11.8827 32.4275 12.6667 32.4275 13.552C32.4275 14.4373 32.2462 15.232 31.8835 15.936C31.5208 16.6293 31.0195 17.1733 30.3795 17.568C29.7502 17.952 29.0515 18.144 28.2835 18.144C27.6115 18.144 27.0142 18.0107 26.4915 17.744C25.9688 17.4667 25.5422 17.1253 25.2115 16.72V22.192H23.3875V9.184H25.2115V10.48ZM30.5715 13.552C30.5715 12.944 30.4435 12.4213 30.1875 11.984C29.9422 11.536 29.6115 11.2 29.1955 10.976C28.7902 10.7413 28.3528 10.624 27.8835 10.624C27.4248 10.624 26.9875 10.7413 26.5715 10.976C26.1662 11.2107 25.8355 11.552 25.5795 12C25.3342 12.448 25.2115 12.976 25.2115 13.584C25.2115 14.192 25.3342 14.7253 25.5795 15.184C25.8355 15.632 26.1662 15.9733 26.5715 16.208C26.9875 16.4427 27.4248 16.56 27.8835 16.56C28.3528 16.56 28.7902 16.4427 29.1955 16.208C29.6115 15.9627 29.9422 15.6107 30.1875 15.152C30.4435 14.6933 30.5715 14.16 30.5715 13.552ZM33.6233 13.552C33.6233 12.6667 33.8046 11.8827 34.1673 11.2C34.5406 10.5173 35.0419 9.98933 35.6713 9.616C36.3113 9.232 37.0153 9.04 37.7833 9.04C38.4766 9.04 39.0793 9.17867 39.5913 9.456C40.1139 9.72267 40.5299 10.0587 40.8393 10.464V9.184H42.6793V18H40.8393V16.688C40.5299 17.104 40.1086 17.4507 39.5753 17.728C39.0419 18.0053 38.4339 18.144 37.7513 18.144C36.9939 18.144 36.3006 17.952 35.6713 17.568C35.0419 17.1733 34.5406 16.6293 34.1673 15.936C33.8046 15.232 33.6233 14.4373 33.6233 13.552ZM40.8393 13.584C40.8393 12.976 40.7113 12.448 40.4553 12C40.2099 11.552 39.8846 11.2107 39.4793 10.976C39.0739 10.7413 38.6366 10.624 38.1673 10.624C37.6979 10.624 37.2606 10.7413 36.8553 10.976C36.4499 11.2 36.1193 11.536 35.8633 11.984C35.6179 12.4213 35.4953 12.944 35.4953 13.552C35.4953 14.16 35.6179 14.6933 35.8633 15.152C36.1193 15.6107 36.4499 15.9627 36.8553 16.208C37.2713 16.4427 37.7086 16.56 38.1673 16.56C38.6366 16.56 39.0739 16.4427 39.4793 16.208C39.8846 15.9733 40.2099 15.632 40.4553 15.184C40.7113 14.7253 40.8393 14.192 40.8393 13.584ZM47.203 10.672V15.552C47.203 15.8827 47.2777 16.1227 47.427 16.272C47.587 16.4107 47.8537 16.48 48.227 16.48H49.347V18H47.907C47.0857 18 46.4563 17.808 46.019 17.424C45.5817 17.04 45.363 16.416 45.363 15.552V10.672H44.323V9.184H45.363V6.992H47.203V9.184H49.347V10.672H47.203ZM54.5161 13.6L58.5801 18H56.1161L52.8521 14.208V18H51.0281V6.16H52.8521V13.04L56.0521 9.184H58.5801L54.5161 13.6ZM59.2795 13.552C59.2795 12.6667 59.4608 11.8827 59.8235 11.2C60.1968 10.5173 60.6982 9.98933 61.3275 9.616C61.9675 9.232 62.6715 9.04 63.4395 9.04C64.1328 9.04 64.7355 9.17867 65.2475 9.456C65.7702 9.72267 66.1862 10.0587 66.4955 10.464V9.184H68.3355V18H66.4955V16.688C66.1862 17.104 65.7648 17.4507 65.2315 17.728C64.6982 18.0053 64.0902 18.144 63.4075 18.144C62.6502 18.144 61.9568 17.952 61.3275 17.568C60.6982 17.1733 60.1968 16.6293 59.8235 15.936C59.4608 15.232 59.2795 14.4373 59.2795 13.552ZM66.4955 13.584C66.4955 12.976 66.3675 12.448 66.1115 12C65.8662 11.552 65.5408 11.2107 65.1355 10.976C64.7302 10.7413 64.2928 10.624 63.8235 10.624C63.3542 10.624 62.9168 10.7413 62.5115 10.976C62.1062 11.2 61.7755 11.536 61.5195 11.984C61.2742 12.4213 61.1515 12.944 61.1515 13.552C61.1515 14.16 61.2742 14.6933 61.5195 15.152C61.7755 15.6107 62.1062 15.9627 62.5115 16.208C62.9275 16.4427 63.3648 16.56 63.8235 16.56C64.2928 16.56 64.7302 16.4427 65.1355 16.208C65.5408 15.9733 65.8662 15.632 66.1115 15.184C66.3675 14.7253 66.4955 14.192 66.4955 13.584ZM75.1793 9.04C75.8726 9.04 76.4913 9.184 77.0353 9.472C77.5899 9.76 78.0219 10.1867 78.3313 10.752C78.6406 11.3173 78.7953 12 78.7953 12.8V18H76.9873V13.072C76.9873 12.2827 76.7899 11.68 76.3953 11.264C76.0006 10.8373 75.4619 10.624 74.7793 10.624C74.0966 10.624 73.5526 10.8373 73.1473 11.264C72.7526 11.68 72.5553 12.2827 72.5553 13.072V18H70.7313V9.184H72.5553V10.192C72.8539 9.82933 73.2326 9.54667 73.6913 9.344C74.1606 9.14133 74.6566 9.04 75.1793 9.04ZM88.9421 18.112C88.1955 18.112 87.5235 17.984 86.9261 17.728C86.3288 17.4613 85.8595 17.088 85.5181 16.608C85.1768 16.128 85.0061 15.568 85.0061 14.928H86.9581C87.0008 15.408 87.1875 15.8027 87.5181 16.112C87.8595 16.4213 88.3341 16.576 88.9421 16.576C89.5715 16.576 90.0621 16.4267 90.4141 16.128C90.7661 15.8187 90.9421 15.424 90.9421 14.944C90.9421 14.5707 90.8301 14.2667 90.6061 14.032C90.3928 13.7973 90.1208 13.616 89.7901 13.488C89.4701 13.36 89.0221 13.2213 88.4461 13.072C87.7208 12.88 87.1288 12.688 86.6701 12.496C86.2221 12.2933 85.8381 11.984 85.5181 11.568C85.1981 11.152 85.0381 10.5973 85.0381 9.904C85.0381 9.264 85.1981 8.704 85.5181 8.224C85.8381 7.744 86.2861 7.376 86.8621 7.12C87.4381 6.864 88.1048 6.736 88.8621 6.736C89.9395 6.736 90.8195 7.008 91.5021 7.552C92.1955 8.08533 92.5795 8.82133 92.6541 9.76H90.6381C90.6061 9.35467 90.4141 9.008 90.0621 8.72C89.7101 8.432 89.2461 8.288 88.6701 8.288C88.1475 8.288 87.7208 8.42133 87.3901 8.688C87.0595 8.95467 86.8941 9.33867 86.8941 9.84C86.8941 10.1813 86.9955 10.464 87.1981 10.688C87.4115 10.9013 87.6781 11.072 87.9981 11.2C88.3181 11.328 88.7555 11.4667 89.3101 11.616C90.0461 11.8187 90.6435 12.0213 91.1021 12.224C91.5715 12.4267 91.9661 12.7413 92.2861 13.168C92.6168 13.584 92.7821 14.144 92.7821 14.848C92.7821 15.4133 92.6275 15.9467 92.3181 16.448C92.0195 16.9493 91.5768 17.3547 90.9901 17.664C90.4141 17.9627 89.7315 18.112 88.9421 18.112ZM103.014 13.376C103.014 13.7067 102.993 14.0053 102.95 14.272H96.2144C96.2677 14.976 96.529 15.5413 96.9984 15.968C97.4677 16.3947 98.0437 16.608 98.7264 16.608C99.7077 16.608 100.401 16.1973 100.806 15.376H102.774C102.508 16.1867 102.022 16.8533 101.318 17.376C100.625 17.888 99.761 18.144 98.7264 18.144C97.8837 18.144 97.1264 17.9573 96.4544 17.584C95.793 17.2 95.2704 16.6667 94.8864 15.984C94.513 15.2907 94.3264 14.4907 94.3264 13.584C94.3264 12.6773 94.5077 11.8827 94.8704 11.2C95.2437 10.5067 95.761 9.97333 96.4224 9.6C97.0944 9.22667 97.8624 9.04 98.7264 9.04C99.5584 9.04 100.3 9.22133 100.95 9.584C101.601 9.94667 102.108 10.4587 102.47 11.12C102.833 11.7707 103.014 12.5227 103.014 13.376ZM101.11 12.8C101.1 12.128 100.86 11.5893 100.39 11.184C99.921 10.7787 99.3397 10.576 98.6464 10.576C98.017 10.576 97.4784 10.7787 97.0304 11.184C96.5824 11.5787 96.3157 12.1173 96.2304 12.8H101.11ZM106.633 10.464C106.9 10.016 107.252 9.66933 107.689 9.424C108.137 9.168 108.665 9.04 109.273 9.04V10.928H108.809C108.095 10.928 107.551 11.1093 107.177 11.472C106.815 11.8347 106.633 12.464 106.633 13.36V18H104.809V9.184H106.633V10.464ZM113.078 10.672V15.552C113.078 15.8827 113.153 16.1227 113.302 16.272C113.462 16.4107 113.729 16.48 114.102 16.48H115.222V18H113.782C112.961 18 112.331 17.808 111.894 17.424C111.457 17.04 111.238 16.416 111.238 15.552V10.672H110.198V9.184H111.238V6.992H113.078V9.184H115.222V10.672H113.078ZM117.831 8.016C117.5 8.016 117.223 7.904 116.999 7.68C116.775 7.456 116.663 7.17867 116.663 6.848C116.663 6.51733 116.775 6.24 116.999 6.016C117.223 5.792 117.5 5.68 117.831 5.68C118.151 5.68 118.423 5.792 118.647 6.016C118.871 6.24 118.983 6.51733 118.983 6.848C118.983 7.17867 118.871 7.456 118.647 7.68C118.423 7.904 118.151 8.016 117.831 8.016ZM118.727 9.184V18H116.903V9.184H118.727ZM124.818 10.672H123.186V18H121.346V10.672H120.306V9.184H121.346V8.56C121.346 7.54667 121.613 6.81067 122.146 6.352C122.69 5.88267 123.538 5.648 124.69 5.648V7.168C124.135 7.168 123.746 7.27467 123.522 7.488C123.298 7.69067 123.186 8.048 123.186 8.56V9.184H124.818V10.672ZM127.362 8.016C127.032 8.016 126.754 7.904 126.53 7.68C126.306 7.456 126.194 7.17867 126.194 6.848C126.194 6.51733 126.306 6.24 126.53 6.016C126.754 5.792 127.032 5.68 127.362 5.68C127.682 5.68 127.954 5.792 128.178 6.016C128.402 6.24 128.514 6.51733 128.514 6.848C128.514 7.17867 128.402 7.456 128.178 7.68C127.954 7.904 127.682 8.016 127.362 8.016ZM128.258 9.184V18H126.434V9.184H128.258ZM134.141 13.6L138.205 18H135.741L132.477 14.208V18H130.653V6.16H132.477V13.04L135.677 9.184H138.205L134.141 13.6ZM138.905 13.552C138.905 12.6667 139.086 11.8827 139.449 11.2C139.822 10.5173 140.323 9.98933 140.953 9.616C141.593 9.232 142.297 9.04 143.065 9.04C143.758 9.04 144.361 9.17867 144.873 9.456C145.395 9.72267 145.811 10.0587 146.121 10.464V9.184H147.961V18H146.121V16.688C145.811 17.104 145.39 17.4507 144.857 17.728C144.323 18.0053 143.715 18.144 143.033 18.144C142.275 18.144 141.582 17.952 140.953 17.568C140.323 17.1733 139.822 16.6293 139.449 15.936C139.086 15.232 138.905 14.4373 138.905 13.552ZM146.121 13.584C146.121 12.976 145.993 12.448 145.737 12C145.491 11.552 145.166 11.2107 144.761 10.976C144.355 10.7413 143.918 10.624 143.449 10.624C142.979 10.624 142.542 10.7413 142.137 10.976C141.731 11.2 141.401 11.536 141.145 11.984C140.899 12.4213 140.777 12.944 140.777 13.552C140.777 14.16 140.899 14.6933 141.145 15.152C141.401 15.6107 141.731 15.9627 142.137 16.208C142.553 16.4427 142.99 16.56 143.449 16.56C143.918 16.56 144.355 16.4427 144.761 16.208C145.166 15.9733 145.491 15.632 145.737 15.184C145.993 14.7253 146.121 14.192 146.121 13.584ZM152.484 10.672V15.552C152.484 15.8827 152.559 16.1227 152.708 16.272C152.868 16.4107 153.135 16.48 153.508 16.48H154.628V18H153.188C152.367 18 151.738 17.808 151.3 17.424C150.863 17.04 150.644 16.416 150.644 15.552V10.672H149.604V9.184H150.644V6.992H152.484V9.184H154.628V10.672H152.484Z" fill="#202939"/>
<path d="M3.528 36.636C4.44 36.636 5.228 36.808 5.892 37.152C6.564 37.488 7.076 37.972 7.428 38.604C7.788 39.236 7.968 39.98 7.968 40.836C7.968 41.692 7.788 42.436 7.428 43.068C7.076 43.692 6.564 44.172 5.892 44.508C5.228 44.836 4.44 45 3.528 45H0.924V36.636H3.528ZM3.528 44.1C4.608 44.1 5.432 43.816 6 43.248C6.568 42.672 6.852 41.868 6.852 40.836C6.852 39.796 6.564 38.984 5.988 38.4C5.42 37.816 4.6 37.524 3.528 37.524H2.016V44.1H3.528ZM9.00038 41.688C9.00038 41.016 9.13638 40.428 9.40838 39.924C9.68038 39.412 10.0524 39.016 10.5244 38.736C11.0044 38.456 11.5364 38.316 12.1204 38.316C12.6964 38.316 13.1964 38.44 13.6204 38.688C14.0444 38.936 14.3604 39.248 14.5684 39.624V38.424H15.6724V45H14.5684V43.776C14.3524 44.16 14.0284 44.48 13.5964 44.736C13.1724 44.984 12.6764 45.108 12.1084 45.108C11.5244 45.108 10.9964 44.964 10.5244 44.676C10.0524 44.388 9.68038 43.984 9.40838 43.464C9.13638 42.944 9.00038 42.352 9.00038 41.688ZM14.5684 41.7C14.5684 41.204 14.4684 40.772 14.2684 40.404C14.0684 40.036 13.7964 39.756 13.4524 39.564C13.1164 39.364 12.7444 39.264 12.3364 39.264C11.9284 39.264 11.5564 39.36 11.2204 39.552C10.8844 39.744 10.6164 40.024 10.4164 40.392C10.2164 40.76 10.1164 41.192 10.1164 41.688C10.1164 42.192 10.2164 42.632 10.4164 43.008C10.6164 43.376 10.8844 43.66 11.2204 43.86C11.5564 44.052 11.9284 44.148 12.3364 44.148C12.7444 44.148 13.1164 44.052 13.4524 43.86C13.7964 43.66 14.0684 43.376 14.2684 43.008C14.4684 42.632 14.5684 42.196 14.5684 41.7ZM18.6098 39.636C18.8258 39.26 19.1458 38.948 19.5698 38.7C20.0018 38.444 20.5018 38.316 21.0698 38.316C21.6538 38.316 22.1818 38.456 22.6537 38.736C23.1337 39.016 23.5098 39.412 23.7818 39.924C24.0538 40.428 24.1898 41.016 24.1898 41.688C24.1898 42.352 24.0538 42.944 23.7818 43.464C23.5098 43.984 23.1337 44.388 22.6537 44.676C22.1818 44.964 21.6538 45.108 21.0698 45.108C20.5098 45.108 20.0138 44.984 19.5818 44.736C19.1578 44.48 18.8338 44.164 18.6098 43.788V48.12H17.5178V38.424H18.6098V39.636ZM23.0738 41.688C23.0738 41.192 22.9738 40.76 22.7738 40.392C22.5738 40.024 22.3018 39.744 21.9578 39.552C21.6218 39.36 21.2498 39.264 20.8418 39.264C20.4418 39.264 20.0698 39.364 19.7258 39.564C19.3898 39.756 19.1178 40.04 18.9098 40.416C18.7098 40.784 18.6098 41.212 18.6098 41.7C18.6098 42.196 18.7098 42.632 18.9098 43.008C19.1178 43.376 19.3898 43.66 19.7258 43.86C20.0698 44.052 20.4418 44.148 20.8418 44.148C21.2498 44.148 21.6218 44.052 21.9578 43.86C22.3018 43.66 22.5738 43.376 22.7738 43.008C22.9738 42.632 23.0738 42.192 23.0738 41.688ZM25.2191 41.688C25.2191 41.016 25.3551 40.428 25.6271 39.924C25.8991 39.412 26.2711 39.016 26.7431 38.736C27.2231 38.456 27.7551 38.316 28.3391 38.316C28.9151 38.316 29.4151 38.44 29.8391 38.688C30.2631 38.936 30.5791 39.248 30.7871 39.624V38.424H31.8911V45H30.7871V43.776C30.5711 44.16 30.2471 44.48 29.8151 44.736C29.3911 44.984 28.8951 45.108 28.3271 45.108C27.7431 45.108 27.2151 44.964 26.7431 44.676C26.2711 44.388 25.8991 43.984 25.6271 43.464C25.3551 42.944 25.2191 42.352 25.2191 41.688ZM30.7871 41.7C30.7871 41.204 30.6871 40.772 30.4871 40.404C30.2871 40.036 30.0151 39.756 29.6711 39.564C29.3351 39.364 28.9631 39.264 28.5551 39.264C28.1471 39.264 27.7751 39.36 27.4391 39.552C27.1031 39.744 26.8351 40.024 26.6351 40.392C26.4351 40.76 26.3351 41.192 26.3351 41.688C26.3351 42.192 26.4351 42.632 26.6351 43.008C26.8351 43.376 27.1031 43.66 27.4391 43.86C27.7751 44.052 28.1471 44.148 28.5551 44.148C28.9631 44.148 29.3351 44.052 29.6711 43.86C30.0151 43.66 30.2871 43.376 30.4871 43.008C30.6871 42.632 30.7871 42.196 30.7871 41.7ZM35.0685 39.324V43.2C35.0685 43.52 35.1365 43.748 35.2725 43.884C35.4085 44.012 35.6445 44.076 35.9805 44.076H36.7845V45H35.8005C35.1925 45 34.7365 44.86 34.4325 44.58C34.1285 44.3 33.9765 43.84 33.9765 43.2V39.324H33.1245V38.424H33.9765V36.768H35.0685V38.424H36.7845V39.324H35.0685ZM41.7796 45L39.1996 42.096V45H38.1076V36.12H39.1996V41.34L41.7316 38.424H43.2556L40.1596 41.7L43.2676 45H41.7796ZM43.8754 41.688C43.8754 41.016 44.0114 40.428 44.2834 39.924C44.5554 39.412 44.9274 39.016 45.3994 38.736C45.8794 38.456 46.4114 38.316 46.9954 38.316C47.5714 38.316 48.0714 38.44 48.4954 38.688C48.9194 38.936 49.2354 39.248 49.4434 39.624V38.424H50.5474V45H49.4434V43.776C49.2274 44.16 48.9034 44.48 48.4714 44.736C48.0474 44.984 47.5514 45.108 46.9834 45.108C46.3994 45.108 45.8714 44.964 45.3994 44.676C44.9274 44.388 44.5554 43.984 44.2834 43.464C44.0114 42.944 43.8754 42.352 43.8754 41.688ZM49.4434 41.7C49.4434 41.204 49.3434 40.772 49.1434 40.404C48.9434 40.036 48.6714 39.756 48.3274 39.564C47.9914 39.364 47.6194 39.264 47.2114 39.264C46.8034 39.264 46.4314 39.36 46.0954 39.552C45.7594 39.744 45.4914 40.024 45.2914 40.392C45.0914 40.76 44.9914 41.192 44.9914 41.688C44.9914 42.192 45.0914 42.632 45.2914 43.008C45.4914 43.376 45.7594 43.66 46.0954 43.86C46.4314 44.052 46.8034 44.148 47.2114 44.148C47.6194 44.148 47.9914 44.052 48.3274 43.86C48.6714 43.66 48.9434 43.376 49.1434 43.008C49.3434 42.632 49.4434 42.196 49.4434 41.7ZM55.5968 38.304C56.3968 38.304 57.0448 38.548 57.5408 39.036C58.0368 39.516 58.2848 40.212 58.2848 41.124V45H57.2048V41.28C57.2048 40.624 57.0408 40.124 56.7128 39.78C56.3848 39.428 55.9368 39.252 55.3688 39.252C54.7928 39.252 54.3328 39.432 53.9888 39.792C53.6528 40.152 53.4848 40.676 53.4848 41.364V45H52.3928V38.424H53.4848V39.36C53.7008 39.024 53.9928 38.764 54.3608 38.58C54.7368 38.396 55.1488 38.304 55.5968 38.304ZM64.3598 39.636C64.5758 39.26 64.8958 38.948 65.3198 38.7C65.7518 38.444 66.2518 38.316 66.8198 38.316C67.4038 38.316 67.9318 38.456 68.4037 38.736C68.8837 39.016 69.2598 39.412 69.5318 39.924C69.8038 40.428 69.9398 41.016 69.9398 41.688C69.9398 42.352 69.8038 42.944 69.5318 43.464C69.2598 43.984 68.8837 44.388 68.4037 44.676C67.9318 44.964 67.4038 45.108 66.8198 45.108C66.2598 45.108 65.7638 44.984 65.3318 44.736C64.9078 44.48 64.5838 44.164 64.3598 43.788V48.12H63.2678V38.424H64.3598V39.636ZM68.8238 41.688C68.8238 41.192 68.7238 40.76 68.5238 40.392C68.3238 40.024 68.0518 39.744 67.7078 39.552C67.3718 39.36 66.9998 39.264 66.5918 39.264C66.1918 39.264 65.8198 39.364 65.4758 39.564C65.1398 39.756 64.8678 40.04 64.6598 40.416C64.4598 40.784 64.3598 41.212 64.3598 41.7C64.3598 42.196 64.4598 42.632 64.6598 43.008C64.8678 43.376 65.1398 43.66 65.4758 43.86C65.8198 44.052 66.1918 44.148 66.5918 44.148C66.9998 44.148 67.3718 44.052 67.7078 43.86C68.0518 43.66 68.3238 43.376 68.5238 43.008C68.7238 42.632 68.8238 42.192 68.8238 41.688ZM72.4691 39.492C72.6611 39.116 72.9331 38.824 73.2851 38.616C73.6451 38.408 74.0811 38.304 74.5931 38.304V39.432H74.3051C73.0811 39.432 72.4691 40.096 72.4691 41.424V45H71.3771V38.424H72.4691V39.492ZM78.7217 45.108C78.1057 45.108 77.5457 44.968 77.0417 44.688C76.5457 44.408 76.1537 44.012 75.8657 43.5C75.5857 42.98 75.4457 42.38 75.4457 41.7C75.4457 41.028 75.5897 40.436 75.8777 39.924C76.1737 39.404 76.5737 39.008 77.0777 38.736C77.5817 38.456 78.1457 38.316 78.7697 38.316C79.3937 38.316 79.9577 38.456 80.4617 38.736C80.9657 39.008 81.3617 39.4 81.6497 39.912C81.9457 40.424 82.0937 41.02 82.0937 41.7C82.0937 42.38 81.9417 42.98 81.6377 43.5C81.3417 44.012 80.9377 44.408 80.4257 44.688C79.9137 44.968 79.3457 45.108 78.7217 45.108ZM78.7217 44.148C79.1137 44.148 79.4817 44.056 79.8257 43.872C80.1697 43.688 80.4457 43.412 80.6537 43.044C80.8697 42.676 80.9777 42.228 80.9777 41.7C80.9777 41.172 80.8737 40.724 80.6657 40.356C80.4577 39.988 80.1857 39.716 79.8497 39.54C79.5137 39.356 79.1497 39.264 78.7577 39.264C78.3577 39.264 77.9897 39.356 77.6537 39.54C77.3257 39.716 77.0617 39.988 76.8617 40.356C76.6617 40.724 76.5617 41.172 76.5617 41.7C76.5617 42.236 76.6577 42.688 76.8497 43.056C77.0497 43.424 77.3137 43.7 77.6417 43.884C77.9697 44.06 78.3297 44.148 78.7217 44.148ZM86.2415 38.316C86.8095 38.316 87.3055 38.44 87.7295 38.688C88.1615 38.936 88.4815 39.248 88.6895 39.624V38.424H89.7935V45.144C89.7935 45.744 89.6655 46.276 89.4095 46.74C89.1535 47.212 88.7855 47.58 88.3055 47.844C87.8335 48.108 87.2815 48.24 86.6495 48.24C85.7855 48.24 85.0655 48.036 84.4895 47.628C83.9135 47.22 83.5735 46.664 83.4695 45.96H84.5495C84.6695 46.36 84.9175 46.68 85.2935 46.92C85.6695 47.168 86.1215 47.292 86.6495 47.292C87.2495 47.292 87.7375 47.104 88.1135 46.728C88.4975 46.352 88.6895 45.824 88.6895 45.144V43.764C88.4735 44.148 88.1535 44.468 87.7295 44.724C87.3055 44.98 86.8095 45.108 86.2415 45.108C85.6575 45.108 85.1255 44.964 84.6455 44.676C84.1735 44.388 83.8015 43.984 83.5295 43.464C83.2575 42.944 83.1215 42.352 83.1215 41.688C83.1215 41.016 83.2575 40.428 83.5295 39.924C83.8015 39.412 84.1735 39.016 84.6455 38.736C85.1255 38.456 85.6575 38.316 86.2415 38.316ZM88.6895 41.7C88.6895 41.204 88.5895 40.772 88.3895 40.404C88.1895 40.036 87.9175 39.756 87.5735 39.564C87.2375 39.364 86.8655 39.264 86.4575 39.264C86.0495 39.264 85.6775 39.36 85.3415 39.552C85.0055 39.744 84.7375 40.024 84.5375 40.392C84.3375 40.76 84.2375 41.192 84.2375 41.688C84.2375 42.192 84.3375 42.632 84.5375 43.008C84.7375 43.376 85.0055 43.66 85.3415 43.86C85.6775 44.052 86.0495 44.148 86.4575 44.148C86.8655 44.148 87.2375 44.052 87.5735 43.86C87.9175 43.66 88.1895 43.376 88.3895 43.008C88.5895 42.632 88.6895 42.196 88.6895 41.7ZM92.7308 39.492C92.9228 39.116 93.1948 38.824 93.5468 38.616C93.9068 38.408 94.3428 38.304 94.8548 38.304V39.432H94.5668C93.3428 39.432 92.7308 40.096 92.7308 41.424V45H91.6388V38.424H92.7308V39.492ZM95.7074 41.688C95.7074 41.016 95.8434 40.428 96.1154 39.924C96.3874 39.412 96.7594 39.016 97.2314 38.736C97.7114 38.456 98.2434 38.316 98.8274 38.316C99.4034 38.316 99.9034 38.44 100.327 38.688C100.751 38.936 101.067 39.248 101.275 39.624V38.424H102.379V45H101.275V43.776C101.059 44.16 100.735 44.48 100.303 44.736C99.8794 44.984 99.3834 45.108 98.8154 45.108C98.2314 45.108 97.7034 44.964 97.2314 44.676C96.7594 44.388 96.3874 43.984 96.1154 43.464C95.8434 42.944 95.7074 42.352 95.7074 41.688ZM101.275 41.7C101.275 41.204 101.175 40.772 100.975 40.404C100.775 40.036 100.503 39.756 100.159 39.564C99.8234 39.364 99.4514 39.264 99.0434 39.264C98.6354 39.264 98.2634 39.36 97.9274 39.552C97.5914 39.744 97.3234 40.024 97.1234 40.392C96.9234 40.76 96.8234 41.192 96.8234 41.688C96.8234 42.192 96.9234 42.632 97.1234 43.008C97.3234 43.376 97.5914 43.66 97.9274 43.86C98.2634 44.052 98.6354 44.148 99.0434 44.148C99.4514 44.148 99.8234 44.052 100.159 43.86C100.503 43.66 100.775 43.376 100.975 43.008C101.175 42.632 101.275 42.196 101.275 41.7ZM112.133 38.304C112.645 38.304 113.101 38.412 113.501 38.628C113.901 38.836 114.217 39.152 114.449 39.576C114.681 40 114.797 40.516 114.797 41.124V45H113.717V41.28C113.717 40.624 113.553 40.124 113.225 39.78C112.905 39.428 112.469 39.252 111.917 39.252C111.349 39.252 110.897 39.436 110.561 39.804C110.225 40.164 110.057 40.688 110.057 41.376V45H108.977V41.28C108.977 40.624 108.813 40.124 108.485 39.78C108.165 39.428 107.729 39.252 107.177 39.252C106.609 39.252 106.157 39.436 105.821 39.804C105.485 40.164 105.317 40.688 105.317 41.376V45H104.225V38.424H105.317V39.372C105.533 39.028 105.821 38.764 106.181 38.58C106.549 38.396 106.953 38.304 107.393 38.304C107.945 38.304 108.433 38.428 108.857 38.676C109.281 38.924 109.597 39.288 109.805 39.768C109.989 39.304 110.293 38.944 110.717 38.688C111.141 38.432 111.613 38.304 112.133 38.304ZM122.115 45.108C121.611 45.108 121.159 45.024 120.759 44.856C120.359 44.68 120.043 44.44 119.811 44.136C119.579 43.824 119.451 43.468 119.427 43.068H120.555C120.587 43.396 120.739 43.664 121.011 43.872C121.291 44.08 121.655 44.184 122.103 44.184C122.519 44.184 122.847 44.092 123.087 43.908C123.327 43.724 123.447 43.492 123.447 43.212C123.447 42.924 123.319 42.712 123.063 42.576C122.807 42.432 122.411 42.292 121.875 42.156C121.387 42.028 120.987 41.9 120.675 41.772C120.371 41.636 120.107 41.44 119.883 41.184C119.667 40.92 119.559 40.576 119.559 40.152C119.559 39.816 119.659 39.508 119.859 39.228C120.059 38.948 120.343 38.728 120.711 38.568C121.079 38.4 121.499 38.316 121.971 38.316C122.699 38.316 123.287 38.5 123.735 38.868C124.183 39.236 124.423 39.74 124.455 40.38H123.363C123.339 40.036 123.199 39.76 122.943 39.552C122.695 39.344 122.359 39.24 121.935 39.24C121.543 39.24 121.231 39.324 120.999 39.492C120.767 39.66 120.651 39.88 120.651 40.152C120.651 40.368 120.719 40.548 120.855 40.692C120.999 40.828 121.175 40.94 121.383 41.028C121.599 41.108 121.895 41.2 122.271 41.304C122.743 41.432 123.127 41.56 123.423 41.688C123.719 41.808 123.971 41.992 124.179 42.24C124.395 42.488 124.507 42.812 124.515 43.212C124.515 43.572 124.415 43.896 124.215 44.184C124.015 44.472 123.731 44.7 123.363 44.868C123.003 45.028 122.587 45.108 122.115 45.108ZM132.057 41.46C132.057 41.668 132.045 41.888 132.021 42.12H126.765C126.805 42.768 127.025 43.276 127.425 43.644C127.833 44.004 128.325 44.184 128.901 44.184C129.373 44.184 129.765 44.076 130.077 43.86C130.397 43.636 130.621 43.34 130.749 42.972H131.925C131.749 43.604 131.397 44.12 130.869 44.52C130.341 44.912 129.685 45.108 128.901 45.108C128.277 45.108 127.717 44.968 127.221 44.688C126.733 44.408 126.349 44.012 126.069 43.5C125.789 42.98 125.649 42.38 125.649 41.7C125.649 41.02 125.785 40.424 126.057 39.912C126.329 39.4 126.709 39.008 127.197 38.736C127.693 38.456 128.261 38.316 128.901 38.316C129.525 38.316 130.077 38.452 130.557 38.724C131.037 38.996 131.405 39.372 131.661 39.852C131.925 40.324 132.057 40.86 132.057 41.46ZM130.929 41.232C130.929 40.816 130.837 40.46 130.653 40.164C130.469 39.86 130.217 39.632 129.897 39.48C129.585 39.32 129.237 39.24 128.853 39.24C128.301 39.24 127.829 39.416 127.437 39.768C127.053 40.12 126.833 40.608 126.777 41.232H130.929ZM134.59 39.492C134.782 39.116 135.054 38.824 135.406 38.616C135.766 38.408 136.202 38.304 136.714 38.304V39.432H136.426C135.202 39.432 134.59 40.096 134.59 41.424V45H133.498V38.424H134.59V39.492ZM139.307 39.324V43.2C139.307 43.52 139.375 43.748 139.511 43.884C139.647 44.012 139.883 44.076 140.219 44.076H141.023V45H140.039C139.431 45 138.975 44.86 138.671 44.58C138.367 44.3 138.215 43.84 138.215 43.2V39.324H137.363V38.424H138.215V36.768H139.307V38.424H141.023V39.324H139.307ZM142.91 37.356C142.702 37.356 142.526 37.284 142.382 37.14C142.238 36.996 142.166 36.82 142.166 36.612C142.166 36.404 142.238 36.228 142.382 36.084C142.526 35.94 142.702 35.868 142.91 35.868C143.11 35.868 143.278 35.94 143.414 36.084C143.558 36.228 143.63 36.404 143.63 36.612C143.63 36.82 143.558 36.996 143.414 37.14C143.278 37.284 143.11 37.356 142.91 37.356ZM143.438 38.424V45H142.346V38.424H143.438ZM147.975 39.324H146.595V45H145.503V39.324H144.651V38.424H145.503V37.956C145.503 37.22 145.691 36.684 146.067 36.348C146.451 36.004 147.063 35.832 147.903 35.832V36.744C147.423 36.744 147.083 36.84 146.883 37.032C146.691 37.216 146.595 37.524 146.595 37.956V38.424H147.975V39.324ZM149.812 37.356C149.604 37.356 149.428 37.284 149.284 37.14C149.14 36.996 149.068 36.82 149.068 36.612C149.068 36.404 149.14 36.228 149.284 36.084C149.428 35.94 149.604 35.868 149.812 35.868C150.012 35.868 150.18 35.94 150.316 36.084C150.46 36.228 150.532 36.404 150.532 36.612C150.532 36.82 150.46 36.996 150.316 37.14C150.18 37.284 150.012 37.356 149.812 37.356ZM150.34 38.424V45H149.248V38.424H150.34ZM155.873 45L153.293 42.096V45H152.201V36.12H153.293V41.34L155.825 38.424H157.349L154.253 41.7L157.361 45H155.873ZM157.969 41.688C157.969 41.016 158.105 40.428 158.377 39.924C158.649 39.412 159.021 39.016 159.493 38.736C159.973 38.456 160.505 38.316 161.089 38.316C161.665 38.316 162.165 38.44 162.589 38.688C163.013 38.936 163.329 39.248 163.537 39.624V38.424H164.641V45H163.537V43.776C163.321 44.16 162.997 44.48 162.565 44.736C162.141 44.984 161.645 45.108 161.077 45.108C160.493 45.108 159.965 44.964 159.493 44.676C159.021 44.388 158.649 43.984 158.377 43.464C158.105 42.944 157.969 42.352 157.969 41.688ZM163.537 41.7C163.537 41.204 163.437 40.772 163.237 40.404C163.037 40.036 162.765 39.756 162.421 39.564C162.085 39.364 161.713 39.264 161.305 39.264C160.897 39.264 160.525 39.36 160.189 39.552C159.853 39.744 159.585 40.024 159.385 40.392C159.185 40.76 159.085 41.192 159.085 41.688C159.085 42.192 159.185 42.632 159.385 43.008C159.585 43.376 159.853 43.66 160.189 43.86C160.525 44.052 160.897 44.148 161.305 44.148C161.713 44.148 162.085 44.052 162.421 43.86C162.765 43.66 163.037 43.376 163.237 43.008C163.437 42.632 163.537 42.196 163.537 41.7ZM167.819 39.324V43.2C167.819 43.52 167.887 43.748 168.023 43.884C168.159 44.012 168.395 44.076 168.73 44.076H169.535V45H168.551C167.943 45 167.487 44.86 167.183 44.58C166.879 44.3 166.727 43.84 166.727 43.2V39.324H165.875V38.424H166.727V36.768H167.819V38.424H169.535V39.324H167.819ZM2.016 57.636C2.232 57.26 2.552 56.948 2.976 56.7C3.408 56.444 3.908 56.316 4.476 56.316C5.06 56.316 5.588 56.456 6.06 56.736C6.54 57.016 6.916 57.412 7.188 57.924C7.46 58.428 7.596 59.016 7.596 59.688C7.596 60.352 7.46 60.944 7.188 61.464C6.916 61.984 6.54 62.388 6.06 62.676C5.588 62.964 5.06 63.108 4.476 63.108C3.916 63.108 3.42 62.984 2.988 62.736C2.564 62.48 2.24 62.164 2.016 61.788V66.12H0.924V56.424H2.016V57.636ZM6.48 59.688C6.48 59.192 6.38 58.76 6.18 58.392C5.98 58.024 5.708 57.744 5.364 57.552C5.028 57.36 4.656 57.264 4.248 57.264C3.848 57.264 3.476 57.364 3.132 57.564C2.796 57.756 2.524 58.04 2.316 58.416C2.116 58.784 2.016 59.212 2.016 59.7C2.016 60.196 2.116 60.632 2.316 61.008C2.524 61.376 2.796 61.66 3.132 61.86C3.476 62.052 3.848 62.148 4.248 62.148C4.656 62.148 5.028 62.052 5.364 61.86C5.708 61.66 5.98 61.376 6.18 61.008C6.38 60.632 6.48 60.192 6.48 59.688ZM10.1254 57.492C10.3174 57.116 10.5894 56.824 10.9414 56.616C11.3014 56.408 11.7374 56.304 12.2494 56.304V57.432H11.9614C10.7374 57.432 10.1254 58.096 10.1254 59.424V63H9.03338V56.424H10.1254V57.492ZM16.3779 63.108C15.7619 63.108 15.2019 62.968 14.6979 62.688C14.2019 62.408 13.8099 62.012 13.5219 61.5C13.2419 60.98 13.1019 60.38 13.1019 59.7C13.1019 59.028 13.2459 58.436 13.5339 57.924C13.8299 57.404 14.2299 57.008 14.7339 56.736C15.2379 56.456 15.8019 56.316 16.4259 56.316C17.0499 56.316 17.6139 56.456 18.1179 56.736C18.6219 57.008 19.0179 57.4 19.3059 57.912C19.6019 58.424 19.7499 59.02 19.7499 59.7C19.7499 60.38 19.5979 60.98 19.2939 61.5C18.9979 62.012 18.5939 62.408 18.0819 62.688C17.5699 62.968 17.0019 63.108 16.3779 63.108ZM16.3779 62.148C16.7699 62.148 17.1379 62.056 17.4819 61.872C17.8259 61.688 18.1019 61.412 18.3099 61.044C18.5259 60.676 18.6339 60.228 18.6339 59.7C18.6339 59.172 18.5299 58.724 18.3219 58.356C18.1139 57.988 17.8419 57.716 17.5059 57.54C17.1699 57.356 16.8059 57.264 16.4139 57.264C16.0139 57.264 15.6459 57.356 15.3099 57.54C14.9819 57.716 14.7179 57.988 14.5179 58.356C14.3179 58.724 14.2179 59.172 14.2179 59.7C14.2179 60.236 14.3139 60.688 14.5059 61.056C14.7059 61.424 14.9699 61.7 15.2979 61.884C15.6259 62.06 15.9859 62.148 16.3779 62.148ZM23.8617 57.324H22.4817V63H21.3897V57.324H20.5377V56.424H21.3897V55.956C21.3897 55.22 21.5777 54.684 21.9537 54.348C22.3377 54.004 22.9497 53.832 23.7897 53.832V54.744C23.3097 54.744 22.9697 54.84 22.7697 55.032C22.5777 55.216 22.4817 55.524 22.4817 55.956V56.424H23.8617V57.324ZM31.1349 59.46C31.1349 59.668 31.1229 59.888 31.0989 60.12H25.8429C25.8829 60.768 26.1029 61.276 26.5029 61.644C26.9109 62.004 27.4029 62.184 27.9789 62.184C28.4509 62.184 28.8429 62.076 29.1549 61.86C29.4749 61.636 29.6989 61.34 29.8269 60.972H31.0029C30.8269 61.604 30.4749 62.12 29.9469 62.52C29.4189 62.912 28.7629 63.108 27.9789 63.108C27.3549 63.108 26.7949 62.968 26.2989 62.688C25.8109 62.408 25.4269 62.012 25.1469 61.5C24.8669 60.98 24.7269 60.38 24.7269 59.7C24.7269 59.02 24.8629 58.424 25.1349 57.912C25.4069 57.4 25.7869 57.008 26.2749 56.736C26.7709 56.456 27.3389 56.316 27.9789 56.316C28.6029 56.316 29.1549 56.452 29.6349 56.724C30.1149 56.996 30.4829 57.372 30.7389 57.852C31.0029 58.324 31.1349 58.86 31.1349 59.46ZM30.0069 59.232C30.0069 58.816 29.9149 58.46 29.7309 58.164C29.5469 57.86 29.2949 57.632 28.9749 57.48C28.6629 57.32 28.3149 57.24 27.9309 57.24C27.3789 57.24 26.9069 57.416 26.5149 57.768C26.1309 58.12 25.9109 58.608 25.8549 59.232H30.0069ZM34.9043 63.108C34.4003 63.108 33.9483 63.024 33.5483 62.856C33.1483 62.68 32.8323 62.44 32.6003 62.136C32.3683 61.824 32.2403 61.468 32.2163 61.068H33.3443C33.3763 61.396 33.5283 61.664 33.8003 61.872C34.0803 62.08 34.4443 62.184 34.8923 62.184C35.3083 62.184 35.6363 62.092 35.8763 61.908C36.1163 61.724 36.2363 61.492 36.2363 61.212C36.2363 60.924 36.1083 60.712 35.8523 60.576C35.5963 60.432 35.2003 60.292 34.6643 60.156C34.1763 60.028 33.7763 59.9 33.4643 59.772C33.1603 59.636 32.8963 59.44 32.6723 59.184C32.4563 58.92 32.3483 58.576 32.3483 58.152C32.3483 57.816 32.4483 57.508 32.6483 57.228C32.8483 56.948 33.1323 56.728 33.5003 56.568C33.8683 56.4 34.2883 56.316 34.7603 56.316C35.4883 56.316 36.0763 56.5 36.5243 56.868C36.9723 57.236 37.2123 57.74 37.2443 58.38H36.1523C36.1283 58.036 35.9883 57.76 35.7323 57.552C35.4843 57.344 35.1483 57.24 34.7243 57.24C34.3323 57.24 34.0203 57.324 33.7883 57.492C33.5563 57.66 33.4403 57.88 33.4403 58.152C33.4403 58.368 33.5083 58.548 33.6443 58.692C33.7883 58.828 33.9643 58.94 34.1723 59.028C34.3883 59.108 34.6843 59.2 35.0603 59.304C35.5323 59.432 35.9163 59.56 36.2123 59.688C36.5083 59.808 36.7603 59.992 36.9683 60.24C37.1843 60.488 37.2963 60.812 37.3043 61.212C37.3043 61.572 37.2043 61.896 37.0043 62.184C36.8043 62.472 36.5203 62.7 36.1523 62.868C35.7923 63.028 35.3763 63.108 34.9043 63.108ZM39.4099 55.356C39.2019 55.356 39.0259 55.284 38.8819 55.14C38.7379 54.996 38.6659 54.82 38.6659 54.612C38.6659 54.404 38.7379 54.228 38.8819 54.084C39.0259 53.94 39.2019 53.868 39.4099 53.868C39.6099 53.868 39.7779 53.94 39.9139 54.084C40.0579 54.228 40.1299 54.404 40.1299 54.612C40.1299 54.82 40.0579 54.996 39.9139 55.14C39.7779 55.284 39.6099 55.356 39.4099 55.356ZM39.9379 56.424V63H38.8459V56.424H39.9379ZM44.667 63.108C44.051 63.108 43.491 62.968 42.987 62.688C42.491 62.408 42.099 62.012 41.811 61.5C41.531 60.98 41.391 60.38 41.391 59.7C41.391 59.028 41.535 58.436 41.823 57.924C42.119 57.404 42.519 57.008 43.023 56.736C43.527 56.456 44.091 56.316 44.715 56.316C45.339 56.316 45.903 56.456 46.407 56.736C46.911 57.008 47.307 57.4 47.595 57.912C47.891 58.424 48.039 59.02 48.039 59.7C48.039 60.38 47.887 60.98 47.583 61.5C47.287 62.012 46.883 62.408 46.371 62.688C45.859 62.968 45.291 63.108 44.667 63.108ZM44.667 62.148C45.059 62.148 45.427 62.056 45.771 61.872C46.115 61.688 46.391 61.412 46.599 61.044C46.815 60.676 46.923 60.228 46.923 59.7C46.923 59.172 46.819 58.724 46.611 58.356C46.403 57.988 46.131 57.716 45.795 57.54C45.459 57.356 45.095 57.264 44.703 57.264C44.303 57.264 43.935 57.356 43.599 57.54C43.271 57.716 43.007 57.988 42.807 58.356C42.607 58.724 42.507 59.172 42.507 59.7C42.507 60.236 42.603 60.688 42.795 61.056C42.995 61.424 43.259 61.7 43.587 61.884C43.915 62.06 44.275 62.148 44.667 62.148ZM52.6788 56.304C53.4788 56.304 54.1268 56.548 54.6228 57.036C55.1188 57.516 55.3668 58.212 55.3668 59.124V63H54.2868V59.28C54.2868 58.624 54.1228 58.124 53.7948 57.78C53.4668 57.428 53.0188 57.252 52.4508 57.252C51.8748 57.252 51.4148 57.432 51.0708 57.792C50.7348 58.152 50.5668 58.676 50.5668 59.364V63H49.4748V56.424H50.5668V57.36C50.7828 57.024 51.0748 56.764 51.4428 56.58C51.8188 56.396 52.2308 56.304 52.6788 56.304ZM56.7426 59.688C56.7426 59.016 56.8786 58.428 57.1506 57.924C57.4226 57.412 57.7946 57.016 58.2666 56.736C58.7466 56.456 59.2786 56.316 59.8626 56.316C60.4386 56.316 60.9386 56.44 61.3626 56.688C61.7866 56.936 62.1026 57.248 62.3106 57.624V56.424H63.4146V63H62.3106V61.776C62.0946 62.16 61.7706 62.48 61.3386 62.736C60.9146 62.984 60.4186 63.108 59.8506 63.108C59.2666 63.108 58.7386 62.964 58.2666 62.676C57.7946 62.388 57.4226 61.984 57.1506 61.464C56.8786 60.944 56.7426 60.352 56.7426 59.688ZM62.3106 59.7C62.3106 59.204 62.2106 58.772 62.0106 58.404C61.8106 58.036 61.5386 57.756 61.1946 57.564C60.8586 57.364 60.4866 57.264 60.0786 57.264C59.6706 57.264 59.2986 57.36 58.9626 57.552C58.6266 57.744 58.3586 58.024 58.1586 58.392C57.9586 58.76 57.8586 59.192 57.8586 59.688C57.8586 60.192 57.9586 60.632 58.1586 61.008C58.3586 61.376 58.6266 61.66 58.9626 61.86C59.2986 62.052 59.6706 62.148 60.0786 62.148C60.4866 62.148 60.8586 62.052 61.1946 61.86C61.5386 61.66 61.8106 61.376 62.0106 61.008C62.2106 60.632 62.3106 60.196 62.3106 59.7ZM66.3519 54.12V63H65.2599V54.12H66.3519ZM77.0763 56.424L73.1163 66.096H71.9883L73.2843 62.928L70.6323 56.424H71.8443L73.9083 61.752L75.9483 56.424H77.0763ZM77.766 59.688C77.766 59.016 77.902 58.428 78.174 57.924C78.446 57.412 78.818 57.016 79.29 56.736C79.77 56.456 80.302 56.316 80.886 56.316C81.462 56.316 81.962 56.44 82.386 56.688C82.81 56.936 83.126 57.248 83.334 57.624V56.424H84.438V63H83.334V61.776C83.118 62.16 82.794 62.48 82.362 62.736C81.938 62.984 81.442 63.108 80.874 63.108C80.29 63.108 79.762 62.964 79.29 62.676C78.818 62.388 78.446 61.984 78.174 61.464C77.902 60.944 77.766 60.352 77.766 59.688ZM83.334 59.7C83.334 59.204 83.234 58.772 83.034 58.404C82.834 58.036 82.562 57.756 82.218 57.564C81.882 57.364 81.51 57.264 81.102 57.264C80.694 57.264 80.322 57.36 79.986 57.552C79.65 57.744 79.382 58.024 79.182 58.392C78.982 58.76 78.882 59.192 78.882 59.688C78.882 60.192 78.982 60.632 79.182 61.008C79.382 61.376 79.65 61.66 79.986 61.86C80.322 62.052 80.694 62.148 81.102 62.148C81.51 62.148 81.882 62.052 82.218 61.86C82.562 61.66 82.834 61.376 83.034 61.008C83.234 60.632 83.334 60.196 83.334 59.7ZM89.4874 56.304C90.2874 56.304 90.9354 56.548 91.4314 57.036C91.9274 57.516 92.1754 58.212 92.1754 59.124V63H91.0954V59.28C91.0954 58.624 90.9314 58.124 90.6034 57.78C90.2754 57.428 89.8274 57.252 89.2594 57.252C88.6834 57.252 88.2234 57.432 87.8794 57.792C87.5434 58.152 87.3754 58.676 87.3754 59.364V63H86.2834V56.424H87.3754V57.36C87.5914 57.024 87.8834 56.764 88.2514 56.58C88.6274 56.396 89.0394 56.304 89.4874 56.304ZM96.6712 56.316C97.2392 56.316 97.7352 56.44 98.1592 56.688C98.5912 56.936 98.9112 57.248 99.1192 57.624V56.424H100.223V63.144C100.223 63.744 100.095 64.276 99.8392 64.74C99.5832 65.212 99.2152 65.58 98.7352 65.844C98.2632 66.108 97.7112 66.24 97.0792 66.24C96.2152 66.24 95.4952 66.036 94.9192 65.628C94.3432 65.22 94.0032 64.664 93.8992 63.96H94.9792C95.0992 64.36 95.3472 64.68 95.7232 64.92C96.0992 65.168 96.5512 65.292 97.0792 65.292C97.6792 65.292 98.1672 65.104 98.5432 64.728C98.9272 64.352 99.1192 63.824 99.1192 63.144V61.764C98.9032 62.148 98.5832 62.468 98.1592 62.724C97.7352 62.98 97.2392 63.108 96.6712 63.108C96.0872 63.108 95.5552 62.964 95.0752 62.676C94.6032 62.388 94.2312 61.984 93.9592 61.464C93.6872 60.944 93.5512 60.352 93.5512 59.688C93.5512 59.016 93.6872 58.428 93.9592 57.924C94.2312 57.412 94.6032 57.016 95.0752 56.736C95.5552 56.456 96.0872 56.316 96.6712 56.316ZM99.1192 59.7C99.1192 59.204 99.0192 58.772 98.8192 58.404C98.6192 58.036 98.3472 57.756 98.0032 57.564C97.6672 57.364 97.2952 57.264 96.8872 57.264C96.4792 57.264 96.1072 57.36 95.7712 57.552C95.4352 57.744 95.1672 58.024 94.9672 58.392C94.7672 58.76 94.6672 59.192 94.6672 59.688C94.6672 60.192 94.7672 60.632 94.9672 61.008C95.1672 61.376 95.4352 61.66 95.7712 61.86C96.1072 62.052 96.4792 62.148 96.8872 62.148C97.2952 62.148 97.6672 62.052 98.0032 61.86C98.3472 61.66 98.6192 61.376 98.8192 61.008C99.0192 60.632 99.1192 60.196 99.1192 59.7ZM106.6 57.324V61.2C106.6 61.52 106.668 61.748 106.804 61.884C106.94 62.012 107.176 62.076 107.512 62.076H108.316V63H107.332C106.724 63 106.268 62.86 105.964 62.58C105.66 62.3 105.508 61.84 105.508 61.2V57.324H104.656V56.424H105.508V54.768H106.6V56.424H108.316V57.324H106.6ZM115.639 59.46C115.639 59.668 115.627 59.888 115.603 60.12H110.347C110.387 60.768 110.607 61.276 111.007 61.644C111.415 62.004 111.907 62.184 112.483 62.184C112.955 62.184 113.347 62.076 113.659 61.86C113.979 61.636 114.203 61.34 114.331 60.972H115.507C115.331 61.604 114.979 62.12 114.451 62.52C113.923 62.912 113.267 63.108 112.483 63.108C111.859 63.108 111.299 62.968 110.803 62.688C110.315 62.408 109.931 62.012 109.651 61.5C109.371 60.98 109.231 60.38 109.231 59.7C109.231 59.02 109.367 58.424 109.639 57.912C109.911 57.4 110.291 57.008 110.779 56.736C111.275 56.456 111.843 56.316 112.483 56.316C113.107 56.316 113.659 56.452 114.139 56.724C114.619 56.996 114.987 57.372 115.243 57.852C115.507 58.324 115.639 58.86 115.639 59.46ZM114.511 59.232C114.511 58.816 114.419 58.46 114.235 58.164C114.051 57.86 113.799 57.632 113.479 57.48C113.167 57.32 112.819 57.24 112.435 57.24C111.883 57.24 111.411 57.416 111.019 57.768C110.635 58.12 110.415 58.608 110.359 59.232H114.511ZM118.172 57.636C118.388 57.26 118.708 56.948 119.132 56.7C119.564 56.444 120.064 56.316 120.632 56.316C121.216 56.316 121.744 56.456 122.216 56.736C122.696 57.016 123.072 57.412 123.344 57.924C123.616 58.428 123.752 59.016 123.752 59.688C123.752 60.352 123.616 60.944 123.344 61.464C123.072 61.984 122.696 62.388 122.216 62.676C121.744 62.964 121.216 63.108 120.632 63.108C120.072 63.108 119.576 62.984 119.144 62.736C118.72 62.48 118.396 62.164 118.172 61.788V66.12H117.08V56.424H118.172V57.636ZM122.636 59.688C122.636 59.192 122.536 58.76 122.336 58.392C122.136 58.024 121.864 57.744 121.52 57.552C121.184 57.36 120.812 57.264 120.404 57.264C120.004 57.264 119.632 57.364 119.288 57.564C118.952 57.756 118.68 58.04 118.472 58.416C118.272 58.784 118.172 59.212 118.172 59.7C118.172 60.196 118.272 60.632 118.472 61.008C118.68 61.376 118.952 61.66 119.288 61.86C119.632 62.052 120.004 62.148 120.404 62.148C120.812 62.148 121.184 62.052 121.52 61.86C121.864 61.66 122.136 61.376 122.336 61.008C122.536 60.632 122.636 60.192 122.636 59.688ZM124.782 59.688C124.782 59.016 124.918 58.428 125.19 57.924C125.462 57.412 125.834 57.016 126.306 56.736C126.786 56.456 127.318 56.316 127.902 56.316C128.478 56.316 128.978 56.44 129.402 56.688C129.826 56.936 130.142 57.248 130.35 57.624V56.424H131.454V63H130.35V61.776C130.134 62.16 129.81 62.48 129.378 62.736C128.954 62.984 128.458 63.108 127.89 63.108C127.306 63.108 126.778 62.964 126.306 62.676C125.834 62.388 125.462 61.984 125.19 61.464C124.918 60.944 124.782 60.352 124.782 59.688ZM130.35 59.7C130.35 59.204 130.25 58.772 130.05 58.404C129.85 58.036 129.578 57.756 129.234 57.564C128.898 57.364 128.526 57.264 128.118 57.264C127.71 57.264 127.338 57.36 127.002 57.552C126.666 57.744 126.398 58.024 126.198 58.392C125.998 58.76 125.898 59.192 125.898 59.688C125.898 60.192 125.998 60.632 126.198 61.008C126.398 61.376 126.666 61.66 127.002 61.86C127.338 62.052 127.71 62.148 128.118 62.148C128.526 62.148 128.898 62.052 129.234 61.86C129.578 61.66 129.85 61.376 130.05 61.008C130.25 60.632 130.35 60.196 130.35 59.7ZM134.631 57.324V61.2C134.631 61.52 134.699 61.748 134.835 61.884C134.971 62.012 135.207 62.076 135.543 62.076H136.347V63H135.363C134.755 63 134.299 62.86 133.995 62.58C133.691 62.3 133.539 61.84 133.539 61.2V57.324H132.687V56.424H133.539V54.768H134.631V56.424H136.347V57.324H134.631ZM146.701 56.424V63H145.609V62.028C145.401 62.364 145.109 62.628 144.733 62.82C144.365 63.004 143.957 63.096 143.509 63.096C142.997 63.096 142.537 62.992 142.129 62.784C141.721 62.568 141.397 62.248 141.157 61.824C140.925 61.4 140.809 60.884 140.809 60.276V56.424H141.889V60.132C141.889 60.78 142.053 61.28 142.381 61.632C142.709 61.976 143.157 62.148 143.725 62.148C144.309 62.148 144.769 61.968 145.105 61.608C145.441 61.248 145.609 60.724 145.609 60.036V56.424H146.701ZM151.749 56.304C152.549 56.304 153.197 56.548 153.693 57.036C154.189 57.516 154.437 58.212 154.437 59.124V63H153.357V59.28C153.357 58.624 153.193 58.124 152.865 57.78C152.537 57.428 152.089 57.252 151.521 57.252C150.945 57.252 150.485 57.432 150.141 57.792C149.805 58.152 149.637 58.676 149.637 59.364V63H148.545V56.424H149.637V57.36C149.853 57.024 150.145 56.764 150.513 56.58C150.889 56.396 151.301 56.304 151.749 56.304ZM157.553 57.324V61.2C157.553 61.52 157.621 61.748 157.757 61.884C157.893 62.012 158.129 62.076 158.465 62.076H159.269V63H158.285C157.677 63 157.221 62.86 156.917 62.58C156.613 62.3 156.461 61.84 156.461 61.2V57.324H155.609V56.424H156.461V54.768H157.553V56.424H159.269V57.324H157.553ZM166.424 56.424V63H165.332V62.028C165.124 62.364 164.832 62.628 164.456 62.82C164.088 63.004 163.68 63.096 163.232 63.096C162.72 63.096 162.26 62.992 161.852 62.784C161.444 62.568 161.12 62.248 160.88 61.824C160.648 61.4 160.532 60.884 160.532 60.276V56.424H161.612V60.132C161.612 60.78 161.776 61.28 162.104 61.632C162.432 61.976 162.88 62.148 163.448 62.148C164.032 62.148 164.492 61.968 164.828 61.608C165.164 61.248 165.332 60.724 165.332 60.036V56.424H166.424ZM171.94 63L169.36 60.096V63H168.268V54.12H169.36V59.34L171.892 56.424H173.416L170.32 59.7L173.428 63H171.94ZM5.868 79.14H2.22L1.548 81H0.396L3.42 72.684H4.68L7.692 81H6.54L5.868 79.14ZM5.556 78.252L4.044 74.028L2.532 78.252H5.556ZM12.2139 74.304C13.0139 74.304 13.6619 74.548 14.1579 75.036C14.6539 75.516 14.9019 76.212 14.9019 77.124V81H13.8219V77.28C13.8219 76.624 13.6579 76.124 13.3299 75.78C13.0019 75.428 12.5539 75.252 11.9859 75.252C11.4099 75.252 10.9499 75.432 10.6059 75.792C10.2699 76.152 10.1019 76.676 10.1019 77.364V81H9.00994V74.424H10.1019V75.36C10.3179 75.024 10.6099 74.764 10.9779 74.58C11.3539 74.396 11.7659 74.304 12.2139 74.304ZM16.2777 77.688C16.2777 77.016 16.4137 76.428 16.6857 75.924C16.9577 75.412 17.3297 75.016 17.8017 74.736C18.2817 74.456 18.8177 74.316 19.4097 74.316C19.9217 74.316 20.3977 74.436 20.8377 74.676C21.2777 74.908 21.6137 75.216 21.8457 75.6V72.12H22.9497V81H21.8457V79.764C21.6297 80.156 21.3097 80.48 20.8857 80.736C20.4617 80.984 19.9657 81.108 19.3977 81.108C18.8137 81.108 18.2817 80.964 17.8017 80.676C17.3297 80.388 16.9577 79.984 16.6857 79.464C16.4137 78.944 16.2777 78.352 16.2777 77.688ZM21.8457 77.7C21.8457 77.204 21.7457 76.772 21.5457 76.404C21.3457 76.036 21.0737 75.756 20.7297 75.564C20.3937 75.364 20.0217 75.264 19.6137 75.264C19.2057 75.264 18.8337 75.36 18.4977 75.552C18.1617 75.744 17.8937 76.024 17.6937 76.392C17.4937 76.76 17.3937 77.192 17.3937 77.688C17.3937 78.192 17.4937 78.632 17.6937 79.008C17.8937 79.376 18.1617 79.66 18.4977 79.86C18.8337 80.052 19.2057 80.148 19.6137 80.148C20.0217 80.148 20.3937 80.052 20.7297 79.86C21.0737 79.66 21.3457 79.376 21.5457 79.008C21.7457 78.632 21.8457 78.196 21.8457 77.7ZM24.3871 77.688C24.3871 77.016 24.5231 76.428 24.7951 75.924C25.0671 75.412 25.4391 75.016 25.9111 74.736C26.3911 74.456 26.9231 74.316 27.5071 74.316C28.0831 74.316 28.5831 74.44 29.0071 74.688C29.4311 74.936 29.7471 75.248 29.9551 75.624V74.424H31.0591V81H29.9551V79.776C29.7391 80.16 29.4151 80.48 28.9831 80.736C28.5591 80.984 28.0631 81.108 27.4951 81.108C26.9111 81.108 26.3831 80.964 25.9111 80.676C25.4391 80.388 25.0671 79.984 24.7951 79.464C24.5231 78.944 24.3871 78.352 24.3871 77.688ZM29.9551 77.7C29.9551 77.204 29.8551 76.772 29.6551 76.404C29.4551 76.036 29.1831 75.756 28.8391 75.564C28.5031 75.364 28.1311 75.264 27.7231 75.264C27.3151 75.264 26.9431 75.36 26.6071 75.552C26.2711 75.744 26.0031 76.024 25.8031 76.392C25.6031 76.76 25.5031 77.192 25.5031 77.688C25.5031 78.192 25.6031 78.632 25.8031 79.008C26.0031 79.376 26.2711 79.66 26.6071 79.86C26.9431 80.052 27.3151 80.148 27.7231 80.148C28.1311 80.148 28.5031 80.052 28.8391 79.86C29.1831 79.66 29.4551 79.376 29.6551 79.008C29.8551 78.632 29.9551 78.196 29.9551 77.7ZM33.2525 81.072C33.0445 81.072 32.8685 81 32.7245 80.856C32.5805 80.712 32.5085 80.536 32.5085 80.328C32.5085 80.12 32.5805 79.944 32.7245 79.8C32.8685 79.656 33.0445 79.584 33.2525 79.584C33.4525 79.584 33.6205 79.656 33.7565 79.8C33.9005 79.944 33.9725 80.12 33.9725 80.328C33.9725 80.536 33.9005 80.712 33.7565 80.856C33.6205 81 33.4525 81.072 33.2525 81.072Z" fill="#697586"/>
<path d="M286.672 19.7264C284.815 17.2639 282.494 15.1891 279.84 13.6192C275.432 11 270.458 9.42396 265.424 8.55196C249.496 5.79516 240.765 8.71196 234.179 13.4528C229.818 16.6 228.446 23.2912 227.158 28.1568C226.435 30.888 225.79 33.648 224.891 36.328C223.494 40.488 220.322 43.848 219.264 48.1376C218.144 52.664 218.232 57.432 219.782 61.8512C222.846 70.5808 228.053 75.64 240 77.32C246.4 78.2224 251.544 75.5776 256.854 72.3952C260.128 70.4336 263.522 68.6656 267.278 67.8656C271.246 67.0224 275.328 66.9056 279.307 66.1216C288.208 64.3696 291.064 55.9456 292.221 47.9664C293.621 38.3056 292.744 27.7472 286.672 19.7264Z" fill="#3498DB"/>
<path opacity="0.7" d="M286.672 19.7264C284.815 17.2639 282.494 15.1891 279.84 13.6192C275.432 11 270.458 9.42396 265.424 8.55196C249.496 5.79516 240.765 8.71196 234.179 13.4528C229.818 16.6 228.446 23.2912 227.158 28.1568C226.435 30.888 225.79 33.648 224.891 36.328C223.494 40.488 220.322 43.848 219.264 48.1376C218.144 52.664 218.232 57.432 219.782 61.8512C222.846 70.5808 228.053 75.64 240 77.32C246.4 78.2224 251.544 75.5776 256.854 72.3952C260.128 70.4336 263.522 68.6656 267.278 67.8656C271.246 67.0224 275.328 66.9056 279.307 66.1216C288.208 64.3696 291.064 55.9456 292.221 47.9664C293.621 38.3056 292.744 27.7472 286.672 19.7264Z" fill="white"/>
<g opacity="0.2">
<path d="M292.407 12.4578H261.885L260.802 15.0546H292.407V12.4578Z" stroke="black" stroke-linejoin="round"/>
<path d="M292.407 15.0544H261.885L260.802 17.6528H292.407V15.0544Z" stroke="black" stroke-linejoin="round"/>
<path d="M292.407 17.6531H261.885L260.802 20.2499H292.407V17.6531Z" stroke="black" stroke-linejoin="round"/>
<path d="M292.407 20.2498H261.885L260.802 22.8482H292.407V20.2498Z" stroke="black" stroke-linejoin="round"/>
<path d="M292.407 22.8479H261.885L260.802 25.4447H292.407V22.8479Z" stroke="black" stroke-linejoin="round"/>
<path d="M292.407 25.4451H261.885L260.802 28.0435H292.407V25.4451Z" stroke="black" stroke-linejoin="round"/>
<path d="M292.407 28.0432H261.885L260.802 30.64H292.407V28.0432Z" stroke="black" stroke-linejoin="round"/>
<path d="M292.407 30.6399H261.885L260.802 33.2383H292.407V30.6399Z" stroke="black" stroke-linejoin="round"/>
<path d="M292.407 33.2385H261.885L260.802 35.8353H292.407V33.2385Z" stroke="black" stroke-linejoin="round"/>
<path d="M292.407 35.8352H261.885L260.802 38.4336H292.407V35.8352Z" stroke="black" stroke-linejoin="round"/>
<path d="M292.407 38.4338H261.885L260.802 41.0306H292.407V38.4338Z" stroke="black" stroke-linejoin="round"/>
<path d="M292.407 41.0305H261.885L260.802 43.6289H292.407V41.0305Z" stroke="black" stroke-linejoin="round"/>
<path d="M292.407 43.6287H261.885L260.802 46.2255H292.407V43.6287Z" stroke="black" stroke-linejoin="round"/>
<path d="M292.407 46.2258H261.885L260.802 48.8242H292.407V46.2258Z" stroke="black" stroke-linejoin="round"/>
<path d="M292.407 48.824H261.885L260.802 51.4208H292.407V48.824Z" stroke="black" stroke-linejoin="round"/>
<path d="M292.407 51.4207H261.885L260.802 54.0191H292.407V51.4207Z" stroke="black" stroke-linejoin="round"/>
<path d="M293.054 11.592H260.477V54.8848H293.054V11.592Z" stroke="black" stroke-linejoin="round"/>
</g>
<g opacity="0.2">
<path d="M232.914 70.499H221.967V76.2766H232.914V70.499Z" stroke="black" stroke-linejoin="round"/>
<path d="M228.328 72.7119H226.551V73.5727H228.328V72.7119Z" stroke="black" stroke-linejoin="round"/>
<path d="M233.474 62.9902H221.405V77.7726H233.474V62.9902Z" stroke="black" stroke-linejoin="round"/>
<path d="M232.914 63.739H221.967V69.5166H232.914V63.739Z" stroke="black" stroke-linejoin="round"/>
<path d="M228.328 65.9519H226.551V66.8127H228.328V65.9519Z" stroke="black" stroke-linejoin="round"/>
<path d="M228.641 62.0542H224.337V62.9902H228.641V62.0542Z" stroke="black" stroke-linejoin="round"/>
<path d="M226.676 59.155H225.927V62.0558H226.676V59.155Z" stroke="black" stroke-linejoin="round"/>
<path d="M230.231 52.4175H222.184V59.1535H230.231V52.4175Z" stroke="black" stroke-linejoin="round"/>
</g>
<g opacity="0.2">
<path d="M278.224 70.7745V58.4225C278.224 58.1892 278.178 57.9582 278.089 57.7426C278 57.527 277.869 57.3312 277.704 57.1662C277.539 57.0012 277.343 56.8704 277.128 56.7812C276.912 56.6921 276.681 56.6463 276.448 56.6465H260.221V70.8977" stroke="black" stroke-linejoin="round"/>
<path d="M260.357 56.6465H243.827C243.594 56.6465 243.363 56.6924 243.148 56.7817C242.932 56.871 242.737 57.0018 242.572 57.1668C242.407 57.3317 242.276 57.5275 242.187 57.743C242.098 57.9584 242.053 58.1893 242.053 58.4225V70.7745" stroke="black" stroke-linejoin="round"/>
<path d="M279.827 71.96V76.12H260.229V70.7744H278.646C278.802 70.7742 278.956 70.8048 279.099 70.8643C279.243 70.9239 279.373 71.0113 279.483 71.1215C279.593 71.2317 279.68 71.3625 279.739 71.5064C279.798 71.6503 279.828 71.8045 279.827 71.96Z" stroke="black" stroke-linejoin="round"/>
<path d="M260.377 70.7744H241.628C241.473 70.7744 241.32 70.805 241.177 70.8643C241.034 70.9237 240.904 71.0107 240.794 71.1204C240.685 71.23 240.598 71.3602 240.539 71.5035C240.479 71.6467 240.449 71.8002 240.449 71.9552V76.1152H260.377" stroke="black" stroke-linejoin="round"/>
<path d="M240.449 77.8545V76.1089H279.86V77.8545" stroke="black" stroke-linejoin="round"/>
<path d="M242.053 63.6865C241.942 63.5707 241.808 63.4786 241.661 63.4156C241.513 63.3526 241.354 63.3201 241.194 63.3201H237.624C237.468 63.3199 237.313 63.3505 237.169 63.4101C237.024 63.4698 236.893 63.5573 236.782 63.6677C236.672 63.7781 236.584 63.9092 236.524 64.0536C236.464 64.1979 236.434 64.3526 236.434 64.5089V77.7697" stroke="black" stroke-linejoin="round"/>
<path d="M283.428 77.6835V64.5091C283.428 64.1938 283.303 63.8915 283.08 63.6685C282.857 63.4456 282.555 63.3203 282.24 63.3203H278.67C278.517 63.3196 278.365 63.3496 278.224 63.4083" stroke="black" stroke-linejoin="round"/>
</g>
<path d="M286.153 11.3295V49.8895C286.153 50.3563 285.968 50.8039 285.638 51.134C285.308 51.4641 284.86 51.6495 284.393 51.6495H228.713C228.246 51.6495 227.799 51.4641 227.469 51.134C227.139 50.8039 226.953 50.3563 226.953 49.8895V11.3295C226.953 10.9051 227.122 10.4982 227.422 10.1981C227.722 9.89806 228.129 9.72949 228.553 9.72949H284.553C284.977 9.72949 285.384 9.89806 285.684 10.1981C285.985 10.4982 286.153 10.9051 286.153 11.3295Z" fill="#3498DB" stroke="#263238" stroke-width="0.5" stroke-miterlimit="10"/>
<path d="M286.153 11.3295V14.6575H226.953V11.3295C226.953 10.9051 227.122 10.4982 227.422 10.1981C227.722 9.89806 228.129 9.72949 228.553 9.72949H284.553C284.977 9.72949 285.384 9.89806 285.684 10.1981C285.985 10.4982 286.153 10.9051 286.153 11.3295Z" fill="#C9C9C9" stroke="#263238" stroke-width="0.5" stroke-miterlimit="10"/>
<path d="M265.107 14.0127H233.526C233.384 14.0123 233.248 13.9555 233.147 13.8547C233.047 13.7539 232.99 13.6174 232.99 13.4751C232.99 13.3328 233.047 13.1963 233.147 13.0955C233.248 12.9947 233.384 12.9379 233.526 12.9375H265.107C265.25 12.9375 265.386 12.9941 265.487 13.095C265.588 13.1958 265.645 13.3325 265.645 13.4751C265.645 13.6177 265.588 13.7544 265.487 13.8552C265.386 13.9561 265.25 14.0127 265.107 14.0127Z" fill="white" stroke="#263238" stroke-width="0.5" stroke-miterlimit="10"/>
<path d="M283.153 13.0447H285.195" stroke="#263238" stroke-width="0.5" stroke-miterlimit="10"/>
<path d="M283.153 13.4751H285.195" stroke="#263238" stroke-width="0.5" stroke-miterlimit="10"/>
<path d="M283.153 13.9055H285.195" stroke="#263238" stroke-width="0.5" stroke-miterlimit="10"/>
<path d="M286.153 11.3295V12.2895H226.953V11.3295C226.953 10.9051 227.122 10.4982 227.422 10.1981C227.722 9.89806 228.129 9.72949 228.553 9.72949H284.553C284.977 9.72949 285.384 9.89806 285.684 10.1981C285.985 10.4982 286.153 10.9051 286.153 11.3295Z" fill="#263238" stroke="#263238" stroke-width="0.5" stroke-miterlimit="10"/>
<path d="M280.256 11.0622C280.257 10.9649 280.23 10.8692 280.178 10.7874C280.125 10.7056 280.049 10.6414 279.96 10.6029C279.87 10.5644 279.771 10.5534 279.676 10.5714C279.58 10.5893 279.492 10.6353 279.423 10.7035C279.353 10.7718 279.306 10.8591 279.286 10.9545C279.267 11.0498 279.276 11.1488 279.313 11.2388C279.35 11.3288 279.413 11.4057 279.494 11.4597C279.575 11.5138 279.67 11.5425 279.768 11.5422C279.831 11.5432 279.895 11.5316 279.954 11.508C280.013 11.4843 280.067 11.4491 280.112 11.4045C280.158 11.3598 280.194 11.3065 280.218 11.2477C280.243 11.189 280.256 11.1259 280.256 11.0622Z" fill="white" stroke="#263238" stroke-width="0.5" stroke-miterlimit="10"/>
<path d="M282.278 11.0624C282.28 10.9656 282.252 10.8704 282.2 10.7891C282.147 10.7078 282.071 10.6441 281.982 10.6059C281.893 10.5677 281.795 10.5569 281.7 10.5748C281.605 10.5927 281.517 10.6386 281.448 10.7065C281.379 10.7744 281.331 10.8613 281.312 10.9562C281.292 11.0511 281.302 11.1496 281.338 11.2393C281.375 11.3289 281.438 11.4056 281.518 11.4596C281.598 11.5136 281.693 11.5424 281.79 11.5424C281.854 11.5435 281.917 11.5318 281.976 11.5082C282.035 11.4845 282.089 11.4494 282.135 11.4047C282.18 11.36 282.216 11.3067 282.241 11.248C282.265 11.1892 282.278 11.1261 282.278 11.0624Z" fill="white" stroke="#263238" stroke-width="0.5" stroke-miterlimit="10"/>
<path d="M284.3 11.0624C284.302 10.9656 284.275 10.8704 284.222 10.7891C284.169 10.7078 284.094 10.6441 284.005 10.6059C283.916 10.5677 283.817 10.5569 283.722 10.5748C283.627 10.5927 283.539 10.6386 283.47 10.7065C283.401 10.7744 283.354 10.8613 283.334 10.9562C283.315 11.0511 283.324 11.1496 283.361 11.2393C283.397 11.3289 283.46 11.4056 283.54 11.4596C283.621 11.5136 283.715 11.5424 283.812 11.5424C283.876 11.5435 283.939 11.5318 283.998 11.5082C284.058 11.4845 284.111 11.4494 284.157 11.4047C284.202 11.36 284.238 11.3067 284.263 11.248C284.288 11.1892 284.3 11.1261 284.3 11.0624Z" fill="white" stroke="#263238" stroke-width="0.5" stroke-miterlimit="10"/>
<path d="M282.962 16.3008H230.305V49.2544H282.962V16.3008Z" fill="white" stroke="#263238" stroke-width="0.5" stroke-miterlimit="10"/>
<path d="M281.619 17.6655H231.648V47.8863H281.619V17.6655Z" stroke="#3498DB" stroke-width="0.5" stroke-miterlimit="10"/>
<path d="M280.342 19.1777H232.925V46.3777H280.342V19.1777Z" stroke="#3498DB" stroke-width="0.5" stroke-miterlimit="10"/>
<path d="M248.703 22.3599V22.6399H248.373V22.3423C248.373 22.0623 248.263 21.8943 248.01 21.8943C247.757 21.8943 247.647 22.0543 247.647 22.3423V23.9839C247.647 24.2623 247.762 24.4319 248.01 24.4319C248.258 24.4319 248.373 24.2623 248.373 23.9839V23.5791H248.703V23.9599C248.703 24.4303 248.481 24.7407 248.001 24.7407C247.521 24.7407 247.305 24.4303 247.305 23.9599V22.3599C247.305 21.8895 247.527 21.5791 248.001 21.5791C248.474 21.5791 248.703 21.8879 248.703 22.3599Z" fill="#263238"/>
<path d="M250.123 22.9839V23.2943H249.363V24.3983H250.296V24.7183H249.016V21.6079H250.296V21.9279H249.363V22.9887L250.123 22.9839Z" fill="#263238"/>
<path d="M251.307 21.6079C251.795 21.6079 251.998 21.8575 251.998 22.3183V22.5711C251.998 22.9135 251.878 23.1263 251.613 23.2111C251.896 23.2959 252.003 23.5311 252.003 23.8591V24.3391C251.993 24.4666 252.014 24.5947 252.065 24.7119H251.715C251.666 24.593 251.646 24.4641 251.657 24.3359V23.8479C251.657 23.4959 251.497 23.3855 251.205 23.3855H250.96V24.7119H250.614V21.6079H251.307ZM251.217 23.0719C251.493 23.0719 251.657 22.9839 251.657 22.6463V22.3487C251.657 22.0703 251.555 21.9231 251.297 21.9231H250.96V23.0719H251.217Z" fill="#263238"/>
<path d="M252.814 24.7134V21.923H252.243V21.603H253.733V21.923H253.162V24.7134H252.814Z" fill="#263238"/>
<path d="M254.318 21.6079V24.7135H253.973V21.6079H254.318Z" fill="#263238"/>
<path d="M255.734 23.0543V23.3743H255.018V24.7183H254.673V21.6079H255.906V21.9279H255.018V23.0591L255.734 23.0543Z" fill="#263238"/>
<path d="M256.528 21.6079V24.7135H256.181V21.6079H256.528Z" fill="#263238"/>
<path d="M258.252 22.3599V22.6399H257.92V22.3423C257.92 22.0623 257.809 21.8943 257.556 21.8943C257.304 21.8943 257.192 22.0543 257.192 22.3423V23.9839C257.192 24.2623 257.307 24.4319 257.556 24.4319C257.806 24.4319 257.92 24.2623 257.92 23.9839V23.5791H258.248V23.9599C258.248 24.4303 258.027 24.7407 257.547 24.7407C257.067 24.7407 256.851 24.4303 256.851 23.9599V22.3599C256.851 21.8895 257.072 21.5791 257.547 21.5791C258.022 21.5791 258.252 21.8879 258.252 22.3599Z" fill="#263238"/>
<path d="M258.918 24.0879L258.798 24.7135H258.478L259.071 21.6079H259.572L260.167 24.7135H259.823L259.703 24.0879H258.918ZM258.962 23.7903H259.654L259.303 21.9983L258.962 23.7903Z" fill="#263238"/>
<path d="M260.892 24.7134V21.923H260.32V21.603H261.811V21.923H261.238V24.7134H260.892Z" fill="#263238"/>
<path d="M262.4 21.6079V24.7135H262.054V21.6079H262.4Z" fill="#263238"/>
<path d="M262.72 22.3599C262.72 21.8799 262.955 21.5791 263.428 21.5791C263.902 21.5791 264.144 21.8847 264.144 22.3599V23.9599C264.144 24.4303 263.908 24.7407 263.428 24.7407C262.948 24.7407 262.72 24.4399 262.72 23.9599V22.3599ZM263.06 23.9839C263.06 24.2671 263.18 24.4319 263.428 24.4319C263.676 24.4319 263.796 24.2719 263.796 23.9839V22.3407C263.796 22.0607 263.681 21.8927 263.428 21.8927C263.176 21.8927 263.06 22.0527 263.06 22.3407V23.9839Z" fill="#263238"/>
<path d="M264.782 24.7135H264.48V21.6079H264.918L265.636 23.8479V21.6079H265.944V24.7135H265.584L264.784 22.2031L264.782 24.7135Z" fill="#263238"/>
<path d="M245 26.4448H268.819" stroke="#263238" stroke-width="0.5" stroke-miterlimit="10"/>
<path d="M277.136 29.4832H278.784" stroke="#263238" stroke-width="0.5" stroke-miterlimit="10"/>
<path d="M263.035 29.4829H276.266" stroke="#263238" stroke-width="0.5" stroke-miterlimit="10"/>
<path d="M255.376 29.4829H262.28" stroke="#263238" stroke-width="0.5" stroke-miterlimit="10"/>
<path d="M245.104 29.4832H254.678" stroke="#263238" stroke-width="0.5" stroke-miterlimit="10"/>
<path d="M238.894 29.4829H244.116" stroke="#263238" stroke-width="0.5" stroke-miterlimit="10"/>
<path d="M235.035 29.4829H238.141" stroke="#263238" stroke-width="0.5" stroke-miterlimit="10"/>
<path d="M254.852 30.9407H278.784" stroke="#263238" stroke-width="0.5" stroke-miterlimit="10"/>
<path d="M236.283 30.9409H254.099" stroke="#263238" stroke-width="0.5" stroke-miterlimit="10"/>
<path d="M235.035 30.9409H235.587" stroke="#263238" stroke-width="0.5" stroke-miterlimit="10"/>
<path d="M276.961 32.3982H278.784" stroke="#263238" stroke-width="0.5" stroke-miterlimit="10"/>
<path d="M267.154 32.3984H276.09" stroke="#263238" stroke-width="0.5" stroke-miterlimit="10"/>
<path d="M253.633 32.3984H266.458" stroke="#263238" stroke-width="0.5" stroke-miterlimit="10"/>
<path d="M251.66 32.3982H252.88" stroke="#263238" stroke-width="0.5" stroke-miterlimit="10"/>
<path d="M235.035 32.3984H250.616" stroke="#263238" stroke-width="0.5" stroke-miterlimit="10"/>
<path d="M271.507 33.8574H278.784" stroke="#263238" stroke-width="0.5" stroke-miterlimit="10"/>
<path d="M245.51 33.8574H270.811" stroke="#263238" stroke-width="0.5" stroke-miterlimit="10"/>
<path d="M243.188 33.8574H244.582" stroke="#263238" stroke-width="0.5" stroke-miterlimit="10"/>
<path d="M235.035 33.8574H242.435" stroke="#263238" stroke-width="0.5" stroke-miterlimit="10"/>
<path d="M274.234 35.3149H278.783" stroke="#263238" stroke-width="0.5" stroke-miterlimit="10"/>
<path d="M254.795 35.3152H273.307" stroke="#263238" stroke-width="0.5" stroke-miterlimit="10"/>
<path d="M247.366 35.3149H253.925" stroke="#263238" stroke-width="0.5" stroke-miterlimit="10"/>
<path d="M236.979 35.3152H246.496" stroke="#263238" stroke-width="0.5" stroke-miterlimit="10"/>
<path d="M235.035 35.3149H236.4" stroke="#263238" stroke-width="0.5" stroke-miterlimit="10"/>
<path d="M236.803 41.7376L238.304 45.6368L239.03 43.8736L240.795 44.592L239.07 40.9312L236.803 41.7376Z" fill="#263238" stroke="#263238" stroke-width="0.5" stroke-linecap="round" stroke-linejoin="round"/>
<path d="M236.267 40.8896L234.451 44.6512L236.234 43.9776L236.917 45.7552L238.408 41.9936L236.267 40.8896Z" fill="#263238" stroke="#263238" stroke-width="0.5" stroke-linecap="round" stroke-linejoin="round"/>
<path d="M240.79 39.9424C240.79 39.8 241.099 39.6368 241.08 39.4992C241.06 39.3616 240.718 39.2896 240.678 39.1568C240.638 39.024 240.888 38.7776 240.83 38.6512C240.772 38.5248 240.424 38.5536 240.35 38.4352C240.276 38.3168 240.444 38.0128 240.35 37.9072C240.256 37.8016 239.932 37.928 239.827 37.8352C239.721 37.7424 239.801 37.4048 239.683 37.328C239.564 37.2512 239.289 37.4656 239.16 37.4064C239.03 37.3472 239.014 37 238.878 36.96C238.742 36.92 238.54 37.2032 238.398 37.184C238.256 37.1648 238.144 36.8352 238.001 36.8352C237.859 36.8352 237.742 37.1648 237.604 37.184C237.467 37.2032 237.259 36.9216 237.124 36.96C236.99 36.9984 236.964 37.3488 236.841 37.4064C236.718 37.464 236.438 37.2464 236.32 37.328C236.201 37.4096 236.281 37.744 236.176 37.8368C236.07 37.9296 235.744 37.8016 235.652 37.9072C235.561 38.0128 235.731 38.3168 235.652 38.4352C235.574 38.5536 235.228 38.5232 235.172 38.6512C235.116 38.7792 235.364 39.0208 235.324 39.1568C235.284 39.2928 234.944 39.36 234.923 39.4992C234.902 39.6384 235.212 39.8 235.212 39.9424C235.212 40.0848 234.904 40.2464 234.923 40.384C234.942 40.5216 235.284 40.5936 235.324 40.728C235.364 40.8624 235.113 41.1056 235.172 41.232C235.232 41.3584 235.579 41.3312 235.652 41.448C235.726 41.5648 235.556 41.8704 235.652 41.976C235.748 42.0816 236.068 41.9552 236.176 42.048C236.283 42.1408 236.201 42.4784 236.32 42.5552C236.438 42.632 236.713 42.4176 236.841 42.4768C236.969 42.536 236.988 42.8832 237.124 42.9232C237.26 42.9632 237.462 42.68 237.604 42.7008C237.747 42.7216 237.859 43.048 238.001 43.048C238.144 43.048 238.26 42.72 238.398 42.7008C238.536 42.6816 238.744 42.9616 238.878 42.9232C239.012 42.8848 239.038 42.5344 239.161 42.4768C239.284 42.4192 239.564 42.6368 239.683 42.5552C239.801 42.4736 239.721 42.1392 239.827 42.048C239.932 41.9568 240.259 42.0816 240.35 41.976C240.441 41.8704 240.272 41.5664 240.35 41.448C240.428 41.3296 240.774 41.36 240.83 41.232C240.886 41.104 240.638 40.8624 240.678 40.7264C240.718 40.5904 241.059 40.5248 241.08 40.384C241.1 40.2432 240.79 40.0848 240.79 39.9424Z" fill="#3498DB" stroke="#263238" stroke-width="0.5" stroke-miterlimit="10"/>
<path d="M238.005 41.8719C239.07 41.8719 239.934 41.008 239.934 39.9423C239.934 38.8766 239.07 38.0127 238.005 38.0127C236.939 38.0127 236.075 38.8766 236.075 39.9423C236.075 41.008 236.939 41.8719 238.005 41.8719Z" fill="#263238" stroke="#263238" stroke-width="0.5" stroke-linecap="round" stroke-linejoin="round"/>
<path d="M238.004 38.6157L238.302 39.5325H239.265L238.486 40.0973L238.783 41.0141L238.004 40.4477L237.225 41.0141L237.522 40.0973L236.743 39.5325H237.706L238.004 38.6157Z" fill="#3498DB"/>
<path d="M243.06 39.0176H250.42" stroke="#263238" stroke-width="0.5" stroke-miterlimit="10"/>
<path d="M243.06 40.7759H250.42" stroke="#263238" stroke-width="0.5" stroke-miterlimit="10"/>
<path d="M274.67 43.1917C276.181 43.1917 277.406 41.9668 277.406 40.4557C277.406 38.9447 276.181 37.7197 274.67 37.7197C273.159 37.7197 271.934 38.9447 271.934 40.4557C271.934 41.9668 273.159 43.1917 274.67 43.1917Z" stroke="#3498DB" stroke-width="0.5" stroke-miterlimit="10"/>
<path d="M275.066 42.2728C276.067 42.0536 276.701 41.0641 276.482 40.0628C276.263 39.0615 275.273 38.4275 274.272 38.6467C273.271 38.866 272.637 39.8554 272.856 40.8568C273.075 41.8581 274.065 42.4921 275.066 42.2728Z" fill="#3498DB"/>
<path d="M283.68 71.24C283.68 71.24 283.12 70.28 282.84 69.76C282.645 69.3836 282.471 68.9963 282.32 68.6C282.32 68.6 283 69 283.2 69.16C283.4 69.32 284.24 70.32 284.24 70.32L284.48 70.04L284.2 69.12L285.12 70.16L285.56 68.28L286.24 70.08L287.52 68.48L287.6 70.08L289.16 68.84L288.6 70.8L288 71.64H283.72L283.68 71.24Z" fill="#3498DB" stroke="#263238" stroke-width="0.5" stroke-miterlimit="10"/>
<path d="M283.44 71.24C283.44 71.24 283.08 71.08 282.48 70.36C282.097 69.8934 281.75 69.3987 281.44 68.88C281.44 68.88 282.8 69.64 283.28 70C283.69 70.35 284.065 70.7384 284.4 71.16C284.4 71.16 284 70.16 283.96 69.68C283.92 69.2 283.88 68.16 283.88 68.16C283.88 68.16 285.04 69.32 285.12 69.64C285.2 69.96 285.64 71.04 285.64 71.04C285.773 70.5527 285.88 70.0586 285.96 69.56C286.04 68.96 286.68 68 286.68 68C286.68 68 286.76 68.68 286.8 69.36C286.84 70.04 286.44 71.32 286.44 71.32C286.44 71.32 286.96 70.08 287.48 69.48C287.889 69.0341 288.33 68.6196 288.8 68.24C288.8 68.24 288.4 69.48 288.24 70.04C288.091 70.4759 287.89 70.8923 287.64 71.28C288.016 70.8055 288.416 70.3515 288.84 69.92C289.231 69.6076 289.646 69.3267 290.08 69.08C290.08 69.08 289.64 69.92 289.32 70.4C289.022 70.8167 288.701 71.2172 288.36 71.6H283.44V71.24Z" fill="#3498DB" stroke="#263238" stroke-width="0.5" stroke-miterlimit="10"/>
<path d="M289.072 71.1599L288.796 73.5999L288.32 77.7727H283.308L282.832 73.5999L282.556 71.1599H289.072Z" fill="white" stroke="#263238" stroke-width="0.5" stroke-miterlimit="10"/>
<path d="M288.795 73.6001L288.32 77.7729H283.307L282.832 73.6001H288.795Z" fill="#3498DB" stroke="#263238" stroke-width="0.5" stroke-miterlimit="10"/>
<path d="M283.76 74.76C283.893 74.76 284 74.6526 284 74.52C284 74.3875 283.893 74.28 283.76 74.28C283.628 74.28 283.52 74.3875 283.52 74.52C283.52 74.6526 283.628 74.76 283.76 74.76Z" fill="#263238"/>
<path d="M285.52 74.76C285.653 74.76 285.76 74.6526 285.76 74.52C285.76 74.3875 285.653 74.28 285.52 74.28C285.388 74.28 285.28 74.3875 285.28 74.52C285.28 74.6526 285.388 74.76 285.52 74.76Z" fill="#263238"/>
<path d="M284.44 76C284.573 76 284.68 75.8926 284.68 75.76C284.68 75.6275 284.573 75.52 284.44 75.52C284.308 75.52 284.2 75.6275 284.2 75.76C284.2 75.8926 284.308 76 284.44 76Z" fill="#263238"/>
<path d="M286.56 76C286.693 76 286.8 75.8926 286.8 75.76C286.8 75.6275 286.693 75.52 286.56 75.52C286.428 75.52 286.32 75.6275 286.32 75.76C286.32 75.8926 286.428 76 286.56 76Z" fill="#263238"/>
<path d="M287.961 76C288.093 76 288.201 75.8926 288.201 75.76C288.201 75.6275 288.093 75.52 287.961 75.52C287.828 75.52 287.721 75.6275 287.721 75.76C287.721 75.8926 287.828 76 287.961 76Z" fill="#263238"/>
<path d="M287.28 74.7598C287.413 74.7598 287.52 74.6523 287.52 74.5198C287.52 74.3872 287.413 74.2798 287.28 74.2798C287.147 74.2798 287.04 74.3872 287.04 74.5198C287.04 74.6523 287.147 74.7598 287.28 74.7598Z" fill="#263238"/>
<path d="M283.76 77C283.893 77 284 76.8926 284 76.76C284 76.6275 283.893 76.52 283.76 76.52C283.628 76.52 283.52 76.6275 283.52 76.76C283.52 76.8926 283.628 77 283.76 77Z" fill="#263238"/>
<path d="M285.52 77C285.653 77 285.76 76.8926 285.76 76.76C285.76 76.6275 285.653 76.52 285.52 76.52C285.388 76.52 285.28 76.6275 285.28 76.76C285.28 76.8926 285.388 77 285.52 77Z" fill="#263238"/>
<path d="M287.28 77C287.413 77 287.52 76.8926 287.52 76.76C287.52 76.6275 287.413 76.52 287.28 76.52C287.147 76.52 287.04 76.6275 287.04 76.76C287.04 76.8926 287.147 77 287.28 77Z" fill="#263238"/>
<path d="M259.389 50.738C259.392 49.5186 258.748 48.5285 257.95 48.5265C257.152 48.5246 256.502 49.5115 256.499 50.731C256.496 51.9504 257.141 52.9405 257.939 52.9425C258.737 52.9444 259.386 51.9575 259.389 50.738Z" fill="white" stroke="#263238" stroke-width="0.5" stroke-linecap="round" stroke-linejoin="round"/>
<path d="M259.759 45.2063C259.759 45.2063 258.979 45.6527 258.237 45.1695C257.495 44.6863 258.015 44.4655 258.163 44.1679C258.312 43.8703 257.941 43.7967 257.866 43.3887C257.791 42.9807 258.051 42.6463 258.2 42.6095C258.349 42.5727 258.312 42.1631 258.312 41.7551C258.312 41.3471 258.792 40.9759 259.016 40.9759C259.24 40.9759 259.387 40.6799 259.536 40.3087C259.685 39.9375 259.983 39.6031 260.496 39.8287C261.01 40.0543 261.275 40.0511 261.536 39.6799C261.797 39.3087 262.426 39.2351 262.656 39.4207C262.887 39.6063 262.989 39.9775 263.435 39.6063C263.882 39.2351 264.437 39.3103 264.696 39.5695C264.955 39.8287 264.919 40.1263 265.336 39.9775C265.754 39.8287 266.411 40.0511 266.56 40.4975C266.709 40.9439 267.52 41.4255 267.823 41.3135C268.125 41.2015 268.639 41.3135 268.378 41.8703C268.117 42.4271 268.416 42.7983 268.639 42.7983C268.861 42.7983 269.344 42.9471 269.083 43.4287C268.823 43.9103 268.639 44.2831 268.935 44.4303C269.231 44.5775 269.714 44.6159 269.344 45.2479C268.975 45.8799 268.675 45.8415 268.787 46.2079C268.899 46.5743 269.12 46.6879 268.787 46.9503C268.455 47.2127 268.045 47.3215 268.045 47.5439C268.045 47.7663 268.49 47.8767 267.97 48.0623C267.67 48.1718 267.359 48.2469 267.042 48.2863C267.042 48.2863 266.301 46.2815 264.184 45.6143C262.067 44.9471 260.845 45.0191 260.362 45.2799C259.879 45.5407 259.759 45.2063 259.759 45.2063Z" fill="#263238" stroke="#263238" stroke-width="0.5" stroke-linecap="round" stroke-linejoin="round"/>
<path d="M260.505 58.8125L257.785 60.0669C257.785 60.0669 256.379 67.8525 256.48 70.0125C256.58 72.1725 257.785 77.5469 257.785 77.5469H264.32C264.32 77.5469 263.315 70.9661 263.817 68.6061C264.32 66.2461 265.526 59.7661 265.526 59.7661C265.526 59.7661 263.516 59.2141 262.913 59.1133C262.31 59.0125 260.505 58.8125 260.505 58.8125Z" fill="white" stroke="#263238" stroke-width="0.5" stroke-miterlimit="10"/>
<path d="M257.386 62.4496L264.906 63.0992C264.845 63.4192 264.784 63.7392 264.722 64.0592L257.234 63.4192C257.28 63.08 257.336 62.7552 257.386 62.4496ZM263.821 68.6C263.879 68.328 263.946 68.0016 264.02 67.64L256.714 67.0096C256.672 67.3456 256.636 67.6704 256.602 67.9792L263.821 68.6048V68.6ZM264.461 65.3648L257.023 64.7248C256.975 65.0448 256.927 65.3648 256.882 65.6944L264.272 66.3344C264.341 66.024 264.404 65.7008 264.468 65.3712L264.461 65.3648ZM256.485 69.4032C256.476 69.6336 256.474 69.8368 256.485 70.0064C256.485 70.1232 256.5 70.2496 256.511 70.3824L263.68 70.84C263.68 70.4976 263.68 70.168 263.68 69.8608L256.485 69.4032ZM257.832 60.04L257.788 60.0608C257.788 60.0608 257.724 60.4192 257.628 61.0032L265.173 61.656C265.24 61.2928 265.303 60.9664 265.354 60.696L257.832 60.04ZM263.912 74.3472L257.12 74.2752C257.184 74.6144 257.25 74.9424 257.312 75.2544L264.032 75.3312C264 75.024 263.959 74.6944 263.924 74.36L263.912 74.3472ZM256.829 72.7344L263.8 73.144C263.773 72.8166 263.749 72.4886 263.728 72.16L256.671 71.7456C256.728 72.0704 256.783 72.4032 256.84 72.7408L256.829 72.7344Z" fill="#263238"/>
<path d="M260.104 57.4C260.104 57.4 259.552 59.5088 259.502 60.6144C259.453 61.72 260.606 62.6225 262.264 62.4721C263.922 62.3217 264.222 60.5136 264.222 60.0608C264.222 59.608 264.32 55.8 264.32 55.8C263.764 56.2755 263.176 56.7118 262.56 57.1056C261.611 57.7072 260.104 57.4 260.104 57.4Z" fill="#B5B5B5" stroke="#263238" stroke-width="0.5" stroke-miterlimit="10"/>
<path d="M261.611 59.2143C263.18 58.4623 263.963 56.9855 264.316 56.0479C264.316 55.8879 264.316 55.7983 264.316 55.7983C263.761 56.2738 263.173 56.7101 262.556 57.1039C261.596 57.7071 260.096 57.4063 260.096 57.4063C260.096 57.4063 259.752 58.7247 259.582 59.8223C260.287 59.7338 260.973 59.5283 261.611 59.2143Z" fill="#263238" stroke="#263238" stroke-width="0.5" stroke-miterlimit="10"/>
<path d="M266.99 49.3424C266.99 49.3424 266.926 47.1152 266.099 45.8416C265.272 44.568 263.528 43.7888 261.581 44.12C259.165 44.536 258.08 46.3472 257.698 47.8752C257.315 49.4032 257.762 51.6304 257.762 53.1552C257.762 54.68 259.544 57.4192 260.053 57.8656C260.562 58.312 261.347 58.4592 262.245 58.0048C263.069 57.5856 264.424 56.16 265.251 55.3328C266.078 54.5056 266.571 52.0448 266.699 51.472C266.827 50.8992 266.99 49.3424 266.99 49.3424Z" fill="#B5B5B5" stroke="#263238" stroke-width="0.5" stroke-linecap="round" stroke-linejoin="round"/>
<path d="M260.241 53.6689C260.241 53.6689 260.166 54.1489 261.28 54.0769" stroke="#263238" stroke-width="0.5" stroke-linecap="round" stroke-linejoin="round"/>
<path d="M259.907 54.9294C259.907 54.9294 261.206 55.8206 262.506 54.9678" stroke="#263238" stroke-width="0.5" stroke-linecap="round" stroke-linejoin="round"/>
<path d="M262.506 51.9598C262.506 51.9598 262.838 51.403 263.805 51.8846" stroke="#263238" stroke-width="0.5" stroke-linecap="round" stroke-linejoin="round"/>
<path d="M259.907 51.6272C259.907 51.8944 259.782 52.1072 259.629 52.1072C259.475 52.1072 259.35 51.8912 259.35 51.6272C259.35 51.3632 259.475 51.1472 259.629 51.1472C259.782 51.1472 259.907 51.3616 259.907 51.6272Z" fill="#263238"/>
<path d="M258.72 50.1055C258.72 50.1055 259.054 49.3631 260.16 49.7343" stroke="#263238" stroke-width="0.5" stroke-linecap="round" stroke-linejoin="round"/>
<path d="M262.022 50.0399C262.022 50.0399 263.062 49.4831 264.213 50.3359" stroke="#263238" stroke-width="0.5" stroke-linecap="round" stroke-linejoin="round"/>
<path d="M261.581 44.1198C259.165 44.5358 258.08 46.347 257.697 47.875C257.617 48.2142 257.57 48.5603 257.557 48.9086C257.681 48.5198 258.329 46.8142 260.166 46.3486C262.246 45.8302 264.064 46.4974 264.694 47.3886C265.325 48.2798 265.174 49.4302 265.4 49.987C265.541 50.339 266.248 50.8702 266.749 51.2126C266.864 50.5294 266.99 49.3342 266.99 49.3342C266.99 49.3342 266.926 47.107 266.099 45.8334C265.272 44.5598 263.528 43.7886 261.581 44.1198Z" fill="#263238" stroke="#263238" stroke-width="0.5" stroke-linecap="round" stroke-linejoin="round"/>
<path d="M266.365 49.7344C266.365 49.7344 266.55 47.768 265.994 46.4688C265.437 45.1696 264.77 44.6128 264.77 44.6128C264.77 44.6128 266.328 45.4304 266.885 46.2128C267.442 46.9952 267.515 48.8848 267.365 50.184L266.214 49.9984L266.365 49.7344Z" fill="#3498DB" stroke="#263238" stroke-width="0.5" stroke-miterlimit="10"/>
<path d="M267.861 51.6639C267.637 52.8623 266.819 53.7151 266.034 53.5695C265.248 53.4239 264.795 52.3311 265.019 51.1327C265.243 49.9343 266.061 49.0815 266.845 49.2271C267.629 49.3727 268.085 50.4655 267.861 51.6639Z" fill="white" stroke="#263238" stroke-width="0.5" stroke-linecap="round" stroke-linejoin="round"/>
<path d="M267.719 51.8178C267.889 50.9083 267.544 50.0809 266.949 49.9698C266.354 49.8587 265.734 50.5058 265.564 51.4153C265.394 52.3247 265.739 53.1521 266.334 53.2632C266.929 53.3744 267.549 52.7272 267.719 51.8178Z" fill="#3498DB" stroke="#263238" stroke-width="0.5" stroke-miterlimit="10"/>
<path d="M258.648 72.6513C259.023 75.3073 259.483 77.6897 259.483 77.6897H256.739C256.739 77.6897 256.037 74.0721 255.183 72.0641C254.703 70.9217 254.586 70.4641 254.578 70.2769C254.205 71.1649 251.882 76.6513 251.466 76.8369C251.013 77.0369 249.356 76.6769 248.746 76.4849C248.136 76.2929 248.095 75.4305 248.196 75.0785C248.296 74.7265 252.516 64.5297 252.915 63.8785C253.29 63.215 253.578 62.5056 253.77 61.7681C253.819 61.4673 253.719 60.7633 254.172 60.5137C254.445 60.3617 256.368 59.9169 257.852 59.5873C258.821 59.3713 259.6 59.2065 259.6 59.2065C259.6 59.2065 258.4 63.6753 258.196 66.8401C258.108 68.2433 258.355 70.5345 258.648 72.6497C258.65 72.6497 258.65 72.6497 258.648 72.6513Z" fill="#3498DB" stroke="#263238" stroke-width="0.5" stroke-miterlimit="10"/>
<path d="M258.648 72.6495C258.302 72.0815 256.901 69.6431 256.714 67.1039C256.546 64.8255 257.454 61.0863 257.854 59.5839C258.824 59.3679 259.603 59.2031 259.603 59.2031C259.603 59.2031 258.4 63.6751 258.195 66.8399C258.107 68.2431 258.349 70.5343 258.648 72.6495Z" fill="#3498DB" stroke="#263238" stroke-width="0.5" stroke-miterlimit="10"/>
<path d="M254.965 65.0127C255.09 64.4703 255.182 64.1775 255.182 64.1775" stroke="#263238" stroke-width="0.5" stroke-miterlimit="10"/>
<path d="M254.63 70.155C254.63 70.155 254.328 69.0991 254.579 67.1919C254.646 66.6879 254.718 66.2398 254.79 65.8542" stroke="#263238" stroke-width="0.5" stroke-miterlimit="10"/>
<path d="M276.73 70.5949C275.575 70.5437 269.799 66.9453 269.799 66.9453C269.799 66.9453 267.989 70.4909 267.94 71.2109C267.89 71.9309 269.346 77.6893 269.346 77.6893H263.168C263.168 77.6893 262.981 75.6685 262.943 73.4525C262.925 72.4301 262.943 71.3725 263.018 70.4397C263.269 67.5101 264.272 59.2397 264.272 59.2397L265.279 59.3421C265.279 59.3421 265.564 59.4381 266.01 59.5933C267.199 60.0061 269.53 60.8509 270.552 61.4493C271.957 62.2717 273.912 63.6093 274.872 64.2269C275.832 64.8445 278.087 66.2317 278.538 68.0829C278.989 69.9341 277.885 70.6461 276.73 70.5949Z" fill="#3498DB" stroke="#263238" stroke-width="0.5" stroke-miterlimit="10"/>
<path d="M266.01 59.5869C265.874 61.6445 265.474 66.5453 264.612 68.9165C263.786 71.1837 263.192 72.7821 262.943 73.4525C262.925 72.4301 262.943 71.3725 263.018 70.4397C263.269 67.5101 264.272 59.2397 264.272 59.2397L265.279 59.3421C265.279 59.3421 265.564 59.4317 266.01 59.5869Z" stroke="#263238" stroke-width="0.5" stroke-miterlimit="10"/>
<path d="M269.798 66.944L267.488 66.2256" stroke="#263238" stroke-width="0.5" stroke-miterlimit="10"/>
<path d="M266.512 64.6689C266.579 65.4289 266.788 66.2689 267.337 66.7393" stroke="#263238" stroke-width="0.5" stroke-miterlimit="10"/>
<path d="M266.533 63.0896C266.5 63.3775 266.484 63.667 266.483 63.9568" stroke="#263238" stroke-width="0.5" stroke-miterlimit="10"/>
<path d="M266.24 65.7615C266.24 65.7615 266.792 66.7903 267.445 67.1503" stroke="#263238" stroke-width="0.5" stroke-miterlimit="10"/>
<path d="M269.701 58.3984C269.608 58.0214 269.56 57.6347 269.557 57.2464C269.557 56.6272 269.701 56.2784 269.476 56.2992C269.25 56.32 268.856 56.608 268.733 57.0992C268.61 57.5904 268.877 58.0464 268.919 58.2112C268.944 58.3123 268.958 58.4159 268.96 58.52C268.96 58.52 267.168 58.5808 266.839 58.5808C266.509 58.5808 266.18 58.7664 266.18 59.0752C266.18 59.384 266.53 59.5552 266.53 59.5552L266.69 59.6384C266.69 59.6384 266.484 60.0288 266.628 60.2352C266.707 60.3528 266.805 60.4571 266.917 60.544C266.874 60.6065 266.847 60.679 266.84 60.7546C266.833 60.8302 266.845 60.9065 266.876 60.976C266.929 61.1162 267.022 61.238 267.143 61.3264C267.143 61.3264 266.876 61.5744 267.226 61.904C267.576 62.2336 268.338 62.2544 268.872 62.2544C269.407 62.2544 269.861 62.2736 269.861 62.2736L270.088 62.2944L271.983 65.1168L273.775 63.1184C273.775 63.1184 271.138 60.5584 270.788 60.112C270.437 59.6656 269.701 58.3984 269.701 58.3984Z" fill="#B5B5B5" stroke="#263238" stroke-width="0.5" stroke-miterlimit="10"/>
<path d="M273.716 62.8799L271.255 65.1903C271.255 65.1903 273.516 68.2047 274.72 69.7199C275.925 71.2351 278.136 71.4799 279.09 70.7231C280.044 69.9663 280.146 68.2623 279.292 67.2031C278.437 66.1439 273.716 62.8799 273.716 62.8799Z" fill="#3498DB" stroke="#263238" stroke-width="0.5" stroke-miterlimit="10"/>
<path d="M257.248 75.0158C257.248 75.0158 260.861 75.6398 261.198 75.6398C261.536 75.6398 265.101 74.7246 265.341 74.9166C265.581 75.1086 267.171 76.459 267.557 76.8446C267.786 77.0721 267.981 77.332 268.134 77.6158H264.811L263.8 77.3742C263.8 77.3742 262.942 77.771 262.461 77.771C261.979 77.771 260.366 77.6782 260.366 77.6782L257.528 77.6318C257.528 77.6318 256.573 76.027 257.248 75.0158Z" fill="#B5B5B5" stroke="#263238" stroke-width="0.5" stroke-miterlimit="10"/>
<path d="M265.822 77.6175C265.822 77.6175 265.003 76.7023 264.667 76.4607C264.464 76.3135 264.239 76.1986 264 76.1199" stroke="#263238" stroke-width="0.5" stroke-miterlimit="10"/>
<path d="M266.931 77.6656C266.931 77.6656 265.341 75.9312 265.149 75.7856C264.936 75.6624 264.71 75.5656 264.474 75.4976" stroke="#263238" stroke-width="0.5" stroke-miterlimit="10"/>
<path d="M249.347 73.3775C249.347 73.3775 247.907 74.5343 247.661 75.2975C247.414 76.0607 247.757 76.9839 248.528 77.2735C249.299 77.5631 257.901 77.7199 257.901 77.7199C257.76 77.7855 257.13 77.1951 257.488 76.4063C257.731 75.8719 258.403 75.1055 258.403 75.1055L251.226 73.2751" fill="#3498DB"/>
<path d="M249.347 73.3775C249.347 73.3775 247.907 74.5343 247.661 75.2975C247.414 76.0607 247.757 76.9839 248.528 77.2735C249.299 77.5631 257.901 77.7199 257.901 77.7199C257.76 77.7855 257.13 77.1951 257.488 76.4063C257.731 75.8719 258.403 75.1055 258.403 75.1055L251.226 73.2751" stroke="#263238" stroke-width="0.5" stroke-miterlimit="10"/>
<path d="M261.481 77.3936H231.961V77.7728H261.481V77.3936Z" fill="#263238" stroke="#263238" stroke-miterlimit="10"/>
<path d="M250.773 77.7729H232.362L230.659 64.9697H249.07L250.773 77.7729Z" fill="white" stroke="#263238" stroke-miterlimit="10"/>
<path d="M250.398 77.7729H231.989L230.286 64.9697H248.696L250.398 77.7729Z" fill="white" stroke="#263238" stroke-miterlimit="10"/>
<path d="M233.411 77.7729H250.342L249.062 68.1089C246.797 69.5489 244.037 71.4129 241.029 73.7089C238.736 75.4821 236.16 76.856 233.411 77.7729Z" fill="#263238" stroke="#263238" stroke-miterlimit="10"/>
<path d="M239.757 72.3681C240.425 72.3681 240.966 71.8681 240.966 71.2513C240.966 70.6345 240.425 70.1345 239.757 70.1345C239.088 70.1345 238.547 70.6345 238.547 71.2513C238.547 71.8681 239.088 72.3681 239.757 72.3681Z" fill="white" stroke="#263238" stroke-miterlimit="10"/>
<path d="M217.787 77.7727H291.68" stroke="#263238" stroke-miterlimit="10"/>
</svg>
