<svg width="340" height="146" viewBox="0 0 340 146" fill="none" xmlns="http://www.w3.org/2000/svg">
<g filter="url(#filter0_d_1099_19371)">
<rect x="6" y="2" width="328" height="134" rx="8" fill="white"/>
<path d="M26.832 32.88C28.016 32.88 29.0507 33.1093 29.936 33.568C30.832 34.016 31.52 34.6667 32 35.52C32.4907 36.3627 32.736 37.3493 32.736 38.48C32.736 39.6107 32.4907 40.592 32 41.424C31.52 42.256 30.832 42.896 29.936 43.344C29.0507 43.7813 28.016 44 26.832 44H23.2V32.88H26.832ZM26.832 42.512C28.1333 42.512 29.1307 42.16 29.824 41.456C30.5173 40.752 30.864 39.76 30.864 38.48C30.864 37.1893 30.5173 36.1813 29.824 35.456C29.1307 34.7307 28.1333 34.368 26.832 34.368H25.024V42.512H26.832ZM33.9358 39.552C33.9358 38.6667 34.1171 37.8827 34.4798 37.2C34.8531 36.5173 35.3544 35.9893 35.9838 35.616C36.6238 35.232 37.3278 35.04 38.0958 35.04C38.7891 35.04 39.3918 35.1787 39.9038 35.456C40.4264 35.7227 40.8424 36.0587 41.1518 36.464V35.184H42.9918V44H41.1518V42.688C40.8424 43.104 40.4211 43.4507 39.8878 43.728C39.3544 44.0053 38.7464 44.144 38.0638 44.144C37.3064 44.144 36.6131 43.952 35.9838 43.568C35.3544 43.1733 34.8531 42.6293 34.4798 41.936C34.1171 41.232 33.9358 40.4373 33.9358 39.552ZM41.1518 39.584C41.1518 38.976 41.0238 38.448 40.7678 38C40.5224 37.552 40.1971 37.2107 39.7918 36.976C39.3864 36.7413 38.9491 36.624 38.4798 36.624C38.0104 36.624 37.5731 36.7413 37.1678 36.976C36.7624 37.2 36.4318 37.536 36.1758 37.984C35.9304 38.4213 35.8078 38.944 35.8078 39.552C35.8078 40.16 35.9304 40.6933 36.1758 41.152C36.4318 41.6107 36.7624 41.9627 37.1678 42.208C37.5838 42.4427 38.0211 42.56 38.4798 42.56C38.9491 42.56 39.3864 42.4427 39.7918 42.208C40.1971 41.9733 40.5224 41.632 40.7678 41.184C41.0238 40.7253 41.1518 40.192 41.1518 39.584ZM47.2115 36.48C47.5208 36.0747 47.9422 35.7333 48.4755 35.456C49.0088 35.1787 49.6115 35.04 50.2835 35.04C51.0515 35.04 51.7502 35.232 52.3795 35.616C53.0195 35.9893 53.5208 36.5173 53.8835 37.2C54.2462 37.8827 54.4275 38.6667 54.4275 39.552C54.4275 40.4373 54.2462 41.232 53.8835 41.936C53.5208 42.6293 53.0195 43.1733 52.3795 43.568C51.7502 43.952 51.0515 44.144 50.2835 44.144C49.6115 44.144 49.0142 44.0107 48.4915 43.744C47.9688 43.4667 47.5422 43.1253 47.2115 42.72V48.192H45.3875V35.184H47.2115V36.48ZM52.5715 39.552C52.5715 38.944 52.4435 38.4213 52.1875 37.984C51.9422 37.536 51.6115 37.2 51.1955 36.976C50.7902 36.7413 50.3528 36.624 49.8835 36.624C49.4248 36.624 48.9875 36.7413 48.5715 36.976C48.1662 37.2107 47.8355 37.552 47.5795 38C47.3342 38.448 47.2115 38.976 47.2115 39.584C47.2115 40.192 47.3342 40.7253 47.5795 41.184C47.8355 41.632 48.1662 41.9733 48.5715 42.208C48.9875 42.4427 49.4248 42.56 49.8835 42.56C50.3528 42.56 50.7902 42.4427 51.1955 42.208C51.6115 41.9627 51.9422 41.6107 52.1875 41.152C52.4435 40.6933 52.5715 40.16 52.5715 39.552ZM55.6233 39.552C55.6233 38.6667 55.8046 37.8827 56.1673 37.2C56.5406 36.5173 57.0419 35.9893 57.6713 35.616C58.3113 35.232 59.0153 35.04 59.7833 35.04C60.4766 35.04 61.0793 35.1787 61.5913 35.456C62.1139 35.7227 62.5299 36.0587 62.8393 36.464V35.184H64.6793V44H62.8393V42.688C62.5299 43.104 62.1086 43.4507 61.5753 43.728C61.0419 44.0053 60.4339 44.144 59.7513 44.144C58.9939 44.144 58.3006 43.952 57.6713 43.568C57.0419 43.1733 56.5406 42.6293 56.1673 41.936C55.8046 41.232 55.6233 40.4373 55.6233 39.552ZM62.8393 39.584C62.8393 38.976 62.7113 38.448 62.4553 38C62.2099 37.552 61.8846 37.2107 61.4793 36.976C61.0739 36.7413 60.6366 36.624 60.1673 36.624C59.6979 36.624 59.2606 36.7413 58.8553 36.976C58.4499 37.2 58.1193 37.536 57.8633 37.984C57.6179 38.4213 57.4953 38.944 57.4953 39.552C57.4953 40.16 57.6179 40.6933 57.8633 41.152C58.1193 41.6107 58.4499 41.9627 58.8553 42.208C59.2713 42.4427 59.7086 42.56 60.1673 42.56C60.6366 42.56 61.0739 42.4427 61.4793 42.208C61.8846 41.9733 62.2099 41.632 62.4553 41.184C62.7113 40.7253 62.8393 40.192 62.8393 39.584ZM69.203 36.672V41.552C69.203 41.8827 69.2777 42.1227 69.427 42.272C69.587 42.4107 69.8537 42.48 70.227 42.48H71.347V44H69.907C69.0857 44 68.4563 43.808 68.019 43.424C67.5817 43.04 67.363 42.416 67.363 41.552V36.672H66.323V35.184H67.363V32.992H69.203V35.184H71.347V36.672H69.203ZM76.5161 39.6L80.5801 44H78.1161L74.8521 40.208V44H73.0281V32.16H74.8521V39.04L78.0521 35.184H80.5801L76.5161 39.6ZM81.2795 39.552C81.2795 38.6667 81.4608 37.8827 81.8235 37.2C82.1968 36.5173 82.6982 35.9893 83.3275 35.616C83.9675 35.232 84.6715 35.04 85.4395 35.04C86.1328 35.04 86.7355 35.1787 87.2475 35.456C87.7702 35.7227 88.1862 36.0587 88.4955 36.464V35.184H90.3355V44H88.4955V42.688C88.1862 43.104 87.7648 43.4507 87.2315 43.728C86.6982 44.0053 86.0902 44.144 85.4075 44.144C84.6502 44.144 83.9568 43.952 83.3275 43.568C82.6982 43.1733 82.1968 42.6293 81.8235 41.936C81.4608 41.232 81.2795 40.4373 81.2795 39.552ZM88.4955 39.584C88.4955 38.976 88.3675 38.448 88.1115 38C87.8662 37.552 87.5408 37.2107 87.1355 36.976C86.7302 36.7413 86.2928 36.624 85.8235 36.624C85.3542 36.624 84.9168 36.7413 84.5115 36.976C84.1062 37.2 83.7755 37.536 83.5195 37.984C83.2742 38.4213 83.1515 38.944 83.1515 39.552C83.1515 40.16 83.2742 40.6933 83.5195 41.152C83.7755 41.6107 84.1062 41.9627 84.5115 42.208C84.9275 42.4427 85.3648 42.56 85.8235 42.56C86.2928 42.56 86.7302 42.4427 87.1355 42.208C87.5408 41.9733 87.8662 41.632 88.1115 41.184C88.3675 40.7253 88.4955 40.192 88.4955 39.584ZM97.1793 35.04C97.8726 35.04 98.4913 35.184 99.0353 35.472C99.5899 35.76 100.022 36.1867 100.331 36.752C100.641 37.3173 100.795 38 100.795 38.8V44H98.9873V39.072C98.9873 38.2827 98.7899 37.68 98.3953 37.264C98.0006 36.8373 97.4619 36.624 96.7793 36.624C96.0966 36.624 95.5526 36.8373 95.1473 37.264C94.7526 37.68 94.5553 38.2827 94.5553 39.072V44H92.7313V35.184H94.5553V36.192C94.8539 35.8293 95.2326 35.5467 95.6913 35.344C96.1606 35.1413 96.6566 35.04 97.1793 35.04ZM110.942 44.112C110.195 44.112 109.523 43.984 108.926 43.728C108.329 43.4613 107.859 43.088 107.518 42.608C107.177 42.128 107.006 41.568 107.006 40.928H108.958C109.001 41.408 109.187 41.8027 109.518 42.112C109.859 42.4213 110.334 42.576 110.942 42.576C111.571 42.576 112.062 42.4267 112.414 42.128C112.766 41.8187 112.942 41.424 112.942 40.944C112.942 40.5707 112.83 40.2667 112.606 40.032C112.393 39.7973 112.121 39.616 111.79 39.488C111.47 39.36 111.022 39.2213 110.446 39.072C109.721 38.88 109.129 38.688 108.67 38.496C108.222 38.2933 107.838 37.984 107.518 37.568C107.198 37.152 107.038 36.5973 107.038 35.904C107.038 35.264 107.198 34.704 107.518 34.224C107.838 33.744 108.286 33.376 108.862 33.12C109.438 32.864 110.105 32.736 110.862 32.736C111.939 32.736 112.819 33.008 113.502 33.552C114.195 34.0853 114.579 34.8213 114.654 35.76H112.638C112.606 35.3547 112.414 35.008 112.062 34.72C111.71 34.432 111.246 34.288 110.67 34.288C110.147 34.288 109.721 34.4213 109.39 34.688C109.059 34.9547 108.894 35.3387 108.894 35.84C108.894 36.1813 108.995 36.464 109.198 36.688C109.411 36.9013 109.678 37.072 109.998 37.2C110.318 37.328 110.755 37.4667 111.31 37.616C112.046 37.8187 112.643 38.0213 113.102 38.224C113.571 38.4267 113.966 38.7413 114.286 39.168C114.617 39.584 114.782 40.144 114.782 40.848C114.782 41.4133 114.627 41.9467 114.318 42.448C114.019 42.9493 113.577 43.3547 112.99 43.664C112.414 43.9627 111.731 44.112 110.942 44.112ZM125.014 39.376C125.014 39.7067 124.993 40.0053 124.95 40.272H118.214C118.268 40.976 118.529 41.5413 118.998 41.968C119.468 42.3947 120.044 42.608 120.726 42.608C121.708 42.608 122.401 42.1973 122.806 41.376H124.774C124.508 42.1867 124.022 42.8533 123.318 43.376C122.625 43.888 121.761 44.144 120.726 44.144C119.884 44.144 119.126 43.9573 118.454 43.584C117.793 43.2 117.27 42.6667 116.886 41.984C116.513 41.2907 116.326 40.4907 116.326 39.584C116.326 38.6773 116.508 37.8827 116.87 37.2C117.244 36.5067 117.761 35.9733 118.422 35.6C119.094 35.2267 119.862 35.04 120.726 35.04C121.558 35.04 122.3 35.2213 122.95 35.584C123.601 35.9467 124.108 36.4587 124.47 37.12C124.833 37.7707 125.014 38.5227 125.014 39.376ZM123.11 38.8C123.1 38.128 122.86 37.5893 122.39 37.184C121.921 36.7787 121.34 36.576 120.646 36.576C120.017 36.576 119.478 36.7787 119.03 37.184C118.582 37.5787 118.316 38.1173 118.23 38.8H123.11ZM128.633 36.464C128.9 36.016 129.252 35.6693 129.689 35.424C130.137 35.168 130.665 35.04 131.273 35.04V36.928H130.809C130.095 36.928 129.551 37.1093 129.177 37.472C128.815 37.8347 128.633 38.464 128.633 39.36V44H126.809V35.184H128.633V36.464ZM135.078 36.672V41.552C135.078 41.8827 135.153 42.1227 135.302 42.272C135.462 42.4107 135.729 42.48 136.102 42.48H137.222V44H135.782C134.961 44 134.331 43.808 133.894 43.424C133.457 43.04 133.238 42.416 133.238 41.552V36.672H132.198V35.184H133.238V32.992H135.078V35.184H137.222V36.672H135.078ZM139.831 34.016C139.5 34.016 139.223 33.904 138.999 33.68C138.775 33.456 138.663 33.1787 138.663 32.848C138.663 32.5173 138.775 32.24 138.999 32.016C139.223 31.792 139.5 31.68 139.831 31.68C140.151 31.68 140.423 31.792 140.647 32.016C140.871 32.24 140.983 32.5173 140.983 32.848C140.983 33.1787 140.871 33.456 140.647 33.68C140.423 33.904 140.151 34.016 139.831 34.016ZM140.727 35.184V44H138.903V35.184H140.727ZM146.818 36.672H145.186V44H143.346V36.672H142.306V35.184H143.346V34.56C143.346 33.5467 143.613 32.8107 144.146 32.352C144.69 31.8827 145.538 31.648 146.69 31.648V33.168C146.135 33.168 145.746 33.2747 145.522 33.488C145.298 33.6907 145.186 34.048 145.186 34.56V35.184H146.818V36.672ZM149.362 34.016C149.032 34.016 148.754 33.904 148.53 33.68C148.306 33.456 148.194 33.1787 148.194 32.848C148.194 32.5173 148.306 32.24 148.53 32.016C148.754 31.792 149.032 31.68 149.362 31.68C149.682 31.68 149.954 31.792 150.178 32.016C150.402 32.24 150.514 32.5173 150.514 32.848C150.514 33.1787 150.402 33.456 150.178 33.68C149.954 33.904 149.682 34.016 149.362 34.016ZM150.258 35.184V44H148.434V35.184H150.258ZM156.141 39.6L160.205 44H157.741L154.477 40.208V44H152.653V32.16H154.477V39.04L157.677 35.184H160.205L156.141 39.6ZM160.905 39.552C160.905 38.6667 161.086 37.8827 161.449 37.2C161.822 36.5173 162.323 35.9893 162.953 35.616C163.593 35.232 164.297 35.04 165.065 35.04C165.758 35.04 166.361 35.1787 166.873 35.456C167.395 35.7227 167.811 36.0587 168.121 36.464V35.184H169.961V44H168.121V42.688C167.811 43.104 167.39 43.4507 166.857 43.728C166.323 44.0053 165.715 44.144 165.033 44.144C164.275 44.144 163.582 43.952 162.953 43.568C162.323 43.1733 161.822 42.6293 161.449 41.936C161.086 41.232 160.905 40.4373 160.905 39.552ZM168.121 39.584C168.121 38.976 167.993 38.448 167.737 38C167.491 37.552 167.166 37.2107 166.761 36.976C166.355 36.7413 165.918 36.624 165.449 36.624C164.979 36.624 164.542 36.7413 164.137 36.976C163.731 37.2 163.401 37.536 163.145 37.984C162.899 38.4213 162.777 38.944 162.777 39.552C162.777 40.16 162.899 40.6933 163.145 41.152C163.401 41.6107 163.731 41.9627 164.137 42.208C164.553 42.4427 164.99 42.56 165.449 42.56C165.918 42.56 166.355 42.4427 166.761 42.208C167.166 41.9733 167.491 41.632 167.737 41.184C167.993 40.7253 168.121 40.192 168.121 39.584ZM174.484 36.672V41.552C174.484 41.8827 174.559 42.1227 174.708 42.272C174.868 42.4107 175.135 42.48 175.508 42.48H176.628V44H175.188C174.367 44 173.738 43.808 173.3 43.424C172.863 43.04 172.644 42.416 172.644 41.552V36.672H171.604V35.184H172.644V32.992H174.484V35.184H176.628V36.672H174.484Z" fill="#202939"/>
<path d="M25.528 62.636C26.44 62.636 27.228 62.808 27.892 63.152C28.564 63.488 29.076 63.972 29.428 64.604C29.788 65.236 29.968 65.98 29.968 66.836C29.968 67.692 29.788 68.436 29.428 69.068C29.076 69.692 28.564 70.172 27.892 70.508C27.228 70.836 26.44 71 25.528 71H22.924V62.636H25.528ZM25.528 70.1C26.608 70.1 27.432 69.816 28 69.248C28.568 68.672 28.852 67.868 28.852 66.836C28.852 65.796 28.564 64.984 27.988 64.4C27.42 63.816 26.6 63.524 25.528 63.524H24.016V70.1H25.528ZM31.0004 67.688C31.0004 67.016 31.1364 66.428 31.4084 65.924C31.6804 65.412 32.0524 65.016 32.5244 64.736C33.0044 64.456 33.5364 64.316 34.1204 64.316C34.6964 64.316 35.1964 64.44 35.6204 64.688C36.0444 64.936 36.3604 65.248 36.5684 65.624V64.424H37.6724V71H36.5684V69.776C36.3524 70.16 36.0284 70.48 35.5964 70.736C35.1724 70.984 34.6764 71.108 34.1084 71.108C33.5244 71.108 32.9964 70.964 32.5244 70.676C32.0524 70.388 31.6804 69.984 31.4084 69.464C31.1364 68.944 31.0004 68.352 31.0004 67.688ZM36.5684 67.7C36.5684 67.204 36.4684 66.772 36.2684 66.404C36.0684 66.036 35.7964 65.756 35.4524 65.564C35.1164 65.364 34.7444 65.264 34.3364 65.264C33.9284 65.264 33.5564 65.36 33.2204 65.552C32.8844 65.744 32.6164 66.024 32.4164 66.392C32.2164 66.76 32.1164 67.192 32.1164 67.688C32.1164 68.192 32.2164 68.632 32.4164 69.008C32.6164 69.376 32.8844 69.66 33.2204 69.86C33.5564 70.052 33.9284 70.148 34.3364 70.148C34.7444 70.148 35.1164 70.052 35.4524 69.86C35.7964 69.66 36.0684 69.376 36.2684 69.008C36.4684 68.632 36.5684 68.196 36.5684 67.7ZM40.6098 65.636C40.8258 65.26 41.1458 64.948 41.5698 64.7C42.0018 64.444 42.5018 64.316 43.0698 64.316C43.6538 64.316 44.1818 64.456 44.6537 64.736C45.1337 65.016 45.5098 65.412 45.7818 65.924C46.0538 66.428 46.1898 67.016 46.1898 67.688C46.1898 68.352 46.0538 68.944 45.7818 69.464C45.5098 69.984 45.1337 70.388 44.6537 70.676C44.1818 70.964 43.6538 71.108 43.0698 71.108C42.5098 71.108 42.0138 70.984 41.5818 70.736C41.1578 70.48 40.8338 70.164 40.6098 69.788V74.12H39.5178V64.424H40.6098V65.636ZM45.0738 67.688C45.0738 67.192 44.9738 66.76 44.7738 66.392C44.5738 66.024 44.3018 65.744 43.9578 65.552C43.6218 65.36 43.2498 65.264 42.8418 65.264C42.4418 65.264 42.0698 65.364 41.7258 65.564C41.3898 65.756 41.1178 66.04 40.9098 66.416C40.7098 66.784 40.6098 67.212 40.6098 67.7C40.6098 68.196 40.7098 68.632 40.9098 69.008C41.1178 69.376 41.3898 69.66 41.7258 69.86C42.0698 70.052 42.4418 70.148 42.8418 70.148C43.2498 70.148 43.6218 70.052 43.9578 69.86C44.3018 69.66 44.5738 69.376 44.7738 69.008C44.9738 68.632 45.0738 68.192 45.0738 67.688ZM47.2191 67.688C47.2191 67.016 47.3551 66.428 47.6271 65.924C47.8991 65.412 48.2711 65.016 48.7431 64.736C49.2231 64.456 49.7551 64.316 50.3391 64.316C50.9151 64.316 51.4151 64.44 51.8391 64.688C52.2631 64.936 52.5791 65.248 52.7871 65.624V64.424H53.8911V71H52.7871V69.776C52.5711 70.16 52.2471 70.48 51.8151 70.736C51.3911 70.984 50.8951 71.108 50.3271 71.108C49.7431 71.108 49.2151 70.964 48.7431 70.676C48.2711 70.388 47.8991 69.984 47.6271 69.464C47.3551 68.944 47.2191 68.352 47.2191 67.688ZM52.7871 67.7C52.7871 67.204 52.6871 66.772 52.4871 66.404C52.2871 66.036 52.0151 65.756 51.6711 65.564C51.3351 65.364 50.9631 65.264 50.5551 65.264C50.1471 65.264 49.7751 65.36 49.4391 65.552C49.1031 65.744 48.8351 66.024 48.6351 66.392C48.4351 66.76 48.3351 67.192 48.3351 67.688C48.3351 68.192 48.4351 68.632 48.6351 69.008C48.8351 69.376 49.1031 69.66 49.4391 69.86C49.7751 70.052 50.1471 70.148 50.5551 70.148C50.9631 70.148 51.3351 70.052 51.6711 69.86C52.0151 69.66 52.2871 69.376 52.4871 69.008C52.6871 68.632 52.7871 68.196 52.7871 67.7ZM57.0685 65.324V69.2C57.0685 69.52 57.1365 69.748 57.2725 69.884C57.4085 70.012 57.6445 70.076 57.9805 70.076H58.7845V71H57.8005C57.1925 71 56.7365 70.86 56.4325 70.58C56.1285 70.3 55.9765 69.84 55.9765 69.2V65.324H55.1245V64.424H55.9765V62.768H57.0685V64.424H58.7845V65.324H57.0685ZM63.7796 71L61.1996 68.096V71H60.1076V62.12H61.1996V67.34L63.7316 64.424H65.2556L62.1596 67.7L65.2676 71H63.7796ZM65.8754 67.688C65.8754 67.016 66.0114 66.428 66.2834 65.924C66.5554 65.412 66.9274 65.016 67.3994 64.736C67.8794 64.456 68.4114 64.316 68.9954 64.316C69.5714 64.316 70.0714 64.44 70.4954 64.688C70.9194 64.936 71.2354 65.248 71.4434 65.624V64.424H72.5474V71H71.4434V69.776C71.2274 70.16 70.9034 70.48 70.4714 70.736C70.0474 70.984 69.5514 71.108 68.9834 71.108C68.3994 71.108 67.8714 70.964 67.3994 70.676C66.9274 70.388 66.5554 69.984 66.2834 69.464C66.0114 68.944 65.8754 68.352 65.8754 67.688ZM71.4434 67.7C71.4434 67.204 71.3434 66.772 71.1434 66.404C70.9434 66.036 70.6714 65.756 70.3274 65.564C69.9914 65.364 69.6194 65.264 69.2114 65.264C68.8034 65.264 68.4314 65.36 68.0954 65.552C67.7594 65.744 67.4914 66.024 67.2914 66.392C67.0914 66.76 66.9914 67.192 66.9914 67.688C66.9914 68.192 67.0914 68.632 67.2914 69.008C67.4914 69.376 67.7594 69.66 68.0954 69.86C68.4314 70.052 68.8034 70.148 69.2114 70.148C69.6194 70.148 69.9914 70.052 70.3274 69.86C70.6714 69.66 70.9434 69.376 71.1434 69.008C71.3434 68.632 71.4434 68.196 71.4434 67.7ZM77.5968 64.304C78.3968 64.304 79.0448 64.548 79.5408 65.036C80.0368 65.516 80.2848 66.212 80.2848 67.124V71H79.2048V67.28C79.2048 66.624 79.0408 66.124 78.7128 65.78C78.3848 65.428 77.9368 65.252 77.3688 65.252C76.7928 65.252 76.3328 65.432 75.9888 65.792C75.6528 66.152 75.4848 66.676 75.4848 67.364V71H74.3928V64.424H75.4848V65.36C75.7008 65.024 75.9928 64.764 76.3608 64.58C76.7368 64.396 77.1488 64.304 77.5968 64.304ZM86.3598 65.636C86.5758 65.26 86.8958 64.948 87.3198 64.7C87.7518 64.444 88.2518 64.316 88.8198 64.316C89.4038 64.316 89.9318 64.456 90.4037 64.736C90.8837 65.016 91.2598 65.412 91.5318 65.924C91.8038 66.428 91.9398 67.016 91.9398 67.688C91.9398 68.352 91.8038 68.944 91.5318 69.464C91.2598 69.984 90.8837 70.388 90.4037 70.676C89.9318 70.964 89.4038 71.108 88.8198 71.108C88.2598 71.108 87.7638 70.984 87.3318 70.736C86.9078 70.48 86.5838 70.164 86.3598 69.788V74.12H85.2678V64.424H86.3598V65.636ZM90.8238 67.688C90.8238 67.192 90.7238 66.76 90.5238 66.392C90.3238 66.024 90.0518 65.744 89.7078 65.552C89.3718 65.36 88.9998 65.264 88.5918 65.264C88.1918 65.264 87.8198 65.364 87.4758 65.564C87.1398 65.756 86.8678 66.04 86.6598 66.416C86.4598 66.784 86.3598 67.212 86.3598 67.7C86.3598 68.196 86.4598 68.632 86.6598 69.008C86.8678 69.376 87.1398 69.66 87.4758 69.86C87.8198 70.052 88.1918 70.148 88.5918 70.148C88.9998 70.148 89.3718 70.052 89.7078 69.86C90.0518 69.66 90.3238 69.376 90.5238 69.008C90.7238 68.632 90.8238 68.192 90.8238 67.688ZM94.4691 65.492C94.6611 65.116 94.9331 64.824 95.2851 64.616C95.6451 64.408 96.0811 64.304 96.5931 64.304V65.432H96.3051C95.0811 65.432 94.4691 66.096 94.4691 67.424V71H93.3771V64.424H94.4691V65.492ZM100.722 71.108C100.106 71.108 99.5457 70.968 99.0417 70.688C98.5457 70.408 98.1537 70.012 97.8657 69.5C97.5857 68.98 97.4457 68.38 97.4457 67.7C97.4457 67.028 97.5897 66.436 97.8777 65.924C98.1737 65.404 98.5737 65.008 99.0777 64.736C99.5817 64.456 100.146 64.316 100.77 64.316C101.394 64.316 101.958 64.456 102.462 64.736C102.966 65.008 103.362 65.4 103.65 65.912C103.946 66.424 104.094 67.02 104.094 67.7C104.094 68.38 103.942 68.98 103.638 69.5C103.342 70.012 102.938 70.408 102.426 70.688C101.914 70.968 101.346 71.108 100.722 71.108ZM100.722 70.148C101.114 70.148 101.482 70.056 101.826 69.872C102.17 69.688 102.446 69.412 102.654 69.044C102.87 68.676 102.978 68.228 102.978 67.7C102.978 67.172 102.874 66.724 102.666 66.356C102.458 65.988 102.186 65.716 101.85 65.54C101.514 65.356 101.15 65.264 100.758 65.264C100.358 65.264 99.9897 65.356 99.6537 65.54C99.3257 65.716 99.0617 65.988 98.8617 66.356C98.6617 66.724 98.5617 67.172 98.5617 67.7C98.5617 68.236 98.6577 68.688 98.8497 69.056C99.0497 69.424 99.3137 69.7 99.6417 69.884C99.9697 70.06 100.33 70.148 100.722 70.148ZM108.241 64.316C108.809 64.316 109.305 64.44 109.729 64.688C110.161 64.936 110.481 65.248 110.689 65.624V64.424H111.793V71.144C111.793 71.744 111.665 72.276 111.409 72.74C111.153 73.212 110.785 73.58 110.305 73.844C109.833 74.108 109.281 74.24 108.649 74.24C107.785 74.24 107.065 74.036 106.489 73.628C105.913 73.22 105.573 72.664 105.469 71.96H106.549C106.669 72.36 106.917 72.68 107.293 72.92C107.669 73.168 108.121 73.292 108.649 73.292C109.249 73.292 109.737 73.104 110.113 72.728C110.497 72.352 110.689 71.824 110.689 71.144V69.764C110.473 70.148 110.153 70.468 109.729 70.724C109.305 70.98 108.809 71.108 108.241 71.108C107.657 71.108 107.125 70.964 106.645 70.676C106.173 70.388 105.801 69.984 105.529 69.464C105.257 68.944 105.121 68.352 105.121 67.688C105.121 67.016 105.257 66.428 105.529 65.924C105.801 65.412 106.173 65.016 106.645 64.736C107.125 64.456 107.657 64.316 108.241 64.316ZM110.689 67.7C110.689 67.204 110.589 66.772 110.389 66.404C110.189 66.036 109.917 65.756 109.573 65.564C109.237 65.364 108.865 65.264 108.457 65.264C108.049 65.264 107.677 65.36 107.341 65.552C107.005 65.744 106.737 66.024 106.537 66.392C106.337 66.76 106.237 67.192 106.237 67.688C106.237 68.192 106.337 68.632 106.537 69.008C106.737 69.376 107.005 69.66 107.341 69.86C107.677 70.052 108.049 70.148 108.457 70.148C108.865 70.148 109.237 70.052 109.573 69.86C109.917 69.66 110.189 69.376 110.389 69.008C110.589 68.632 110.689 68.196 110.689 67.7ZM114.731 65.492C114.923 65.116 115.195 64.824 115.547 64.616C115.907 64.408 116.343 64.304 116.855 64.304V65.432H116.567C115.343 65.432 114.731 66.096 114.731 67.424V71H113.639V64.424H114.731V65.492ZM117.707 67.688C117.707 67.016 117.843 66.428 118.115 65.924C118.387 65.412 118.759 65.016 119.231 64.736C119.711 64.456 120.243 64.316 120.827 64.316C121.403 64.316 121.903 64.44 122.327 64.688C122.751 64.936 123.067 65.248 123.275 65.624V64.424H124.379V71H123.275V69.776C123.059 70.16 122.735 70.48 122.303 70.736C121.879 70.984 121.383 71.108 120.815 71.108C120.231 71.108 119.703 70.964 119.231 70.676C118.759 70.388 118.387 69.984 118.115 69.464C117.843 68.944 117.707 68.352 117.707 67.688ZM123.275 67.7C123.275 67.204 123.175 66.772 122.975 66.404C122.775 66.036 122.503 65.756 122.159 65.564C121.823 65.364 121.451 65.264 121.043 65.264C120.635 65.264 120.263 65.36 119.927 65.552C119.591 65.744 119.323 66.024 119.123 66.392C118.923 66.76 118.823 67.192 118.823 67.688C118.823 68.192 118.923 68.632 119.123 69.008C119.323 69.376 119.591 69.66 119.927 69.86C120.263 70.052 120.635 70.148 121.043 70.148C121.451 70.148 121.823 70.052 122.159 69.86C122.503 69.66 122.775 69.376 122.975 69.008C123.175 68.632 123.275 68.196 123.275 67.7ZM134.133 64.304C134.645 64.304 135.101 64.412 135.501 64.628C135.901 64.836 136.217 65.152 136.449 65.576C136.681 66 136.797 66.516 136.797 67.124V71H135.717V67.28C135.717 66.624 135.553 66.124 135.225 65.78C134.905 65.428 134.469 65.252 133.917 65.252C133.349 65.252 132.897 65.436 132.561 65.804C132.225 66.164 132.057 66.688 132.057 67.376V71H130.977V67.28C130.977 66.624 130.813 66.124 130.485 65.78C130.165 65.428 129.729 65.252 129.177 65.252C128.609 65.252 128.157 65.436 127.821 65.804C127.485 66.164 127.317 66.688 127.317 67.376V71H126.225V64.424H127.317V65.372C127.533 65.028 127.821 64.764 128.181 64.58C128.549 64.396 128.953 64.304 129.393 64.304C129.945 64.304 130.433 64.428 130.857 64.676C131.281 64.924 131.597 65.288 131.805 65.768C131.989 65.304 132.293 64.944 132.717 64.688C133.141 64.432 133.613 64.304 134.133 64.304ZM144.115 71.108C143.611 71.108 143.159 71.024 142.759 70.856C142.359 70.68 142.043 70.44 141.811 70.136C141.579 69.824 141.451 69.468 141.427 69.068H142.555C142.587 69.396 142.739 69.664 143.011 69.872C143.291 70.08 143.655 70.184 144.103 70.184C144.519 70.184 144.847 70.092 145.087 69.908C145.327 69.724 145.447 69.492 145.447 69.212C145.447 68.924 145.319 68.712 145.063 68.576C144.807 68.432 144.411 68.292 143.875 68.156C143.387 68.028 142.987 67.9 142.675 67.772C142.371 67.636 142.107 67.44 141.883 67.184C141.667 66.92 141.559 66.576 141.559 66.152C141.559 65.816 141.659 65.508 141.859 65.228C142.059 64.948 142.343 64.728 142.711 64.568C143.079 64.4 143.499 64.316 143.971 64.316C144.699 64.316 145.287 64.5 145.735 64.868C146.183 65.236 146.423 65.74 146.455 66.38H145.363C145.339 66.036 145.199 65.76 144.943 65.552C144.695 65.344 144.359 65.24 143.935 65.24C143.543 65.24 143.231 65.324 142.999 65.492C142.767 65.66 142.651 65.88 142.651 66.152C142.651 66.368 142.719 66.548 142.855 66.692C142.999 66.828 143.175 66.94 143.383 67.028C143.599 67.108 143.895 67.2 144.271 67.304C144.743 67.432 145.127 67.56 145.423 67.688C145.719 67.808 145.971 67.992 146.179 68.24C146.395 68.488 146.507 68.812 146.515 69.212C146.515 69.572 146.415 69.896 146.215 70.184C146.015 70.472 145.731 70.7 145.363 70.868C145.003 71.028 144.587 71.108 144.115 71.108ZM154.057 67.46C154.057 67.668 154.045 67.888 154.021 68.12H148.765C148.805 68.768 149.025 69.276 149.425 69.644C149.833 70.004 150.325 70.184 150.901 70.184C151.373 70.184 151.765 70.076 152.077 69.86C152.397 69.636 152.621 69.34 152.749 68.972H153.925C153.749 69.604 153.397 70.12 152.869 70.52C152.341 70.912 151.685 71.108 150.901 71.108C150.277 71.108 149.717 70.968 149.221 70.688C148.733 70.408 148.349 70.012 148.069 69.5C147.789 68.98 147.649 68.38 147.649 67.7C147.649 67.02 147.785 66.424 148.057 65.912C148.329 65.4 148.709 65.008 149.197 64.736C149.693 64.456 150.261 64.316 150.901 64.316C151.525 64.316 152.077 64.452 152.557 64.724C153.037 64.996 153.405 65.372 153.661 65.852C153.925 66.324 154.057 66.86 154.057 67.46ZM152.929 67.232C152.929 66.816 152.837 66.46 152.653 66.164C152.469 65.86 152.217 65.632 151.897 65.48C151.585 65.32 151.237 65.24 150.853 65.24C150.301 65.24 149.829 65.416 149.437 65.768C149.053 66.12 148.833 66.608 148.777 67.232H152.929ZM156.59 65.492C156.782 65.116 157.054 64.824 157.406 64.616C157.766 64.408 158.202 64.304 158.714 64.304V65.432H158.426C157.202 65.432 156.59 66.096 156.59 67.424V71H155.498V64.424H156.59V65.492ZM161.307 65.324V69.2C161.307 69.52 161.375 69.748 161.511 69.884C161.647 70.012 161.883 70.076 162.219 70.076H163.023V71H162.039C161.431 71 160.975 70.86 160.671 70.58C160.367 70.3 160.215 69.84 160.215 69.2V65.324H159.363V64.424H160.215V62.768H161.307V64.424H163.023V65.324H161.307ZM164.91 63.356C164.702 63.356 164.526 63.284 164.382 63.14C164.238 62.996 164.166 62.82 164.166 62.612C164.166 62.404 164.238 62.228 164.382 62.084C164.526 61.94 164.702 61.868 164.91 61.868C165.11 61.868 165.278 61.94 165.414 62.084C165.558 62.228 165.63 62.404 165.63 62.612C165.63 62.82 165.558 62.996 165.414 63.14C165.278 63.284 165.11 63.356 164.91 63.356ZM165.438 64.424V71H164.346V64.424H165.438ZM169.975 65.324H168.595V71H167.503V65.324H166.651V64.424H167.503V63.956C167.503 63.22 167.691 62.684 168.067 62.348C168.451 62.004 169.063 61.832 169.903 61.832V62.744C169.423 62.744 169.083 62.84 168.883 63.032C168.691 63.216 168.595 63.524 168.595 63.956V64.424H169.975V65.324ZM171.812 63.356C171.604 63.356 171.428 63.284 171.284 63.14C171.14 62.996 171.068 62.82 171.068 62.612C171.068 62.404 171.14 62.228 171.284 62.084C171.428 61.94 171.604 61.868 171.812 61.868C172.012 61.868 172.18 61.94 172.316 62.084C172.46 62.228 172.532 62.404 172.532 62.612C172.532 62.82 172.46 62.996 172.316 63.14C172.18 63.284 172.012 63.356 171.812 63.356ZM172.34 64.424V71H171.248V64.424H172.34ZM177.873 71L175.293 68.096V71H174.201V62.12H175.293V67.34L177.825 64.424H179.349L176.253 67.7L179.361 71H177.873ZM179.969 67.688C179.969 67.016 180.105 66.428 180.377 65.924C180.649 65.412 181.021 65.016 181.493 64.736C181.973 64.456 182.505 64.316 183.089 64.316C183.665 64.316 184.165 64.44 184.589 64.688C185.013 64.936 185.329 65.248 185.537 65.624V64.424H186.641V71H185.537V69.776C185.321 70.16 184.997 70.48 184.565 70.736C184.141 70.984 183.645 71.108 183.077 71.108C182.493 71.108 181.965 70.964 181.493 70.676C181.021 70.388 180.649 69.984 180.377 69.464C180.105 68.944 179.969 68.352 179.969 67.688ZM185.537 67.7C185.537 67.204 185.437 66.772 185.237 66.404C185.037 66.036 184.765 65.756 184.421 65.564C184.085 65.364 183.713 65.264 183.305 65.264C182.897 65.264 182.525 65.36 182.189 65.552C181.853 65.744 181.585 66.024 181.385 66.392C181.185 66.76 181.085 67.192 181.085 67.688C181.085 68.192 181.185 68.632 181.385 69.008C181.585 69.376 181.853 69.66 182.189 69.86C182.525 70.052 182.897 70.148 183.305 70.148C183.713 70.148 184.085 70.052 184.421 69.86C184.765 69.66 185.037 69.376 185.237 69.008C185.437 68.632 185.537 68.196 185.537 67.7ZM189.819 65.324V69.2C189.819 69.52 189.887 69.748 190.023 69.884C190.159 70.012 190.395 70.076 190.73 70.076H191.535V71H190.551C189.943 71 189.487 70.86 189.183 70.58C188.879 70.3 188.727 69.84 188.727 69.2V65.324H187.875V64.424H188.727V62.768H189.819V64.424H191.535V65.324H189.819ZM24.016 83.636C24.232 83.26 24.552 82.948 24.976 82.7C25.408 82.444 25.908 82.316 26.476 82.316C27.06 82.316 27.588 82.456 28.06 82.736C28.54 83.016 28.916 83.412 29.188 83.924C29.46 84.428 29.596 85.016 29.596 85.688C29.596 86.352 29.46 86.944 29.188 87.464C28.916 87.984 28.54 88.388 28.06 88.676C27.588 88.964 27.06 89.108 26.476 89.108C25.916 89.108 25.42 88.984 24.988 88.736C24.564 88.48 24.24 88.164 24.016 87.788V92.12H22.924V82.424H24.016V83.636ZM28.48 85.688C28.48 85.192 28.38 84.76 28.18 84.392C27.98 84.024 27.708 83.744 27.364 83.552C27.028 83.36 26.656 83.264 26.248 83.264C25.848 83.264 25.476 83.364 25.132 83.564C24.796 83.756 24.524 84.04 24.316 84.416C24.116 84.784 24.016 85.212 24.016 85.7C24.016 86.196 24.116 86.632 24.316 87.008C24.524 87.376 24.796 87.66 25.132 87.86C25.476 88.052 25.848 88.148 26.248 88.148C26.656 88.148 27.028 88.052 27.364 87.86C27.708 87.66 27.98 87.376 28.18 87.008C28.38 86.632 28.48 86.192 28.48 85.688ZM32.1254 83.492C32.3174 83.116 32.5894 82.824 32.9414 82.616C33.3014 82.408 33.7374 82.304 34.2494 82.304V83.432H33.9614C32.7374 83.432 32.1254 84.096 32.1254 85.424V89H31.0334V82.424H32.1254V83.492ZM38.3779 89.108C37.7619 89.108 37.2019 88.968 36.6979 88.688C36.2019 88.408 35.8099 88.012 35.5219 87.5C35.2419 86.98 35.1019 86.38 35.1019 85.7C35.1019 85.028 35.2459 84.436 35.5339 83.924C35.8299 83.404 36.2299 83.008 36.7339 82.736C37.2379 82.456 37.8019 82.316 38.4259 82.316C39.0499 82.316 39.6139 82.456 40.1179 82.736C40.6219 83.008 41.0179 83.4 41.3059 83.912C41.6019 84.424 41.7499 85.02 41.7499 85.7C41.7499 86.38 41.5979 86.98 41.2939 87.5C40.9979 88.012 40.5939 88.408 40.0819 88.688C39.5699 88.968 39.0019 89.108 38.3779 89.108ZM38.3779 88.148C38.7699 88.148 39.1379 88.056 39.4819 87.872C39.8259 87.688 40.1019 87.412 40.3099 87.044C40.5259 86.676 40.6339 86.228 40.6339 85.7C40.6339 85.172 40.5299 84.724 40.3219 84.356C40.1139 83.988 39.8419 83.716 39.5059 83.54C39.1699 83.356 38.8059 83.264 38.4139 83.264C38.0139 83.264 37.6459 83.356 37.3099 83.54C36.9819 83.716 36.7179 83.988 36.5179 84.356C36.3179 84.724 36.2179 85.172 36.2179 85.7C36.2179 86.236 36.3139 86.688 36.5059 87.056C36.7059 87.424 36.9699 87.7 37.2979 87.884C37.6259 88.06 37.9859 88.148 38.3779 88.148ZM45.8617 83.324H44.4817V89H43.3897V83.324H42.5377V82.424H43.3897V81.956C43.3897 81.22 43.5777 80.684 43.9537 80.348C44.3377 80.004 44.9497 79.832 45.7897 79.832V80.744C45.3097 80.744 44.9697 80.84 44.7697 81.032C44.5777 81.216 44.4817 81.524 44.4817 81.956V82.424H45.8617V83.324ZM53.1349 85.46C53.1349 85.668 53.1229 85.888 53.0989 86.12H47.8429C47.8829 86.768 48.1029 87.276 48.5029 87.644C48.9109 88.004 49.4029 88.184 49.9789 88.184C50.4509 88.184 50.8429 88.076 51.1549 87.86C51.4749 87.636 51.6989 87.34 51.8269 86.972H53.0029C52.8269 87.604 52.4749 88.12 51.9469 88.52C51.4189 88.912 50.7629 89.108 49.9789 89.108C49.3549 89.108 48.7949 88.968 48.2989 88.688C47.8109 88.408 47.4269 88.012 47.1469 87.5C46.8669 86.98 46.7269 86.38 46.7269 85.7C46.7269 85.02 46.8629 84.424 47.1349 83.912C47.4069 83.4 47.7869 83.008 48.2749 82.736C48.7709 82.456 49.3389 82.316 49.9789 82.316C50.6029 82.316 51.1549 82.452 51.6349 82.724C52.1149 82.996 52.4829 83.372 52.7389 83.852C53.0029 84.324 53.1349 84.86 53.1349 85.46ZM52.0069 85.232C52.0069 84.816 51.9149 84.46 51.7309 84.164C51.5469 83.86 51.2949 83.632 50.9749 83.48C50.6629 83.32 50.3149 83.24 49.9309 83.24C49.3789 83.24 48.9069 83.416 48.5149 83.768C48.1309 84.12 47.9109 84.608 47.8549 85.232H52.0069ZM56.9043 89.108C56.4003 89.108 55.9483 89.024 55.5483 88.856C55.1483 88.68 54.8323 88.44 54.6003 88.136C54.3683 87.824 54.2403 87.468 54.2163 87.068H55.3443C55.3763 87.396 55.5283 87.664 55.8003 87.872C56.0803 88.08 56.4443 88.184 56.8923 88.184C57.3083 88.184 57.6363 88.092 57.8763 87.908C58.1163 87.724 58.2363 87.492 58.2363 87.212C58.2363 86.924 58.1083 86.712 57.8523 86.576C57.5963 86.432 57.2003 86.292 56.6643 86.156C56.1763 86.028 55.7763 85.9 55.4643 85.772C55.1603 85.636 54.8963 85.44 54.6723 85.184C54.4563 84.92 54.3483 84.576 54.3483 84.152C54.3483 83.816 54.4483 83.508 54.6483 83.228C54.8483 82.948 55.1323 82.728 55.5003 82.568C55.8683 82.4 56.2883 82.316 56.7603 82.316C57.4883 82.316 58.0763 82.5 58.5243 82.868C58.9723 83.236 59.2123 83.74 59.2443 84.38H58.1523C58.1283 84.036 57.9883 83.76 57.7323 83.552C57.4843 83.344 57.1483 83.24 56.7243 83.24C56.3323 83.24 56.0203 83.324 55.7883 83.492C55.5563 83.66 55.4403 83.88 55.4403 84.152C55.4403 84.368 55.5083 84.548 55.6443 84.692C55.7883 84.828 55.9643 84.94 56.1723 85.028C56.3883 85.108 56.6843 85.2 57.0603 85.304C57.5323 85.432 57.9163 85.56 58.2123 85.688C58.5083 85.808 58.7603 85.992 58.9683 86.24C59.1843 86.488 59.2963 86.812 59.3043 87.212C59.3043 87.572 59.2043 87.896 59.0043 88.184C58.8043 88.472 58.5203 88.7 58.1523 88.868C57.7923 89.028 57.3763 89.108 56.9043 89.108ZM61.4099 81.356C61.2019 81.356 61.0259 81.284 60.8819 81.14C60.7379 80.996 60.6659 80.82 60.6659 80.612C60.6659 80.404 60.7379 80.228 60.8819 80.084C61.0259 79.94 61.2019 79.868 61.4099 79.868C61.6099 79.868 61.7779 79.94 61.9139 80.084C62.0579 80.228 62.1299 80.404 62.1299 80.612C62.1299 80.82 62.0579 80.996 61.9139 81.14C61.7779 81.284 61.6099 81.356 61.4099 81.356ZM61.9379 82.424V89H60.8459V82.424H61.9379ZM66.667 89.108C66.051 89.108 65.491 88.968 64.987 88.688C64.491 88.408 64.099 88.012 63.811 87.5C63.531 86.98 63.391 86.38 63.391 85.7C63.391 85.028 63.535 84.436 63.823 83.924C64.119 83.404 64.519 83.008 65.023 82.736C65.527 82.456 66.091 82.316 66.715 82.316C67.339 82.316 67.903 82.456 68.407 82.736C68.911 83.008 69.307 83.4 69.595 83.912C69.891 84.424 70.039 85.02 70.039 85.7C70.039 86.38 69.887 86.98 69.583 87.5C69.287 88.012 68.883 88.408 68.371 88.688C67.859 88.968 67.291 89.108 66.667 89.108ZM66.667 88.148C67.059 88.148 67.427 88.056 67.771 87.872C68.115 87.688 68.391 87.412 68.599 87.044C68.815 86.676 68.923 86.228 68.923 85.7C68.923 85.172 68.819 84.724 68.611 84.356C68.403 83.988 68.131 83.716 67.795 83.54C67.459 83.356 67.095 83.264 66.703 83.264C66.303 83.264 65.935 83.356 65.599 83.54C65.271 83.716 65.007 83.988 64.807 84.356C64.607 84.724 64.507 85.172 64.507 85.7C64.507 86.236 64.603 86.688 64.795 87.056C64.995 87.424 65.259 87.7 65.587 87.884C65.915 88.06 66.275 88.148 66.667 88.148ZM74.6788 82.304C75.4788 82.304 76.1268 82.548 76.6228 83.036C77.1188 83.516 77.3668 84.212 77.3668 85.124V89H76.2868V85.28C76.2868 84.624 76.1228 84.124 75.7948 83.78C75.4668 83.428 75.0188 83.252 74.4508 83.252C73.8748 83.252 73.4148 83.432 73.0708 83.792C72.7348 84.152 72.5668 84.676 72.5668 85.364V89H71.4748V82.424H72.5668V83.36C72.7828 83.024 73.0748 82.764 73.4428 82.58C73.8188 82.396 74.2308 82.304 74.6788 82.304ZM78.7426 85.688C78.7426 85.016 78.8786 84.428 79.1506 83.924C79.4226 83.412 79.7946 83.016 80.2666 82.736C80.7466 82.456 81.2786 82.316 81.8626 82.316C82.4386 82.316 82.9386 82.44 83.3626 82.688C83.7866 82.936 84.1026 83.248 84.3106 83.624V82.424H85.4146V89H84.3106V87.776C84.0946 88.16 83.7706 88.48 83.3386 88.736C82.9146 88.984 82.4186 89.108 81.8506 89.108C81.2666 89.108 80.7386 88.964 80.2666 88.676C79.7946 88.388 79.4226 87.984 79.1506 87.464C78.8786 86.944 78.7426 86.352 78.7426 85.688ZM84.3106 85.7C84.3106 85.204 84.2106 84.772 84.0106 84.404C83.8106 84.036 83.5386 83.756 83.1946 83.564C82.8586 83.364 82.4866 83.264 82.0786 83.264C81.6706 83.264 81.2986 83.36 80.9626 83.552C80.6266 83.744 80.3586 84.024 80.1586 84.392C79.9586 84.76 79.8586 85.192 79.8586 85.688C79.8586 86.192 79.9586 86.632 80.1586 87.008C80.3586 87.376 80.6266 87.66 80.9626 87.86C81.2986 88.052 81.6706 88.148 82.0786 88.148C82.4866 88.148 82.8586 88.052 83.1946 87.86C83.5386 87.66 83.8106 87.376 84.0106 87.008C84.2106 86.632 84.3106 86.196 84.3106 85.7ZM88.3519 80.12V89H87.2599V80.12H88.3519ZM99.0763 82.424L95.1163 92.096H93.9883L95.2843 88.928L92.6323 82.424H93.8443L95.9083 87.752L97.9483 82.424H99.0763ZM99.766 85.688C99.766 85.016 99.902 84.428 100.174 83.924C100.446 83.412 100.818 83.016 101.29 82.736C101.77 82.456 102.302 82.316 102.886 82.316C103.462 82.316 103.962 82.44 104.386 82.688C104.81 82.936 105.126 83.248 105.334 83.624V82.424H106.438V89H105.334V87.776C105.118 88.16 104.794 88.48 104.362 88.736C103.938 88.984 103.442 89.108 102.874 89.108C102.29 89.108 101.762 88.964 101.29 88.676C100.818 88.388 100.446 87.984 100.174 87.464C99.902 86.944 99.766 86.352 99.766 85.688ZM105.334 85.7C105.334 85.204 105.234 84.772 105.034 84.404C104.834 84.036 104.562 83.756 104.218 83.564C103.882 83.364 103.51 83.264 103.102 83.264C102.694 83.264 102.322 83.36 101.986 83.552C101.65 83.744 101.382 84.024 101.182 84.392C100.982 84.76 100.882 85.192 100.882 85.688C100.882 86.192 100.982 86.632 101.182 87.008C101.382 87.376 101.65 87.66 101.986 87.86C102.322 88.052 102.694 88.148 103.102 88.148C103.51 88.148 103.882 88.052 104.218 87.86C104.562 87.66 104.834 87.376 105.034 87.008C105.234 86.632 105.334 86.196 105.334 85.7ZM111.487 82.304C112.287 82.304 112.935 82.548 113.431 83.036C113.927 83.516 114.175 84.212 114.175 85.124V89H113.095V85.28C113.095 84.624 112.931 84.124 112.603 83.78C112.275 83.428 111.827 83.252 111.259 83.252C110.683 83.252 110.223 83.432 109.879 83.792C109.543 84.152 109.375 84.676 109.375 85.364V89H108.283V82.424H109.375V83.36C109.591 83.024 109.883 82.764 110.251 82.58C110.627 82.396 111.039 82.304 111.487 82.304ZM118.671 82.316C119.239 82.316 119.735 82.44 120.159 82.688C120.591 82.936 120.911 83.248 121.119 83.624V82.424H122.223V89.144C122.223 89.744 122.095 90.276 121.839 90.74C121.583 91.212 121.215 91.58 120.735 91.844C120.263 92.108 119.711 92.24 119.079 92.24C118.215 92.24 117.495 92.036 116.919 91.628C116.343 91.22 116.003 90.664 115.899 89.96H116.979C117.099 90.36 117.347 90.68 117.723 90.92C118.099 91.168 118.551 91.292 119.079 91.292C119.679 91.292 120.167 91.104 120.543 90.728C120.927 90.352 121.119 89.824 121.119 89.144V87.764C120.903 88.148 120.583 88.468 120.159 88.724C119.735 88.98 119.239 89.108 118.671 89.108C118.087 89.108 117.555 88.964 117.075 88.676C116.603 88.388 116.231 87.984 115.959 87.464C115.687 86.944 115.551 86.352 115.551 85.688C115.551 85.016 115.687 84.428 115.959 83.924C116.231 83.412 116.603 83.016 117.075 82.736C117.555 82.456 118.087 82.316 118.671 82.316ZM121.119 85.7C121.119 85.204 121.019 84.772 120.819 84.404C120.619 84.036 120.347 83.756 120.003 83.564C119.667 83.364 119.295 83.264 118.887 83.264C118.479 83.264 118.107 83.36 117.771 83.552C117.435 83.744 117.167 84.024 116.967 84.392C116.767 84.76 116.667 85.192 116.667 85.688C116.667 86.192 116.767 86.632 116.967 87.008C117.167 87.376 117.435 87.66 117.771 87.86C118.107 88.052 118.479 88.148 118.887 88.148C119.295 88.148 119.667 88.052 120.003 87.86C120.347 87.66 120.619 87.376 120.819 87.008C121.019 86.632 121.119 86.196 121.119 85.7ZM128.6 83.324V87.2C128.6 87.52 128.668 87.748 128.804 87.884C128.94 88.012 129.176 88.076 129.512 88.076H130.316V89H129.332C128.724 89 128.268 88.86 127.964 88.58C127.66 88.3 127.508 87.84 127.508 87.2V83.324H126.656V82.424H127.508V80.768H128.6V82.424H130.316V83.324H128.6ZM137.639 85.46C137.639 85.668 137.627 85.888 137.603 86.12H132.347C132.387 86.768 132.607 87.276 133.007 87.644C133.415 88.004 133.907 88.184 134.483 88.184C134.955 88.184 135.347 88.076 135.659 87.86C135.979 87.636 136.203 87.34 136.331 86.972H137.507C137.331 87.604 136.979 88.12 136.451 88.52C135.923 88.912 135.267 89.108 134.483 89.108C133.859 89.108 133.299 88.968 132.803 88.688C132.315 88.408 131.931 88.012 131.651 87.5C131.371 86.98 131.231 86.38 131.231 85.7C131.231 85.02 131.367 84.424 131.639 83.912C131.911 83.4 132.291 83.008 132.779 82.736C133.275 82.456 133.843 82.316 134.483 82.316C135.107 82.316 135.659 82.452 136.139 82.724C136.619 82.996 136.987 83.372 137.243 83.852C137.507 84.324 137.639 84.86 137.639 85.46ZM136.511 85.232C136.511 84.816 136.419 84.46 136.235 84.164C136.051 83.86 135.799 83.632 135.479 83.48C135.167 83.32 134.819 83.24 134.435 83.24C133.883 83.24 133.411 83.416 133.019 83.768C132.635 84.12 132.415 84.608 132.359 85.232H136.511ZM140.172 83.636C140.388 83.26 140.708 82.948 141.132 82.7C141.564 82.444 142.064 82.316 142.632 82.316C143.216 82.316 143.744 82.456 144.216 82.736C144.696 83.016 145.072 83.412 145.344 83.924C145.616 84.428 145.752 85.016 145.752 85.688C145.752 86.352 145.616 86.944 145.344 87.464C145.072 87.984 144.696 88.388 144.216 88.676C143.744 88.964 143.216 89.108 142.632 89.108C142.072 89.108 141.576 88.984 141.144 88.736C140.72 88.48 140.396 88.164 140.172 87.788V92.12H139.08V82.424H140.172V83.636ZM144.636 85.688C144.636 85.192 144.536 84.76 144.336 84.392C144.136 84.024 143.864 83.744 143.52 83.552C143.184 83.36 142.812 83.264 142.404 83.264C142.004 83.264 141.632 83.364 141.288 83.564C140.952 83.756 140.68 84.04 140.472 84.416C140.272 84.784 140.172 85.212 140.172 85.7C140.172 86.196 140.272 86.632 140.472 87.008C140.68 87.376 140.952 87.66 141.288 87.86C141.632 88.052 142.004 88.148 142.404 88.148C142.812 88.148 143.184 88.052 143.52 87.86C143.864 87.66 144.136 87.376 144.336 87.008C144.536 86.632 144.636 86.192 144.636 85.688ZM146.782 85.688C146.782 85.016 146.918 84.428 147.19 83.924C147.462 83.412 147.834 83.016 148.306 82.736C148.786 82.456 149.318 82.316 149.902 82.316C150.478 82.316 150.978 82.44 151.402 82.688C151.826 82.936 152.142 83.248 152.35 83.624V82.424H153.454V89H152.35V87.776C152.134 88.16 151.81 88.48 151.378 88.736C150.954 88.984 150.458 89.108 149.89 89.108C149.306 89.108 148.778 88.964 148.306 88.676C147.834 88.388 147.462 87.984 147.19 87.464C146.918 86.944 146.782 86.352 146.782 85.688ZM152.35 85.7C152.35 85.204 152.25 84.772 152.05 84.404C151.85 84.036 151.578 83.756 151.234 83.564C150.898 83.364 150.526 83.264 150.118 83.264C149.71 83.264 149.338 83.36 149.002 83.552C148.666 83.744 148.398 84.024 148.198 84.392C147.998 84.76 147.898 85.192 147.898 85.688C147.898 86.192 147.998 86.632 148.198 87.008C148.398 87.376 148.666 87.66 149.002 87.86C149.338 88.052 149.71 88.148 150.118 88.148C150.526 88.148 150.898 88.052 151.234 87.86C151.578 87.66 151.85 87.376 152.05 87.008C152.25 86.632 152.35 86.196 152.35 85.7ZM156.631 83.324V87.2C156.631 87.52 156.699 87.748 156.835 87.884C156.971 88.012 157.207 88.076 157.543 88.076H158.347V89H157.363C156.755 89 156.299 88.86 155.995 88.58C155.691 88.3 155.539 87.84 155.539 87.2V83.324H154.687V82.424H155.539V80.768H156.631V82.424H158.347V83.324H156.631ZM168.701 82.424V89H167.609V88.028C167.401 88.364 167.109 88.628 166.733 88.82C166.365 89.004 165.957 89.096 165.509 89.096C164.997 89.096 164.537 88.992 164.129 88.784C163.721 88.568 163.397 88.248 163.157 87.824C162.925 87.4 162.809 86.884 162.809 86.276V82.424H163.889V86.132C163.889 86.78 164.053 87.28 164.381 87.632C164.709 87.976 165.157 88.148 165.725 88.148C166.309 88.148 166.769 87.968 167.105 87.608C167.441 87.248 167.609 86.724 167.609 86.036V82.424H168.701ZM173.749 82.304C174.549 82.304 175.197 82.548 175.693 83.036C176.189 83.516 176.437 84.212 176.437 85.124V89H175.357V85.28C175.357 84.624 175.193 84.124 174.865 83.78C174.537 83.428 174.089 83.252 173.521 83.252C172.945 83.252 172.485 83.432 172.141 83.792C171.805 84.152 171.637 84.676 171.637 85.364V89H170.545V82.424H171.637V83.36C171.853 83.024 172.145 82.764 172.513 82.58C172.889 82.396 173.301 82.304 173.749 82.304ZM179.553 83.324V87.2C179.553 87.52 179.621 87.748 179.757 87.884C179.893 88.012 180.129 88.076 180.465 88.076H181.269V89H180.285C179.677 89 179.221 88.86 178.917 88.58C178.613 88.3 178.461 87.84 178.461 87.2V83.324H177.609V82.424H178.461V80.768H179.553V82.424H181.269V83.324H179.553ZM188.424 82.424V89H187.332V88.028C187.124 88.364 186.832 88.628 186.456 88.82C186.088 89.004 185.68 89.096 185.232 89.096C184.72 89.096 184.26 88.992 183.852 88.784C183.444 88.568 183.12 88.248 182.88 87.824C182.648 87.4 182.532 86.884 182.532 86.276V82.424H183.612V86.132C183.612 86.78 183.776 87.28 184.104 87.632C184.432 87.976 184.88 88.148 185.448 88.148C186.032 88.148 186.492 87.968 186.828 87.608C187.164 87.248 187.332 86.724 187.332 86.036V82.424H188.424ZM193.94 89L191.36 86.096V89H190.268V80.12H191.36V85.34L193.892 82.424H195.416L192.32 85.7L195.428 89H193.94ZM27.868 105.14H24.22L23.548 107H22.396L25.42 98.684H26.68L29.692 107H28.54L27.868 105.14ZM27.556 104.252L26.044 100.028L24.532 104.252H27.556ZM34.2139 100.304C35.0139 100.304 35.6619 100.548 36.1579 101.036C36.6539 101.516 36.9019 102.212 36.9019 103.124V107H35.8219V103.28C35.8219 102.624 35.6579 102.124 35.3299 101.78C35.0019 101.428 34.5539 101.252 33.9859 101.252C33.4099 101.252 32.9499 101.432 32.6059 101.792C32.2699 102.152 32.1019 102.676 32.1019 103.364V107H31.0099V100.424H32.1019V101.36C32.3179 101.024 32.6099 100.764 32.9779 100.58C33.3539 100.396 33.7659 100.304 34.2139 100.304ZM38.2777 103.688C38.2777 103.016 38.4137 102.428 38.6857 101.924C38.9577 101.412 39.3297 101.016 39.8017 100.736C40.2817 100.456 40.8177 100.316 41.4097 100.316C41.9217 100.316 42.3977 100.436 42.8377 100.676C43.2777 100.908 43.6137 101.216 43.8457 101.6V98.12H44.9497V107H43.8457V105.764C43.6297 106.156 43.3097 106.48 42.8857 106.736C42.4617 106.984 41.9657 107.108 41.3977 107.108C40.8137 107.108 40.2817 106.964 39.8017 106.676C39.3297 106.388 38.9577 105.984 38.6857 105.464C38.4137 104.944 38.2777 104.352 38.2777 103.688ZM43.8457 103.7C43.8457 103.204 43.7457 102.772 43.5457 102.404C43.3457 102.036 43.0737 101.756 42.7297 101.564C42.3937 101.364 42.0217 101.264 41.6137 101.264C41.2057 101.264 40.8337 101.36 40.4977 101.552C40.1617 101.744 39.8937 102.024 39.6937 102.392C39.4937 102.76 39.3937 103.192 39.3937 103.688C39.3937 104.192 39.4937 104.632 39.6937 105.008C39.8937 105.376 40.1617 105.66 40.4977 105.86C40.8337 106.052 41.2057 106.148 41.6137 106.148C42.0217 106.148 42.3937 106.052 42.7297 105.86C43.0737 105.66 43.3457 105.376 43.5457 105.008C43.7457 104.632 43.8457 104.196 43.8457 103.7ZM46.3871 103.688C46.3871 103.016 46.5231 102.428 46.7951 101.924C47.0671 101.412 47.4391 101.016 47.9111 100.736C48.3911 100.456 48.9231 100.316 49.5071 100.316C50.0831 100.316 50.5831 100.44 51.0071 100.688C51.4311 100.936 51.7471 101.248 51.9551 101.624V100.424H53.0591V107H51.9551V105.776C51.7391 106.16 51.4151 106.48 50.9831 106.736C50.5591 106.984 50.0631 107.108 49.4951 107.108C48.9111 107.108 48.3831 106.964 47.9111 106.676C47.4391 106.388 47.0671 105.984 46.7951 105.464C46.5231 104.944 46.3871 104.352 46.3871 103.688ZM51.9551 103.7C51.9551 103.204 51.8551 102.772 51.6551 102.404C51.4551 102.036 51.1831 101.756 50.8391 101.564C50.5031 101.364 50.1311 101.264 49.7231 101.264C49.3151 101.264 48.9431 101.36 48.6071 101.552C48.2711 101.744 48.0031 102.024 47.8031 102.392C47.6031 102.76 47.5031 103.192 47.5031 103.688C47.5031 104.192 47.6031 104.632 47.8031 105.008C48.0031 105.376 48.2711 105.66 48.6071 105.86C48.9431 106.052 49.3151 106.148 49.7231 106.148C50.1311 106.148 50.5031 106.052 50.8391 105.86C51.1831 105.66 51.4551 105.376 51.6551 105.008C51.8551 104.632 51.9551 104.196 51.9551 103.7ZM55.2525 107.072C55.0445 107.072 54.8685 107 54.7245 106.856C54.5805 106.712 54.5085 106.536 54.5085 106.328C54.5085 106.12 54.5805 105.944 54.7245 105.8C54.8685 105.656 55.0445 105.584 55.2525 105.584C55.4525 105.584 55.6205 105.656 55.7565 105.8C55.9005 105.944 55.9725 106.12 55.9725 106.328C55.9725 106.536 55.9005 106.712 55.7565 106.856C55.6205 107 55.4525 107.072 55.2525 107.072Z" fill="#697586"/>
<path d="M308.672 45.7264C306.815 43.264 304.494 41.1892 301.84 39.6192C297.432 37 292.458 35.424 287.424 34.552C271.496 31.7952 262.765 34.712 256.179 39.4528C251.818 42.6 250.446 49.2912 249.158 54.1568C248.435 56.888 247.79 59.648 246.891 62.328C245.494 66.488 242.322 69.848 241.264 74.1376C240.144 78.664 240.232 83.432 241.782 87.8512C244.846 96.5808 250.053 101.64 262 103.32C268.4 104.222 273.544 101.578 278.854 98.3952C282.128 96.4336 285.522 94.6656 289.278 93.8656C293.246 93.0224 297.328 92.9056 301.307 92.1216C310.208 90.3696 313.064 81.9456 314.221 73.9664C315.621 64.3056 314.744 53.7472 308.672 45.7264Z" fill="#3498DB"/>
<path opacity="0.7" d="M308.672 45.7264C306.815 43.264 304.494 41.1892 301.84 39.6192C297.432 37 292.458 35.424 287.424 34.552C271.496 31.7952 262.765 34.712 256.179 39.4528C251.818 42.6 250.446 49.2912 249.158 54.1568C248.435 56.888 247.79 59.648 246.891 62.328C245.494 66.488 242.322 69.848 241.264 74.1376C240.144 78.664 240.232 83.432 241.782 87.8512C244.846 96.5808 250.053 101.64 262 103.32C268.4 104.222 273.544 101.578 278.854 98.3952C282.128 96.4336 285.522 94.6656 289.278 93.8656C293.246 93.0224 297.328 92.9056 301.307 92.1216C310.208 90.3696 313.064 81.9456 314.221 73.9664C315.621 64.3056 314.744 53.7472 308.672 45.7264Z" fill="white"/>
<g opacity="0.2">
<path d="M314.407 38.4577H283.885L282.802 41.0545H314.407V38.4577Z" stroke="black" stroke-linejoin="round"/>
<path d="M314.407 41.0544H283.885L282.802 43.6528H314.407V41.0544Z" stroke="black" stroke-linejoin="round"/>
<path d="M314.407 43.653H283.885L282.802 46.2498H314.407V43.653Z" stroke="black" stroke-linejoin="round"/>
<path d="M314.407 46.2497H283.885L282.802 48.8481H314.407V46.2497Z" stroke="black" stroke-linejoin="round"/>
<path d="M314.407 48.8479H283.885L282.802 51.4447H314.407V48.8479Z" stroke="black" stroke-linejoin="round"/>
<path d="M314.407 51.445H283.885L282.802 54.0434H314.407V51.445Z" stroke="black" stroke-linejoin="round"/>
<path d="M314.407 54.0432H283.885L282.802 56.64H314.407V54.0432Z" stroke="black" stroke-linejoin="round"/>
<path d="M314.407 56.6398H283.885L282.802 59.2382H314.407V56.6398Z" stroke="black" stroke-linejoin="round"/>
<path d="M314.407 59.2385H283.885L282.802 61.8353H314.407V59.2385Z" stroke="black" stroke-linejoin="round"/>
<path d="M314.407 61.8352H283.885L282.802 64.4336H314.407V61.8352Z" stroke="black" stroke-linejoin="round"/>
<path d="M314.407 64.4338H283.885L282.802 67.0306H314.407V64.4338Z" stroke="black" stroke-linejoin="round"/>
<path d="M314.407 67.0305H283.885L282.802 69.6289H314.407V67.0305Z" stroke="black" stroke-linejoin="round"/>
<path d="M314.407 69.6286H283.885L282.802 72.2254H314.407V69.6286Z" stroke="black" stroke-linejoin="round"/>
<path d="M314.407 72.2258H283.885L282.802 74.8242H314.407V72.2258Z" stroke="black" stroke-linejoin="round"/>
<path d="M314.407 74.8239H283.885L282.802 77.4207H314.407V74.8239Z" stroke="black" stroke-linejoin="round"/>
<path d="M314.407 77.4206H283.885L282.802 80.019H314.407V77.4206Z" stroke="black" stroke-linejoin="round"/>
<path d="M315.054 37.592H282.477V80.8848H315.054V37.592Z" stroke="black" stroke-linejoin="round"/>
</g>
<g opacity="0.2">
<path d="M254.914 96.4991H243.967V102.277H254.914V96.4991Z" stroke="black" stroke-linejoin="round"/>
<path d="M250.328 98.7119H248.551V99.5727H250.328V98.7119Z" stroke="black" stroke-linejoin="round"/>
<path d="M255.474 88.9903H243.405V103.773H255.474V88.9903Z" stroke="black" stroke-linejoin="round"/>
<path d="M254.914 89.7391H243.967V95.5167H254.914V89.7391Z" stroke="black" stroke-linejoin="round"/>
<path d="M250.328 91.9519H248.551V92.8127H250.328V91.9519Z" stroke="black" stroke-linejoin="round"/>
<path d="M250.641 88.0542H246.337V88.9902H250.641V88.0542Z" stroke="black" stroke-linejoin="round"/>
<path d="M248.676 85.1551H247.927V88.0559H248.676V85.1551Z" stroke="black" stroke-linejoin="round"/>
<path d="M252.231 78.4175H244.185V85.1535H252.231V78.4175Z" stroke="black" stroke-linejoin="round"/>
</g>
<g opacity="0.2">
<path d="M300.224 96.7744V84.4224C300.224 84.1891 300.178 83.9581 300.089 83.7425C300 83.5269 299.869 83.3311 299.704 83.1661C299.539 83.0011 299.343 82.8703 299.128 82.7812C298.912 82.692 298.681 82.6462 298.448 82.6464H282.221V96.8976" stroke="black" stroke-linejoin="round"/>
<path d="M282.357 82.6464H265.827C265.594 82.6464 265.363 82.6923 265.148 82.7816C264.932 82.8709 264.737 83.0017 264.572 83.1667C264.407 83.3316 264.276 83.5274 264.187 83.7429C264.098 83.9583 264.053 84.1892 264.053 84.4224V96.7744" stroke="black" stroke-linejoin="round"/>
<path d="M301.827 97.9599V102.12H282.229V96.7743H300.646C300.802 96.7741 300.956 96.8047 301.099 96.8642C301.243 96.9238 301.373 97.0112 301.483 97.1214C301.593 97.2316 301.68 97.3624 301.739 97.5063C301.798 97.6502 301.828 97.8044 301.827 97.9599Z" stroke="black" stroke-linejoin="round"/>
<path d="M282.377 96.7743H263.628C263.473 96.7743 263.32 96.8049 263.177 96.8642C263.034 96.9236 262.904 97.0106 262.794 97.1203C262.685 97.2299 262.598 97.3601 262.539 97.5034C262.479 97.6466 262.449 97.8001 262.449 97.9551V102.115H282.377" stroke="black" stroke-linejoin="round"/>
<path d="M262.449 103.854V102.109H301.86V103.854" stroke="black" stroke-linejoin="round"/>
<path d="M264.053 89.6864C263.942 89.5706 263.808 89.4785 263.661 89.4155C263.513 89.3526 263.354 89.3201 263.194 89.32H259.624C259.468 89.3198 259.313 89.3504 259.169 89.41C259.024 89.4697 258.893 89.5572 258.782 89.6676C258.672 89.778 258.584 89.9092 258.524 90.0535C258.464 90.1978 258.434 90.3525 258.434 90.5088V103.77" stroke="black" stroke-linejoin="round"/>
<path d="M305.428 103.683V90.509C305.428 90.1937 305.303 89.8914 305.08 89.6684C304.857 89.4455 304.555 89.3202 304.24 89.3202H300.67C300.517 89.3196 300.365 89.3495 300.224 89.4082" stroke="black" stroke-linejoin="round"/>
</g>
<path d="M308.153 37.3295V75.8895C308.153 76.3563 307.968 76.8039 307.638 77.134C307.308 77.4641 306.86 77.6495 306.393 77.6495H250.713C250.246 77.6495 249.799 77.4641 249.469 77.134C249.139 76.8039 248.953 76.3563 248.953 75.8895V37.3295C248.953 36.9051 249.122 36.4982 249.422 36.1981C249.722 35.8981 250.129 35.7295 250.553 35.7295H306.553C306.977 35.7295 307.384 35.8981 307.684 36.1981C307.985 36.4982 308.153 36.9051 308.153 37.3295Z" fill="#3498DB" stroke="#263238" stroke-width="0.5" stroke-miterlimit="10"/>
<path d="M308.153 37.3295V40.6575H248.953V37.3295C248.953 36.9051 249.122 36.4982 249.422 36.1981C249.722 35.8981 250.129 35.7295 250.553 35.7295H306.553C306.977 35.7295 307.384 35.8981 307.684 36.1981C307.985 36.4982 308.153 36.9051 308.153 37.3295Z" fill="#C9C9C9" stroke="#263238" stroke-width="0.5" stroke-miterlimit="10"/>
<path d="M287.107 40.0127H255.526C255.384 40.0123 255.248 39.9555 255.147 39.8547C255.047 39.7539 254.99 39.6174 254.99 39.4751C254.99 39.3328 255.047 39.1963 255.147 39.0955C255.248 38.9947 255.384 38.9379 255.526 38.9375H287.107C287.25 38.9375 287.386 38.9941 287.487 39.095C287.588 39.1958 287.645 39.3325 287.645 39.4751C287.645 39.6177 287.588 39.7544 287.487 39.8552C287.386 39.9561 287.25 40.0127 287.107 40.0127Z" fill="white" stroke="#263238" stroke-width="0.5" stroke-miterlimit="10"/>
<path d="M305.153 39.0447H307.195" stroke="#263238" stroke-width="0.5" stroke-miterlimit="10"/>
<path d="M305.153 39.4751H307.195" stroke="#263238" stroke-width="0.5" stroke-miterlimit="10"/>
<path d="M305.153 39.9055H307.195" stroke="#263238" stroke-width="0.5" stroke-miterlimit="10"/>
<path d="M308.153 37.3295V38.2895H248.953V37.3295C248.953 36.9051 249.122 36.4982 249.422 36.1981C249.722 35.8981 250.129 35.7295 250.553 35.7295H306.553C306.977 35.7295 307.384 35.8981 307.684 36.1981C307.985 36.4982 308.153 36.9051 308.153 37.3295Z" fill="#263238" stroke="#263238" stroke-width="0.5" stroke-miterlimit="10"/>
<path d="M302.255 37.0623C302.257 36.965 302.23 36.8694 302.178 36.7876C302.125 36.7058 302.049 36.6415 301.96 36.603C301.87 36.5645 301.771 36.5535 301.676 36.5715C301.58 36.5894 301.492 36.6354 301.423 36.7036C301.353 36.7719 301.306 36.8592 301.286 36.9546C301.267 37.0499 301.276 37.1489 301.313 37.2389C301.35 37.3289 301.413 37.4058 301.494 37.4598C301.575 37.5139 301.67 37.5426 301.767 37.5423C301.831 37.5434 301.894 37.5317 301.954 37.5081C302.013 37.4844 302.067 37.4492 302.112 37.4046C302.157 37.3599 302.194 37.3066 302.218 37.2478C302.243 37.1891 302.255 37.126 302.255 37.0623Z" fill="white" stroke="#263238" stroke-width="0.5" stroke-miterlimit="10"/>
<path d="M304.278 37.0623C304.279 36.9654 304.252 36.8703 304.199 36.789C304.147 36.7077 304.071 36.6439 303.982 36.6058C303.893 36.5676 303.795 36.5568 303.699 36.5747C303.604 36.5926 303.517 36.6385 303.448 36.7064C303.379 36.7743 303.331 36.8612 303.312 36.9561C303.292 37.051 303.301 37.1495 303.338 37.2391C303.375 37.3288 303.437 37.4055 303.518 37.4595C303.598 37.5134 303.693 37.5423 303.79 37.5423C303.853 37.5433 303.917 37.5317 303.976 37.5081C304.035 37.4844 304.089 37.4492 304.134 37.4046C304.18 37.3599 304.216 37.3066 304.24 37.2478C304.265 37.1891 304.278 37.126 304.278 37.0623Z" fill="white" stroke="#263238" stroke-width="0.5" stroke-miterlimit="10"/>
<path d="M306.3 37.0623C306.302 36.9654 306.274 36.8703 306.222 36.789C306.169 36.7077 306.094 36.6439 306.005 36.6058C305.915 36.5676 305.817 36.5568 305.722 36.5747C305.627 36.5926 305.539 36.6385 305.47 36.7064C305.401 36.7743 305.354 36.8612 305.334 36.9561C305.315 37.051 305.324 37.1495 305.361 37.2391C305.397 37.3288 305.46 37.4055 305.54 37.4595C305.621 37.5134 305.715 37.5423 305.812 37.5423C305.876 37.5433 305.939 37.5317 305.998 37.5081C306.057 37.4844 306.111 37.4492 306.157 37.4046C306.202 37.3599 306.238 37.3066 306.263 37.2478C306.287 37.1891 306.3 37.126 306.3 37.0623Z" fill="white" stroke="#263238" stroke-width="0.5" stroke-miterlimit="10"/>
<path d="M304.962 42.3008H252.305V75.2544H304.962V42.3008Z" fill="white" stroke="#263238" stroke-width="0.5" stroke-miterlimit="10"/>
<path d="M303.619 43.6655H253.647V73.8863H303.619V43.6655Z" stroke="#3498DB" stroke-width="0.5" stroke-miterlimit="10"/>
<path d="M302.342 45.1777H254.925V72.3777H302.342V45.1777Z" stroke="#3498DB" stroke-width="0.5" stroke-miterlimit="10"/>
<path d="M270.703 48.3599V48.6399H270.373V48.3423C270.373 48.0623 270.263 47.8943 270.01 47.8943C269.757 47.8943 269.647 48.0543 269.647 48.3423V49.9839C269.647 50.2623 269.762 50.4319 270.01 50.4319C270.258 50.4319 270.373 50.2623 270.373 49.9839V49.5791H270.703V49.9599C270.703 50.4303 270.481 50.7407 270.001 50.7407C269.521 50.7407 269.305 50.4303 269.305 49.9599V48.3599C269.305 47.8895 269.527 47.5791 270.001 47.5791C270.474 47.5791 270.703 47.8879 270.703 48.3599Z" fill="#263238"/>
<path d="M272.123 48.9839V49.2943H271.363V50.3983H272.296V50.7183H271.016V47.6079H272.296V47.9279H271.363V48.9887L272.123 48.9839Z" fill="#263238"/>
<path d="M273.307 47.6079C273.795 47.6079 273.998 47.8575 273.998 48.3183V48.5711C273.998 48.9135 273.878 49.1263 273.613 49.2111C273.896 49.2959 274.003 49.5311 274.003 49.8591V50.3391C273.993 50.4666 274.014 50.5947 274.065 50.7119H273.715C273.666 50.593 273.646 50.4641 273.657 50.3359V49.8479C273.657 49.4959 273.497 49.3855 273.205 49.3855H272.96V50.7119H272.614V47.6079H273.307ZM273.217 49.0719C273.493 49.0719 273.657 48.9839 273.657 48.6463V48.3487C273.657 48.0703 273.555 47.9231 273.297 47.9231H272.96V49.0719H273.217Z" fill="#263238"/>
<path d="M274.814 50.7134V47.923H274.243V47.603H275.733V47.923H275.162V50.7134H274.814Z" fill="#263238"/>
<path d="M276.318 47.6079V50.7135H275.973V47.6079H276.318Z" fill="#263238"/>
<path d="M277.734 49.0543V49.3743H277.018V50.7183H276.673V47.6079H277.906V47.9279H277.018V49.0591L277.734 49.0543Z" fill="#263238"/>
<path d="M278.528 47.6079V50.7135H278.181V47.6079H278.528Z" fill="#263238"/>
<path d="M280.252 48.3599V48.6399H279.919V48.3423C279.919 48.0623 279.809 47.8943 279.556 47.8943C279.303 47.8943 279.191 48.0543 279.191 48.3423V49.9839C279.191 50.2623 279.307 50.4319 279.556 50.4319C279.806 50.4319 279.919 50.2623 279.919 49.9839V49.5791H280.247V49.9599C280.247 50.4303 280.027 50.7407 279.547 50.7407C279.067 50.7407 278.851 50.4303 278.851 49.9599V48.3599C278.851 47.8895 279.071 47.5791 279.547 47.5791C280.022 47.5791 280.252 47.8879 280.252 48.3599Z" fill="#263238"/>
<path d="M280.918 50.0879L280.798 50.7135H280.478L281.071 47.6079H281.572L282.167 50.7135H281.823L281.703 50.0879H280.918ZM280.962 49.7903H281.654L281.303 47.9983L280.962 49.7903Z" fill="#263238"/>
<path d="M282.892 50.7135V47.9231H282.319V47.6031H283.811V47.9231H283.238V50.7135H282.892Z" fill="#263238"/>
<path d="M284.399 47.6079V50.7135H284.054V47.6079H284.399Z" fill="#263238"/>
<path d="M284.72 48.3599C284.72 47.8799 284.955 47.5791 285.429 47.5791C285.902 47.5791 286.144 47.8847 286.144 48.3599V49.9599C286.144 50.4303 285.909 50.7407 285.429 50.7407C284.949 50.7407 284.72 50.4399 284.72 49.9599V48.3599ZM285.061 49.9839C285.061 50.2671 285.181 50.4319 285.429 50.4319C285.677 50.4319 285.797 50.2719 285.797 49.9839V48.3407C285.797 48.0607 285.681 47.8927 285.429 47.8927C285.176 47.8927 285.061 48.0527 285.061 48.3407V49.9839Z" fill="#263238"/>
<path d="M286.782 50.7135H286.479V47.6079H286.918L287.636 49.8479V47.6079H287.943V50.7135H287.583L286.783 48.2031L286.782 50.7135Z" fill="#263238"/>
<path d="M267 52.4448H290.819" stroke="#263238" stroke-width="0.5" stroke-miterlimit="10"/>
<path d="M299.136 55.4831H300.784" stroke="#263238" stroke-width="0.5" stroke-miterlimit="10"/>
<path d="M285.035 55.4829H298.266" stroke="#263238" stroke-width="0.5" stroke-miterlimit="10"/>
<path d="M277.376 55.4829H284.28" stroke="#263238" stroke-width="0.5" stroke-miterlimit="10"/>
<path d="M267.104 55.4831H276.678" stroke="#263238" stroke-width="0.5" stroke-miterlimit="10"/>
<path d="M260.894 55.4829H266.116" stroke="#263238" stroke-width="0.5" stroke-miterlimit="10"/>
<path d="M257.035 55.4829H260.141" stroke="#263238" stroke-width="0.5" stroke-miterlimit="10"/>
<path d="M276.853 56.9407H300.784" stroke="#263238" stroke-width="0.5" stroke-miterlimit="10"/>
<path d="M258.283 56.9409H276.099" stroke="#263238" stroke-width="0.5" stroke-miterlimit="10"/>
<path d="M257.035 56.9409H257.587" stroke="#263238" stroke-width="0.5" stroke-miterlimit="10"/>
<path d="M298.961 58.3983H300.783" stroke="#263238" stroke-width="0.5" stroke-miterlimit="10"/>
<path d="M289.154 58.3984H298.09" stroke="#263238" stroke-width="0.5" stroke-miterlimit="10"/>
<path d="M275.633 58.3984H288.458" stroke="#263238" stroke-width="0.5" stroke-miterlimit="10"/>
<path d="M273.66 58.3983H274.879" stroke="#263238" stroke-width="0.5" stroke-miterlimit="10"/>
<path d="M257.035 58.3984H272.616" stroke="#263238" stroke-width="0.5" stroke-miterlimit="10"/>
<path d="M293.507 59.8575H300.784" stroke="#263238" stroke-width="0.5" stroke-miterlimit="10"/>
<path d="M267.51 59.8575H292.811" stroke="#263238" stroke-width="0.5" stroke-miterlimit="10"/>
<path d="M265.188 59.8575H266.582" stroke="#263238" stroke-width="0.5" stroke-miterlimit="10"/>
<path d="M257.035 59.8574H264.435" stroke="#263238" stroke-width="0.5" stroke-miterlimit="10"/>
<path d="M296.234 61.3149H300.783" stroke="#263238" stroke-width="0.5" stroke-miterlimit="10"/>
<path d="M276.795 61.3151H295.307" stroke="#263238" stroke-width="0.5" stroke-miterlimit="10"/>
<path d="M269.366 61.3149H275.925" stroke="#263238" stroke-width="0.5" stroke-miterlimit="10"/>
<path d="M258.979 61.3151H268.495" stroke="#263238" stroke-width="0.5" stroke-miterlimit="10"/>
<path d="M257.035 61.3149H258.4" stroke="#263238" stroke-width="0.5" stroke-miterlimit="10"/>
<path d="M258.803 67.7375L260.304 71.6367L261.03 69.8735L262.795 70.5919L261.07 66.9311L258.803 67.7375Z" fill="#263238" stroke="#263238" stroke-width="0.5" stroke-linecap="round" stroke-linejoin="round"/>
<path d="M258.267 66.8896L256.451 70.6512L258.234 69.9776L258.917 71.7552L260.408 67.9936L258.267 66.8896Z" fill="#263238" stroke="#263238" stroke-width="0.5" stroke-linecap="round" stroke-linejoin="round"/>
<path d="M262.79 65.9423C262.79 65.7999 263.099 65.6367 263.08 65.4991C263.06 65.3615 262.718 65.2895 262.678 65.1567C262.638 65.0239 262.888 64.7775 262.83 64.6511C262.772 64.5247 262.424 64.5535 262.35 64.4351C262.276 64.3167 262.444 64.0127 262.35 63.9071C262.256 63.8015 261.932 63.9279 261.827 63.8351C261.721 63.7423 261.801 63.4047 261.683 63.3279C261.564 63.2511 261.289 63.4655 261.16 63.4063C261.03 63.3471 261.014 62.9999 260.878 62.9599C260.742 62.9199 260.54 63.2031 260.398 63.1839C260.256 63.1647 260.144 62.8351 260.001 62.8351C259.859 62.8351 259.742 63.1647 259.604 63.1839C259.467 63.2031 259.259 62.9215 259.124 62.9599C258.99 62.9983 258.964 63.3487 258.841 63.4063C258.718 63.4639 258.438 63.2463 258.32 63.3279C258.201 63.4095 258.281 63.7439 258.176 63.8367C258.07 63.9295 257.744 63.8015 257.652 63.9071C257.561 64.0127 257.731 64.3167 257.652 64.4351C257.574 64.5535 257.228 64.5231 257.172 64.6511C257.116 64.7791 257.364 65.0207 257.324 65.1567C257.284 65.2927 256.944 65.3599 256.923 65.4991C256.902 65.6383 257.212 65.7999 257.212 65.9423C257.212 66.0847 256.904 66.2463 256.923 66.3839C256.942 66.5215 257.284 66.5935 257.324 66.7279C257.364 66.8623 257.113 67.1055 257.172 67.2319C257.232 67.3583 257.579 67.3311 257.652 67.4479C257.726 67.5647 257.556 67.8703 257.652 67.9759C257.748 68.0815 258.068 67.9551 258.176 68.0479C258.283 68.1407 258.201 68.4783 258.32 68.5551C258.438 68.6319 258.713 68.4175 258.841 68.4767C258.969 68.5359 258.988 68.8831 259.124 68.9231C259.26 68.9631 259.462 68.6799 259.604 68.7007C259.747 68.7215 259.859 69.0479 260.001 69.0479C260.144 69.0479 260.26 68.7199 260.398 68.7007C260.536 68.6815 260.744 68.9615 260.878 68.9231C261.012 68.8847 261.038 68.5343 261.161 68.4767C261.284 68.4191 261.564 68.6367 261.683 68.5551C261.801 68.4735 261.721 68.1391 261.827 68.0479C261.932 67.9567 262.259 68.0815 262.35 67.9759C262.441 67.8703 262.272 67.5663 262.35 67.4479C262.428 67.3295 262.774 67.3599 262.83 67.2319C262.886 67.1039 262.638 66.8623 262.678 66.7263C262.718 66.5903 263.059 66.5247 263.08 66.3839C263.1 66.2431 262.79 66.0847 262.79 65.9423Z" fill="#3498DB" stroke="#263238" stroke-width="0.5" stroke-miterlimit="10"/>
<path d="M260.005 67.8719C261.07 67.8719 261.934 67.008 261.934 65.9423C261.934 64.8766 261.07 64.0127 260.005 64.0127C258.939 64.0127 258.075 64.8766 258.075 65.9423C258.075 67.008 258.939 67.8719 260.005 67.8719Z" fill="#263238" stroke="#263238" stroke-width="0.5" stroke-linecap="round" stroke-linejoin="round"/>
<path d="M260.004 64.6157L260.302 65.5325H261.265L260.486 66.0973L260.783 67.0141L260.004 66.4477L259.225 67.0141L259.522 66.0973L258.743 65.5325H259.706L260.004 64.6157Z" fill="#3498DB"/>
<path d="M265.061 65.0175H272.421" stroke="#263238" stroke-width="0.5" stroke-miterlimit="10"/>
<path d="M265.061 66.7759H272.421" stroke="#263238" stroke-width="0.5" stroke-miterlimit="10"/>
<path d="M296.67 69.1917C298.181 69.1917 299.406 67.9668 299.406 66.4557C299.406 64.9447 298.181 63.7197 296.67 63.7197C295.159 63.7197 293.934 64.9447 293.934 66.4557C293.934 67.9668 295.159 69.1917 296.67 69.1917Z" stroke="#3498DB" stroke-width="0.5" stroke-miterlimit="10"/>
<path d="M297.066 68.2728C298.067 68.0536 298.701 67.0641 298.482 66.0628C298.263 65.0615 297.273 64.4274 296.272 64.6467C295.271 64.8659 294.637 65.8554 294.856 66.8567C295.075 67.858 296.065 68.492 297.066 68.2728Z" fill="#3498DB"/>
<path d="M305.68 97.24C305.68 97.24 305.12 96.28 304.84 95.76C304.645 95.3836 304.471 94.9963 304.32 94.6C304.32 94.6 305 95 305.2 95.16C305.4 95.32 306.24 96.32 306.24 96.32L306.48 96.04L306.2 95.12L307.12 96.16L307.56 94.28L308.24 96.08L309.52 94.48L309.6 96.08L311.16 94.84L310.6 96.8L310 97.64H305.72L305.68 97.24Z" fill="#3498DB" stroke="#263238" stroke-width="0.5" stroke-miterlimit="10"/>
<path d="M305.44 97.24C305.44 97.24 305.08 97.08 304.48 96.36C304.097 95.8934 303.75 95.3987 303.44 94.88C303.44 94.88 304.8 95.64 305.28 96C305.69 96.35 306.065 96.7384 306.4 97.16C306.4 97.16 306 96.16 305.96 95.68C305.92 95.2 305.88 94.16 305.88 94.16C305.88 94.16 307.04 95.32 307.12 95.64C307.2 95.96 307.64 97.04 307.64 97.04C307.773 96.5527 307.88 96.0586 307.96 95.56C308.04 94.96 308.68 94 308.68 94C308.68 94 308.76 94.68 308.8 95.36C308.84 96.04 308.44 97.32 308.44 97.32C308.44 97.32 308.96 96.08 309.48 95.48C309.889 95.0341 310.33 94.6196 310.8 94.24C310.8 94.24 310.4 95.48 310.24 96.04C310.091 96.4759 309.89 96.8923 309.64 97.28C310.016 96.8055 310.416 96.3515 310.84 95.92C311.231 95.6076 311.646 95.3267 312.08 95.08C312.08 95.08 311.64 95.92 311.32 96.4C311.022 96.8167 310.701 97.2172 310.36 97.6H305.44V97.24Z" fill="#3498DB" stroke="#263238" stroke-width="0.5" stroke-miterlimit="10"/>
<path d="M311.072 97.16L310.796 99.6L310.32 103.773H305.308L304.832 99.6L304.556 97.16H311.072Z" fill="white" stroke="#263238" stroke-width="0.5" stroke-miterlimit="10"/>
<path d="M310.795 99.6001L310.32 103.773H305.307L304.832 99.6001H310.795Z" fill="#3498DB" stroke="#263238" stroke-width="0.5" stroke-miterlimit="10"/>
<path d="M305.761 100.76C305.893 100.76 306.001 100.653 306.001 100.52C306.001 100.387 305.893 100.28 305.761 100.28C305.628 100.28 305.521 100.387 305.521 100.52C305.521 100.653 305.628 100.76 305.761 100.76Z" fill="#263238"/>
<path d="M307.52 100.76C307.653 100.76 307.76 100.653 307.76 100.52C307.76 100.387 307.653 100.28 307.52 100.28C307.388 100.28 307.28 100.387 307.28 100.52C307.28 100.653 307.388 100.76 307.52 100.76Z" fill="#263238"/>
<path d="M306.44 102C306.573 102 306.68 101.893 306.68 101.76C306.68 101.627 306.573 101.52 306.44 101.52C306.308 101.52 306.2 101.627 306.2 101.76C306.2 101.893 306.308 102 306.44 102Z" fill="#263238"/>
<path d="M308.56 102C308.693 102 308.8 101.893 308.8 101.76C308.8 101.627 308.693 101.52 308.56 101.52C308.428 101.52 308.32 101.627 308.32 101.76C308.32 101.893 308.428 102 308.56 102Z" fill="#263238"/>
<path d="M309.961 102C310.093 102 310.201 101.893 310.201 101.76C310.201 101.627 310.093 101.52 309.961 101.52C309.828 101.52 309.721 101.627 309.721 101.76C309.721 101.893 309.828 102 309.961 102Z" fill="#263238"/>
<path d="M309.28 100.76C309.413 100.76 309.52 100.652 309.52 100.52C309.52 100.387 309.413 100.28 309.28 100.28C309.147 100.28 309.04 100.387 309.04 100.52C309.04 100.652 309.147 100.76 309.28 100.76Z" fill="#263238"/>
<path d="M305.761 103C305.893 103 306.001 102.893 306.001 102.76C306.001 102.627 305.893 102.52 305.761 102.52C305.628 102.52 305.521 102.627 305.521 102.76C305.521 102.893 305.628 103 305.761 103Z" fill="#263238"/>
<path d="M307.52 103C307.653 103 307.76 102.893 307.76 102.76C307.76 102.627 307.653 102.52 307.52 102.52C307.388 102.52 307.28 102.627 307.28 102.76C307.28 102.893 307.388 103 307.52 103Z" fill="#263238"/>
<path d="M309.28 103C309.413 103 309.52 102.893 309.52 102.76C309.52 102.627 309.413 102.52 309.28 102.52C309.147 102.52 309.04 102.627 309.04 102.76C309.04 102.893 309.147 103 309.28 103Z" fill="#263238"/>
<path d="M281.389 76.7381C281.392 75.5187 280.748 74.5285 279.95 74.5266C279.152 74.5246 278.503 75.5116 278.5 76.731C278.497 77.9505 279.141 78.9406 279.939 78.9426C280.737 78.9445 281.386 77.9575 281.389 76.7381Z" fill="white" stroke="#263238" stroke-width="0.5" stroke-linecap="round" stroke-linejoin="round"/>
<path d="M281.759 71.2064C281.759 71.2064 280.98 71.6528 280.237 71.1696C279.495 70.6864 280.015 70.4656 280.164 70.168C280.312 69.8704 279.941 69.7968 279.866 69.3888C279.791 68.9808 280.052 68.6464 280.2 68.6096C280.349 68.5728 280.312 68.1632 280.312 67.7552C280.312 67.3472 280.792 66.976 281.016 66.976C281.24 66.976 281.388 66.68 281.536 66.3088C281.685 65.9376 281.983 65.6032 282.496 65.8288C283.01 66.0544 283.276 66.0512 283.536 65.68C283.797 65.3088 284.426 65.2352 284.656 65.4208C284.887 65.6064 284.989 65.9776 285.436 65.6064C285.882 65.2352 286.437 65.3104 286.696 65.5696C286.956 65.8288 286.919 66.1264 287.336 65.9776C287.754 65.8288 288.412 66.0512 288.56 66.4976C288.709 66.944 289.52 67.4256 289.823 67.3136C290.125 67.2016 290.639 67.3136 290.378 67.8704C290.117 68.4272 290.416 68.7984 290.639 68.7984C290.861 68.7984 291.344 68.9472 291.084 69.4288C290.823 69.9104 290.639 70.2832 290.935 70.4304C291.231 70.5776 291.714 70.616 291.344 71.248C290.975 71.88 290.676 71.8416 290.788 72.208C290.9 72.5744 291.12 72.688 290.788 72.9504C290.455 73.2128 290.045 73.3216 290.045 73.544C290.045 73.7664 290.49 73.8768 289.97 74.0624C289.67 74.1718 289.359 74.247 289.042 74.2864C289.042 74.2864 288.301 72.2816 286.184 71.6144C284.068 70.9472 282.845 71.0192 282.362 71.28C281.879 71.5408 281.759 71.2064 281.759 71.2064Z" fill="#263238" stroke="#263238" stroke-width="0.5" stroke-linecap="round" stroke-linejoin="round"/>
<path d="M282.505 84.8126L279.785 86.067C279.785 86.067 278.379 93.8526 278.48 96.0126C278.581 98.1726 279.785 103.547 279.785 103.547H286.32C286.32 103.547 285.315 96.9662 285.817 94.6062C286.32 92.2462 287.526 85.7662 287.526 85.7662C287.526 85.7662 285.517 85.2142 284.913 85.1134C284.31 85.0126 282.505 84.8126 282.505 84.8126Z" fill="white" stroke="#263238" stroke-width="0.5" stroke-miterlimit="10"/>
<path d="M279.386 88.4497L286.906 89.0993C286.845 89.4193 286.785 89.7393 286.722 90.0593L279.234 89.4193C279.281 89.0801 279.337 88.7553 279.386 88.4497ZM285.821 94.6001C285.879 94.3281 285.946 94.0017 286.02 93.6401L278.714 93.0097C278.673 93.3457 278.636 93.6705 278.602 93.9793L285.821 94.6049V94.6001ZM286.461 91.3649L279.023 90.7249C278.975 91.0449 278.927 91.3649 278.882 91.6945L286.273 92.3345C286.341 92.0241 286.404 91.7009 286.468 91.3713L286.461 91.3649ZM278.485 95.4033C278.476 95.6337 278.474 95.8369 278.485 96.0065C278.485 96.1233 278.5 96.2497 278.511 96.3825L285.681 96.8401C285.681 96.4977 285.681 96.1681 285.681 95.8609L278.485 95.4033ZM279.833 86.0401L279.788 86.0609C279.788 86.0609 279.724 86.4193 279.628 87.0033L287.173 87.6561C287.241 87.2929 287.303 86.9665 287.354 86.6961L279.833 86.0401ZM285.913 100.347L279.121 100.275C279.185 100.615 279.25 100.943 279.313 101.255L286.033 101.331C286.001 101.024 285.959 100.695 285.924 100.36L285.913 100.347ZM278.829 98.7345L285.801 99.1441C285.773 98.8166 285.749 98.4886 285.729 98.1601L278.671 97.7457C278.729 98.0705 278.783 98.4033 278.841 98.7409L278.829 98.7345Z" fill="#263238"/>
<path d="M282.104 83.4C282.104 83.4 281.552 85.5088 281.503 86.6144C281.453 87.72 282.607 88.6224 284.264 88.472C285.922 88.3216 286.223 86.5136 286.223 86.0608C286.223 85.608 286.32 81.8 286.32 81.8C285.764 82.2755 285.176 82.7117 284.56 83.1056C283.611 83.7072 282.104 83.4 282.104 83.4Z" fill="#B5B5B5" stroke="#263238" stroke-width="0.5" stroke-miterlimit="10"/>
<path d="M283.611 85.2144C285.18 84.4624 285.963 82.9856 286.316 82.048C286.316 81.888 286.316 81.7984 286.316 81.7984C285.761 82.2739 285.173 82.7101 284.556 83.104C283.596 83.7072 282.096 83.4064 282.096 83.4064C282.096 83.4064 281.752 84.7248 281.582 85.8224C282.287 85.7338 282.973 85.5283 283.611 85.2144Z" fill="#263238" stroke="#263238" stroke-width="0.5" stroke-miterlimit="10"/>
<path d="M288.991 75.3424C288.991 75.3424 288.927 73.1152 288.099 71.8416C287.272 70.568 285.528 69.7888 283.581 70.12C281.165 70.536 280.08 72.3472 279.698 73.8752C279.315 75.4032 279.762 77.6304 279.762 79.1552C279.762 80.68 281.544 83.4192 282.053 83.8656C282.562 84.312 283.347 84.4592 284.245 84.0048C285.069 83.5856 286.424 82.16 287.251 81.3328C288.079 80.5056 288.571 78.0448 288.699 77.472C288.827 76.8992 288.991 75.3424 288.991 75.3424Z" fill="#B5B5B5" stroke="#263238" stroke-width="0.5" stroke-linecap="round" stroke-linejoin="round"/>
<path d="M282.241 79.669C282.241 79.669 282.166 80.149 283.28 80.077" stroke="#263238" stroke-width="0.5" stroke-linecap="round" stroke-linejoin="round"/>
<path d="M281.907 80.9296C281.907 80.9296 283.206 81.8208 284.506 80.968" stroke="#263238" stroke-width="0.5" stroke-linecap="round" stroke-linejoin="round"/>
<path d="M284.506 77.96C284.506 77.96 284.839 77.4032 285.805 77.8848" stroke="#263238" stroke-width="0.5" stroke-linecap="round" stroke-linejoin="round"/>
<path d="M281.907 77.6272C281.907 77.8944 281.783 78.1072 281.629 78.1072C281.475 78.1072 281.351 77.8912 281.351 77.6272C281.351 77.3632 281.475 77.1472 281.629 77.1472C281.783 77.1472 281.907 77.3616 281.907 77.6272Z" fill="#263238"/>
<path d="M280.72 76.1056C280.72 76.1056 281.054 75.3632 282.16 75.7344" stroke="#263238" stroke-width="0.5" stroke-linecap="round" stroke-linejoin="round"/>
<path d="M284.022 76.04C284.022 76.04 285.062 75.4832 286.213 76.336" stroke="#263238" stroke-width="0.5" stroke-linecap="round" stroke-linejoin="round"/>
<path d="M283.581 70.1198C281.165 70.5358 280.08 72.347 279.697 73.875C279.618 74.2143 279.57 74.5604 279.557 74.9086C279.681 74.5198 280.329 72.8142 282.166 72.3486C284.246 71.8302 286.064 72.4974 286.694 73.3886C287.325 74.2798 287.174 75.4302 287.4 75.987C287.541 76.339 288.248 76.8702 288.749 77.2126C288.864 76.5294 288.99 75.3342 288.99 75.3342C288.99 75.3342 288.926 73.107 288.099 71.8334C287.272 70.5598 285.528 69.7886 283.581 70.1198Z" fill="#263238" stroke="#263238" stroke-width="0.5" stroke-linecap="round" stroke-linejoin="round"/>
<path d="M288.365 75.7344C288.365 75.7344 288.55 73.768 287.994 72.4688C287.437 71.1696 286.77 70.6128 286.77 70.6128C286.77 70.6128 288.328 71.4304 288.885 72.2128C289.442 72.9952 289.515 74.8848 289.365 76.184L288.214 75.9984L288.365 75.7344Z" fill="#3498DB" stroke="#263238" stroke-width="0.5" stroke-miterlimit="10"/>
<path d="M289.861 77.664C289.637 78.8624 288.819 79.7152 288.034 79.5696C287.248 79.424 286.795 78.3312 287.019 77.1328C287.243 75.9344 288.061 75.0816 288.845 75.2272C289.629 75.3728 290.085 76.4656 289.861 77.664Z" fill="white" stroke="#263238" stroke-width="0.5" stroke-linecap="round" stroke-linejoin="round"/>
<path d="M289.719 77.8179C289.889 76.9084 289.544 76.0811 288.949 75.9699C288.354 75.8588 287.734 76.506 287.564 77.4154C287.395 78.3249 287.739 79.1522 288.334 79.2634C288.929 79.3745 289.549 78.7273 289.719 77.8179Z" fill="#3498DB" stroke="#263238" stroke-width="0.5" stroke-miterlimit="10"/>
<path d="M280.648 98.6514C281.023 101.307 281.484 103.69 281.484 103.69H278.74C278.74 103.69 278.037 100.072 277.183 98.0642C276.703 96.9218 276.586 96.4642 276.578 96.277C276.205 97.165 273.882 102.651 273.466 102.837C273.013 103.037 271.356 102.677 270.746 102.485C270.136 102.293 270.095 101.431 270.196 101.079C270.296 100.727 274.516 90.5298 274.916 89.8786C275.291 89.2151 275.578 88.5057 275.77 87.7682C275.82 87.4674 275.719 86.7634 276.172 86.5138C276.445 86.3618 278.368 85.917 279.852 85.5874C280.821 85.3714 281.6 85.2066 281.6 85.2066C281.6 85.2066 280.4 89.6754 280.196 92.8402C280.108 94.2434 280.356 96.5346 280.648 98.6498C280.65 98.6498 280.65 98.6498 280.648 98.6514Z" fill="#3498DB" stroke="#263238" stroke-width="0.5" stroke-miterlimit="10"/>
<path d="M280.648 98.6496C280.303 98.0816 278.901 95.6432 278.714 93.104C278.546 90.8256 279.455 87.0864 279.855 85.584C280.824 85.368 281.603 85.2032 281.603 85.2032C281.603 85.2032 280.4 89.6752 280.195 92.84C280.107 94.2432 280.349 96.5344 280.648 98.6496Z" fill="#3498DB" stroke="#263238" stroke-width="0.5" stroke-miterlimit="10"/>
<path d="M276.965 91.0128C277.09 90.4704 277.182 90.1776 277.182 90.1776" stroke="#263238" stroke-width="0.5" stroke-miterlimit="10"/>
<path d="M276.63 96.1552C276.63 96.1552 276.328 95.0992 276.579 93.192C276.646 92.688 276.718 92.24 276.79 91.8544" stroke="#263238" stroke-width="0.5" stroke-miterlimit="10"/>
<path d="M298.73 96.595C297.575 96.5438 291.799 92.9454 291.799 92.9454C291.799 92.9454 289.989 96.491 289.94 97.211C289.89 97.931 291.346 103.689 291.346 103.689H285.168C285.168 103.689 284.981 101.669 284.943 99.4526C284.925 98.4302 284.943 97.3726 285.018 96.4398C285.269 93.5102 286.272 85.2398 286.272 85.2398L287.279 85.3422C287.279 85.3422 287.564 85.4382 288.01 85.5934C289.199 86.0062 291.53 86.851 292.552 87.4494C293.957 88.2718 295.912 89.6094 296.872 90.227C297.832 90.8446 300.087 92.2318 300.538 94.083C300.989 95.9342 299.885 96.6462 298.73 96.595Z" fill="#3498DB" stroke="#263238" stroke-width="0.5" stroke-miterlimit="10"/>
<path d="M288.01 85.587C287.874 87.6446 287.474 92.5454 286.612 94.9166C285.786 97.1838 285.192 98.7822 284.943 99.4526C284.925 98.4302 284.943 97.3726 285.018 96.4398C285.269 93.5102 286.272 85.2398 286.272 85.2398L287.279 85.3422C287.279 85.3422 287.564 85.4318 288.01 85.587Z" stroke="#263238" stroke-width="0.5" stroke-miterlimit="10"/>
<path d="M291.799 92.944L289.488 92.2256" stroke="#263238" stroke-width="0.5" stroke-miterlimit="10"/>
<path d="M288.512 90.669C288.579 91.429 288.789 92.269 289.337 92.7394" stroke="#263238" stroke-width="0.5" stroke-miterlimit="10"/>
<path d="M288.533 89.0896C288.501 89.3775 288.484 89.667 288.483 89.9568" stroke="#263238" stroke-width="0.5" stroke-miterlimit="10"/>
<path d="M288.24 91.7616C288.24 91.7616 288.792 92.7904 289.445 93.1504" stroke="#263238" stroke-width="0.5" stroke-miterlimit="10"/>
<path d="M291.701 84.3985C291.608 84.0214 291.56 83.6348 291.557 83.2465C291.557 82.6273 291.701 82.2785 291.476 82.2993C291.25 82.3201 290.856 82.6081 290.733 83.0993C290.61 83.5905 290.877 84.0465 290.919 84.2113C290.944 84.3124 290.958 84.4159 290.96 84.5201C290.96 84.5201 289.168 84.5809 288.839 84.5809C288.509 84.5809 288.18 84.7665 288.18 85.0753C288.18 85.3841 288.53 85.5553 288.53 85.5553L288.69 85.6385C288.69 85.6385 288.484 86.0289 288.628 86.2353C288.707 86.3529 288.805 86.4571 288.917 86.5441C288.874 86.6065 288.848 86.679 288.84 86.7547C288.833 86.8303 288.845 86.9065 288.876 86.9761C288.929 87.1163 289.022 87.238 289.143 87.3265C289.143 87.3265 288.876 87.5745 289.226 87.9041C289.576 88.2337 290.338 88.2545 290.872 88.2545C291.407 88.2545 291.861 88.2737 291.861 88.2737L292.088 88.2945L293.983 91.1169L295.775 89.1185C295.775 89.1185 293.138 86.5585 292.788 86.1121C292.437 85.6657 291.701 84.3985 291.701 84.3985Z" fill="#B5B5B5" stroke="#263238" stroke-width="0.5" stroke-miterlimit="10"/>
<path d="M295.716 88.8799L293.255 91.1903C293.255 91.1903 295.516 94.2047 296.72 95.7199C297.925 97.2351 300.136 97.4799 301.09 96.7231C302.044 95.9663 302.146 94.2623 301.292 93.2031C300.437 92.1439 295.716 88.8799 295.716 88.8799Z" fill="#3498DB" stroke="#263238" stroke-width="0.5" stroke-miterlimit="10"/>
<path d="M279.248 101.016C279.248 101.016 282.861 101.64 283.199 101.64C283.536 101.64 287.101 100.725 287.341 100.917C287.581 101.109 289.171 102.459 289.557 102.845C289.786 103.072 289.981 103.332 290.135 103.616H286.811L285.8 103.374C285.8 103.374 284.943 103.771 284.461 103.771C283.979 103.771 282.367 103.678 282.367 103.678L279.528 103.632C279.528 103.632 278.573 102.027 279.248 101.016Z" fill="#B5B5B5" stroke="#263238" stroke-width="0.5" stroke-miterlimit="10"/>
<path d="M287.822 103.618C287.822 103.618 287.003 102.702 286.667 102.461C286.464 102.314 286.239 102.199 286 102.12" stroke="#263238" stroke-width="0.5" stroke-miterlimit="10"/>
<path d="M288.931 103.666C288.931 103.666 287.341 101.931 287.149 101.786C286.936 101.662 286.71 101.566 286.474 101.498" stroke="#263238" stroke-width="0.5" stroke-miterlimit="10"/>
<path d="M271.347 99.3776C271.347 99.3776 269.907 100.534 269.661 101.298C269.414 102.061 269.757 102.984 270.528 103.274C271.299 103.563 279.901 103.72 279.901 103.72C279.76 103.786 279.13 103.195 279.488 102.406C279.731 101.872 280.403 101.106 280.403 101.106L273.226 99.2752" fill="#3498DB"/>
<path d="M271.347 99.3776C271.347 99.3776 269.907 100.534 269.661 101.298C269.414 102.061 269.757 102.984 270.528 103.274C271.299 103.563 279.901 103.72 279.901 103.72C279.76 103.786 279.13 103.195 279.488 102.406C279.731 101.872 280.403 101.106 280.403 101.106L273.226 99.2752" stroke="#263238" stroke-width="0.5" stroke-miterlimit="10"/>
<path d="M283.481 103.394H253.961V103.773H283.481V103.394Z" fill="#263238" stroke="#263238" stroke-miterlimit="10"/>
<path d="M272.773 103.773H254.362L252.659 90.9697H271.07L272.773 103.773Z" fill="white" stroke="#263238" stroke-miterlimit="10"/>
<path d="M272.398 103.773H253.989L252.286 90.9697H270.696L272.398 103.773Z" fill="white" stroke="#263238" stroke-miterlimit="10"/>
<path d="M255.411 103.773H272.342L271.062 94.1089C268.797 95.5489 266.037 97.4129 263.029 99.7089C260.736 101.482 258.161 102.856 255.411 103.773Z" fill="#263238" stroke="#263238" stroke-miterlimit="10"/>
<path d="M261.756 98.3681C262.425 98.3681 262.966 97.8681 262.966 97.2513C262.966 96.6345 262.425 96.1345 261.756 96.1345C261.088 96.1345 260.547 96.6345 260.547 97.2513C260.547 97.8681 261.088 98.3681 261.756 98.3681Z" fill="white" stroke="#263238" stroke-miterlimit="10"/>
<path d="M239.787 103.773H313.68" stroke="#263238" stroke-miterlimit="10"/>
</g>
<defs>
<filter id="filter0_d_1099_19371" x="0" y="0" width="340" height="146" filterUnits="userSpaceOnUse" color-interpolation-filters="sRGB">
<feFlood flood-opacity="0" result="BackgroundImageFix"/>
<feColorMatrix in="SourceAlpha" type="matrix" values="0 0 0 0 0 0 0 0 0 0 0 0 0 0 0 0 0 0 127 0" result="hardAlpha"/>
<feMorphology radius="2" operator="erode" in="SourceAlpha" result="effect1_dropShadow_1099_19371"/>
<feOffset dy="4"/>
<feGaussianBlur stdDeviation="4"/>
<feComposite in2="hardAlpha" operator="out"/>
<feColorMatrix type="matrix" values="0 0 0 0 0.0930852 0 0 0 0 0.127917 0 0 0 0 0.180165 0 0 0 0.06 0"/>
<feBlend mode="normal" in2="BackgroundImageFix" result="effect1_dropShadow_1099_19371"/>
<feBlend mode="normal" in="SourceGraphic" in2="effect1_dropShadow_1099_19371" result="shape"/>
</filter>
</defs>
</svg>
